  0
SECTION
  2
HEADER
  9
$ACADVER
  1
AC1018
  9
$ACADMAINTVER
 70
     0
  9
$DWGCODEPAGE
  3
UNDEFINED
  9
$INSBASE
 10
0.0
 20
0.0
 30
0.0
  9
$EXTMIN
 10
0.0
 20
0.0
 30
0.0
  9
$EXTMAX
 10
48.0
 20
96.0
 30
0.0
  9
$LIMMIN
 10
0.0
 20
0.0
  9
$LIMMAX
 10
12.0
 20
9.0
  9
$ORTHOMODE
 70
     0
  9
$REGENMODE
 70
     1
  9
$FILLMODE
 70
     1
  9
$QTEXTMODE
 70
     0
  9
$MIRRTEXT
 70
     1
  9
$LTSCALE
 40
0.0393700787401575
  9
$ATTMODE
 70
     1
  9
$TEXTSIZE
 40
0.2
  9
$TRACEWID
 40
0.05
  9
$TEXTSTYLE
  7
Standard
  9
$CLAYER
  8
0
  9
$CELTYPE
  6
ByLayer
  9
$CECOLOR
 62
   256
  9
$CELTSCALE
 40
1.0
  9
$DISPSILH
 70
     0
  9
$DIMSCALE
 40
1.0
  9
$DIMASZ
 40
0.18
  9
$DIMEXO
 40
0.0625
  9
$DIMDLI
 40
0.38
  9
$DIMRND
 40
0.0
  9
$DIMDLE
 40
0.0
  9
$DIMEXE
 40
0.18
  9
$DIMTP
 40
0.0
  9
$DIMTM
 40
0.0
  9
$DIMTXT
 40
0.18
  9
$DIMCEN
 40
0.09
  9
$DIMTSZ
 40
0.0
  9
$DIMTOL
 70
     0
  9
$DIMLIM
 70
     0
  9
$DIMTIH
 70
     1
  9
$DIMTOH
 70
     1
  9
$DIMSE1
 70
     0
  9
$DIMSE2
 70
     0
  9
$DIMTAD
 70
     0
  9
$DIMZIN
 70
     0
  9
$DIMBLK
  1

  9
$DIMASO
 70
     1
  9
$DIMSHO
 70
     1
  9
$DIMPOST
  1

  9
$DIMAPOST
  1

  9
$DIMALT
 70
     0
  9
$DIMALTD
 70
     2
  9
$DIMALTF
 40
25.4
  9
$DIMLFAC
 40
1.0
  9
$DIMTOFL
 70
     0
  9
$DIMTVP
 40
0.0
  9
$DIMTIX
 70
     0
  9
$DIMSOXD
 70
     0
  9
$DIMSAH
 70
     0
  9
$DIMBLK1
  1

  9
$DIMBLK2
  1

  9
$DIMSTYLE
  2
Standard
  9
$DIMCLRD
 70
     0
  9
$DIMCLRE
 70
     0
  9
$DIMCLRT
 70
     0
  9
$DIMTFAC
 40
1.0
  9
$DIMGAP
 40
0.09
  9
$DIMJUST
 70
     0
  9
$DIMSD1
 70
     0
  9
$DIMSD2
 70
     0
  9
$DIMTOLJ
 70
     1
  9
$DIMTZIN
 70
     0
  9
$DIMALTZ
 70
     0
  9
$DIMALTTZ
 70
     0
  9
$DIMUPT
 70
     0
  9
$DIMDEC
 70
     4
  9
$DIMTDEC
 70
     4
  9
$DIMALTU
 70
     2
  9
$DIMALTTD
 70
     2
  9
$DIMTXSTY
  7
Standard
  9
$DIMAUNIT
 70
     0
  9
$DIMADEC
 70
     0
  9
$DIMALTRND
 40
0.0
  9
$DIMAZIN
 70
     0
  9
$DIMDSEP
 70
    46
  9
$DIMATFIT
 70
     3
  9
$DIMFRAC
 70
     0
  9
$DIMLDRBLK
  1

  9
$DIMLUNIT
 70
     2
  9
$DIMLWD
 70
    -2
  9
$DIMLWE
 70
    -2
  9
$DIMTMOVE
 70
     2
  9
$LUNITS
 70
     2
  9
$LUPREC
 70
     3
  9
$SKETCHINC
 40
0.1
  9
$FILLETRAD
 40
0.5
  9
$AUNITS
 70
     0
  9
$AUPREC
 70
     0
  9
$MENU
  1
.
  9
$ELEVATION
 40
0.0
  9
$PELEVATION
 40
0.0
  9
$THICKNESS
 40
0.0
  9
$LIMCHECK
 70
     0
  9
$CHAMFERA
 40
0.5
  9
$CHAMFERB
 40
0.5
  9
$CHAMFERC
 40
1.0
  9
$CHAMFERD
 40
0.0
  9
$SKPOLY
 70
     0
  9
$TDCREATE
 40
2455904.550671285
  9
$TDUCREATE
 40
2455904.75900463
  9
$TDUPDATE
 40
2455904.550694433
  9
$TDUUPDATE
 40
2455904.759027778
  9
$TDINDWG
 40
0.0000000116
  9
$TDUSRTIMER
 40
0.0000000116
  9
$USRTIMER
 70
     1
  9
$ANGBASE
 50
0.0
  9
$ANGDIR
 70
     0
  9
$PDMODE
 70
     0
  9
$PDSIZE
 40
0.0
  9
$PLINEWID
 40
0.0
  9
$SPLFRAME
 70
     0
  9
$SPLINETYPE
 70
     6
  9
$SPLINESEGS
 70
     8
  9
$HANDSEED
  5
155
  9
$SURFTAB1
 70
     6
  9
$SURFTAB2
 70
     6
  9
$SURFTYPE
 70
     6
  9
$SURFU
 70
     6
  9
$SURFV
 70
     6
  9
$UCSBASE
  2

  9
$UCSNAME
  2

  9
$UCSORG
 10
0.0
 20
0.0
 30
0.0
  9
$UCSXDIR
 10
1.0
 20
0.0
 30
0.0
  9
$UCSYDIR
 10
0.0
 20
1.0
 30
0.0
  9
$UCSORTHOREF
  2

  9
$UCSORTHOVIEW
 70
     0
  9
$UCSORGTOP
 10
0.0
 20
0.0
 30
0.0
  9
$UCSORGBOTTOM
 10
0.0
 20
0.0
 30
0.0
  9
$UCSORGLEFT
 10
0.0
 20
0.0
 30
0.0
  9
$UCSORGRIGHT
 10
0.0
 20
0.0
 30
0.0
  9
$UCSORGFRONT
 10
0.0
 20
0.0
 30
0.0
  9
$UCSORGBACK
 10
0.0
 20
0.0
 30
0.0
  9
$PUCSBASE
  2

  9
$PUCSNAME
  2

  9
$PUCSORG
 10
0.0
 20
0.0
 30
0.0
  9
$PUCSXDIR
 10
1.0
 20
0.0
 30
0.0
  9
$PUCSYDIR
 10
0.0
 20
1.0
 30
0.0
  9
$PUCSORTHOREF
  2

  9
$PUCSORTHOVIEW
 70
     0
  9
$PUCSORGTOP
 10
0.0
 20
0.0
 30
0.0
  9
$PUCSORGBOTTOM
 10
0.0
 20
0.0
 30
0.0
  9
$PUCSORGLEFT
 10
0.0
 20
0.0
 30
0.0
  9
$PUCSORGRIGHT
 10
0.0
 20
0.0
 30
0.0
  9
$PUCSORGFRONT
 10
0.0
 20
0.0
 30
0.0
  9
$PUCSORGBACK
 10
0.0
 20
0.0
 30
0.0
  9
$USERI1
 70
     0
  9
$USERI2
 70
     0
  9
$USERI3
 70
     0
  9
$USERI4
 70
     0
  9
$USERI5
 70
     0
  9
$USERR1
 40
0.0
  9
$USERR2
 40
0.0
  9
$USERR3
 40
0.0
  9
$USERR4
 40
0.0
  9
$USERR5
 40
0.0
  9
$WORLDVIEW
 70
     1
  9
$SHADEDGE
 70
     3
  9
$SHADEDIF
 70
    70
  9
$TILEMODE
 70
     1
  9
$MAXACTVP
 70
    64
  9
$PINSBASE
 10
0.0
 20
0.0
 30
0.0
  9
$PLIMCHECK
 70
     0
  9
$PEXTMIN
 10
1.000000000000000E+20
 20
1.000000000000000E+20
 30
1.000000000000000E+20
  9
$PEXTMAX
 10
-1.000000000000000E+20
 20
-1.000000000000000E+20
 30
-1.000000000000000E+20
  9
$PLIMMIN
 10
0.0
 20
0.0
  9
$PLIMMAX
 10
12.0
 20
9.0
  9
$UNITMODE
 70
     0
  9
$VISRETAIN
 70
     1
  9
$PLINEGEN
 70
     0
  9
$PSLTSCALE
 70
     1
  9
$TREEDEPTH
 70
  3020
  9
$CMLSTYLE
  2
Standard
  9
$CMLJUST
 70
     0
  9
$CMLSCALE
 40
1.0
  9
$PROXYGRAPHICS
 70
     1
  9
$MEASUREMENT
 70
     0
  9
$CELWEIGHT
370
    -1
  9
$ENDCAPS
280
     0
  9
$JOINSTYLE
280
     0
  9
$LWDISPLAY
290
     0
  9
$INSUNITS
 70
     1
  9
$HYPERLINKBASE
  1

  9
$STYLESHEET
  1

  9
$XEDIT
290
     1
  9
$CEPSNTYPE
380
     0
  9
$PSTYLEMODE
290
     1
  9
$FINGERPRINTGUID
  2
{2AFE904A-E310-2055-A1C2-30A4AC7C5FFB}
  9
$VERSIONGUID
  2
{FAEB1C32-E019-11D5-929B-00C0DF256EC4}
  9
$EXTNAMES
290
     1
  9
$PSVPSCALE
 40
0.0
  9
$OLESTARTUP
290
     0
  9
$SORTENTS
280
   127
  9
$INDEXCTL
280
     0
  9
$HIDETEXT
280
     1
  9
$XCLIPFRAME
290
     0
  9
$HALOGAP
280
     0
  9
$OBSCOLOR
 70
   257
  9
$OBSLTYPE
280
     0
  9
$INTERSECTIONDISPLAY
280
     0
  9
$INTERSECTIONCOLOR
 70
   257
  9
$DIMASSOC
280
     2
  9
$PROJECTNAME
  1

  0
ENDSEC
  0
SECTION
  2
CLASSES
  0
CLASS
  1
ACDBDICTIONARYWDFLT
  2
AcDbDictionaryWithDefault
  3
ObjectDBX Classes
 90
        0
 91
        4
280
     0
281
     0
  0
CLASS
  1
VISUALSTYLE
  2
AcDbVisualStyle
  3
ObjectDBX Classes
 90
     4095
 91
        4
280
     0
281
     0
  0
CLASS
  1
MATERIAL
  2
AcDbMaterial
  3
ObjectDBX Classes
 90
     1153
 91
        4
280
     0
281
     0
  0
ENDSEC
  0
SECTION
  2
TABLES
  0
TABLE
  2
VPORT
  5
8
330
0
100
AcDbSymbolTable
 70
     1
  0
VPORT
  5
29
330
8
100
AcDbSymbolTableRecord
100
AcDbViewportTableRecord
  2
*Active
 70
     0
 10
0.0
 20
0.0
 11
1.0
 21
1.0
 12
24.0
 22
48.0
 13
0.0
 23
0.0
 14
0.5
 24
0.5
 15
0.5
 25
0.5
 16
0.0
 26
0.0
 36
1.0
 17
0.0
 27
0.0
 37
0.0
 40
97.92
 41
0.5
 42
50.0
 43
0.0
 44
0.0
 50
0.0
 51
0.0
 71
     0
 72
   100
 73
     1
 74
     3
 75
     0
 76
     0
 77
     0
 78
     0
281
     0
 65
     1
110
0.0
120
0.0
130
0.0
111
1.0
121
0.0
131
0.0
112
0.0
122
1.0
132
0.0
 79
     0
146
0.0
  0
ENDTAB
  0
TABLE
  2
LTYPE
  5
5
330
0
100
AcDbSymbolTable
 70
     1
  0
LTYPE
  5
14
330
5
100
AcDbSymbolTableRecord
100
AcDbLinetypeTableRecord
  2
ByBlock
 70
     0
  3

 72
    65
 73
     0
 40
0.0
  0
LTYPE
  5
15
330
5
100
AcDbSymbolTableRecord
100
AcDbLinetypeTableRecord
  2
ByLayer
 70
     0
  3

 72
    65
 73
     0
 40
0.0
  0
LTYPE
  5
16
330
5
100
AcDbSymbolTableRecord
100
AcDbLinetypeTableRecord
  2
Continuous
 70
     0
  3
Solid line
 72
    65
 73
     0
 40
0.0
  0
ENDTAB
  0
TABLE
  2
LAYER
  5
2
330
0
100
AcDbSymbolTable
 70
     4
  0
LAYER
  5
10
330
2
100
AcDbSymbolTableRecord
100
AcDbLayerTableRecord
  2
0
 70
     0
 62
     7
  6
Continuous
370
    -3
390
F
  0
LAYER
  5
3F
330
2
100
AcDbSymbolTableRecord
100
AcDbLayerTableRecord
  2
holes
 70
     0
 62
     7
  6
Continuous
370
    -3
390
F
  0
LAYER
  5
4B
330
2
100
AcDbSymbolTableRecord
100
AcDbLayerTableRecord
  2
outside cuts
 70
     0
 62
     7
  6
Continuous
370
    -3
390
F
  0
LAYER
  5
A8
330
2
100
AcDbSymbolTableRecord
100
AcDbLayerTableRecord
  2
inside cuts
 70
     0
 62
     7
  6
Continuous
370
    -3
390
F
  0
ENDTAB
  0
TABLE
  2
STYLE
  5
3
330
0
100
AcDbSymbolTable
 70
     1
  0
STYLE
  5
11
330
3
100
AcDbSymbolTableRecord
100
AcDbTextStyleTableRecord
  2
Standard
 70
     0
 40
0.0
 41
1.0
 50
0.0
 71
     0
 42
0.2
  3
txt
  4

  0
ENDTAB
  0
TABLE
  2
VIEW
  5
6
330
0
100
AcDbSymbolTable
 70
     0
  0
ENDTAB
  0
TABLE
  2
UCS
  5
7
330
0
100
AcDbSymbolTable
 70
     0
  0
ENDTAB
  0
TABLE
  2
APPID
  5
9
330
0
100
AcDbSymbolTable
 70
     1
  0
APPID
  5
12
330
9
100
AcDbSymbolTableRecord
100
AcDbRegAppTableRecord
  2
ACAD
 70
     0
  0
ENDTAB
  0
TABLE
  2
DIMSTYLE
  5
A
330
0
100
AcDbSymbolTable
 70
     1
100
AcDbDimStyleTable
  0
DIMSTYLE
105
27
330
A
100
AcDbSymbolTableRecord
100
AcDbDimStyleTableRecord
  2
Standard
 70
     0
178
     0
340
11
  0
ENDTAB
  0
TABLE
  2
BLOCK_RECORD
  5
1
330
0
100
AcDbSymbolTable
 70
     1
  0
BLOCK_RECORD
  5
1F
330
1
100
AcDbSymbolTableRecord
100
AcDbBlockTableRecord
  2
*Model_Space
340
22
  0
BLOCK_RECORD
  5
1B
330
1
100
AcDbSymbolTableRecord
100
AcDbBlockTableRecord
  2
*Paper_Space
340
1E
  0
BLOCK_RECORD
  5
23
330
1
100
AcDbSymbolTableRecord
100
AcDbBlockTableRecord
  2
*Paper_Space0
340
26
  0
ENDTAB
  0
ENDSEC
  0
SECTION
  2
BLOCKS
  0
BLOCK
  5
20
330
1F
100
AcDbEntity
  8
0
100
AcDbBlockBegin
  2
*Model_Space
 70
     0
 10
0.0
 20
0.0
 30
0.0
  3
*Model_Space
  1

  0
ENDBLK
  5
21
330
1F
100
AcDbEntity
  8
0
100
AcDbBlockEnd
  0
BLOCK
  5
1C
330
1B
100
AcDbEntity
 67
     1
  8
0
100
AcDbBlockBegin
  2
*Paper_Space
 70
     0
 10
0.0
 20
0.0
 30
0.0
  3
*Paper_Space
  1

  0
ENDBLK
  5
1D
330
1B
100
AcDbEntity
 67
     1
  8
0
100
AcDbBlockEnd
  0
BLOCK
  5
24
330
23
100
AcDbEntity
  8
0
100
AcDbBlockBegin
  2
*Paper_Space0
 70
     0
 10
0.0
 20
0.0
 30
0.0
  3
*Paper_Space0
  1

  0
ENDBLK
  5
25
330
23
100
AcDbEntity
  8
0
100
AcDbBlockEnd
  0
ENDSEC
  0
SECTION
  2
ENTITIES
  0
CIRCLE
  5
40
330
1F
100
AcDbEntity
  8
holes
 62
     3
100
AcDbCircle
 10
18.76463178899309
 20
41.12487973579018
 30
0.0
 40
0.125
  0
CIRCLE
  5
41
330
1F
100
AcDbEntity
  8
holes
 62
     3
100
AcDbCircle
 10
28.77965795138472
 20
41.12487973608077
 30
0.0
 40
0.125
  0
CIRCLE
  5
42
330
1F
100
AcDbEntity
  8
holes
 62
     3
100
AcDbCircle
 10
31.56354291700782
 20
28.32596860858043
 30
0.0
 40
0.125
  0
CIRCLE
  5
43
330
1F
100
AcDbEntity
  8
holes
 62
     3
100
AcDbCircle
 10
15.98074682362806
 20
28.32596860859112
 30
0.0
 40
0.125
  0
POLYLINE
  5
44
330
1F
100
AcDbEntity
  8
0
 62
     8
100
AcDb2dPolyline
 66
     1
 10
0.0
 20
0.0
 30
0.0
  0
VERTEX
  5
45
330
44
100
AcDbEntity
  8
0
 62
     8
100
AcDbVertex
100
AcDb2dVertex
 10
0.0
 20
0.0
 30
0.0
  0
VERTEX
  5
46
330
44
100
AcDbEntity
  8
0
 62
     8
100
AcDbVertex
100
AcDb2dVertex
 10
48.0
 20
0.0
 30
0.0
  0
VERTEX
  5
47
330
44
100
AcDbEntity
  8
0
 62
     8
100
AcDbVertex
100
AcDb2dVertex
 10
48.0
 20
96.0
 30
0.0
  0
VERTEX
  5
48
330
44
100
AcDbEntity
  8
0
 62
     8
100
AcDbVertex
100
AcDb2dVertex
 10
0.0
 20
96.0
 30
0.0
  0
VERTEX
  5
49
330
44
100
AcDbEntity
  8
0
 62
     8
100
AcDbVertex
100
AcDb2dVertex
 10
0.0
 20
0.0
 30
0.0
  0
SEQEND
  5
4A
330
44
100
AcDbEntity
  8
0
 62
     8
  0
SPLINE
  5
4C
330
1F
100
AcDbEntity
  8
outside cuts
  6
Continuous
 62
     1
370
     0
100
AcDbSpline
210
0.0
220
0.0
230
1.0
 70
    12
 71
     2
 72
     6
 73
     3
 74
     0
 42
0.0000000001
 43
0.0000000001
 12
1.0
 22
0.0
 32
0.0
 13
1.0
 23
0.0
 33
0.0
 40
525.7364913371628
 40
525.7364913371628
 40
525.7364913371628
 40
527.0449646773833
 40
527.0449646773833
 40
527.0449646773833
 10
39.70718424006699
 20
13.08833008659136
 30
0.0
 41
1.0
 10
39.90403463369073
 20
13.08833008653591
 30
0.0
 41
0.7071067811861449
 10
39.90403463372748
 20
13.28518048029555
 30
0.0
 41
1.0
  0
LINE
  5
4D
330
1F
100
AcDbEntity
  8
outside cuts
  6
Continuous
 62
     1
370
     0
100
AcDbLine
 10
39.90403463372748
 20
13.28518048029555
 30
0.0
 11
39.90403463372748
 21
13.48203087399974
 31
0.0
  0
LINE
  5
4E
330
1F
100
AcDbEntity
  8
outside cuts
  6
Continuous
 62
     1
370
     0
100
AcDbLine
 10
39.90403463372748
 20
13.48203087399974
 30
0.0
 11
39.90403463372748
 21
14.24974740938909
 31
0.0
  0
LINE
  5
4F
330
1F
100
AcDbEntity
  8
outside cuts
  6
Continuous
 62
     1
370
     0
100
AcDbLine
 10
39.90403463372748
 20
14.24974740938909
 30
0.0
 11
43.84104250763572
 21
14.24974740938909
 31
0.0
  0
LINE
  5
50
330
1F
100
AcDbEntity
  8
outside cuts
  6
Continuous
 62
     1
370
     0
100
AcDbLine
 10
43.84104250763572
 20
14.24974740938909
 30
0.0
 11
43.84104250763572
 21
2.438723787664347
 31
0.0
  0
LINE
  5
51
330
1F
100
AcDbEntity
  8
outside cuts
  6
Continuous
 62
     1
370
     0
100
AcDbLine
 10
43.84104250763572
 20
2.438723787664347
 30
0.0
 11
41.87253857068161
 21
2.438723787664347
 31
0.0
  0
LINE
  5
52
330
1F
100
AcDbEntity
  8
outside cuts
  6
Continuous
 62
     1
370
     0
100
AcDbLine
 10
41.87253857068161
 20
2.438723787664347
 30
0.0
 11
40.64957043583199
 21
7.330596327062739
 31
0.0
  0
SPLINE
  5
53
330
1F
100
AcDbEntity
  8
outside cuts
  6
Continuous
 62
     1
370
     0
100
AcDbSpline
210
0.0
220
0.0
230
1.0
 70
    12
 71
     2
 72
     6
 73
     3
 74
     0
 42
0.0000000001
 43
0.0000000001
 12
1.0
 22
0.0
 32
0.0
 13
1.0
 23
0.0
 33
0.0
 40
627.4343996080806
 40
627.4343996080806
 40
627.4343996080806
 40
649.5225218847905
 40
649.5225218847905
 40
649.5225218847905
 10
40.64957043583199
 20
7.330596327062739
 30
0.0
 41
1.0
 10
39.90403463373074
 20
10.31273953549751
 30
0.0
 41
0.7882054380161235
 10
36.83011177395876
 20
10.31273953548084
 30
0.0
 41
1.0
  0
LINE
  5
54
330
1F
100
AcDbEntity
  8
outside cuts
  6
Continuous
 62
     1
370
     0
100
AcDbLine
 10
36.83011177395876
 20
10.31273953548084
 30
0.0
 11
10.71417796679694
 21
10.31273953548084
 31
0.0
  0
SPLINE
  5
55
330
1F
100
AcDbEntity
  8
outside cuts
  6
Continuous
 62
     1
370
     0
100
AcDbSpline
210
0.0
220
0.0
230
1.0
 70
    12
 71
     2
 72
     6
 73
     3
 74
     0
 42
0.0000000001
 43
0.0000000001
 12
1.0
 22
0.0
 32
0.0
 13
1.0
 23
0.0
 33
0.0
 40
760.0357520233953
 40
760.0357520233953
 40
760.0357520233953
 40
782.1238743001054
 40
782.1238743001054
 40
782.1238743001054
 10
10.71417796679694
 20
10.31273953548084
 30
0.0
 41
1.0
 10
7.640255107071166
 20
10.31273953551033
 30
0.0
 41
0.788205438016097
 10
6.894719304923672
 20
7.330596327062739
 30
0.0
 41
1.0
  0
LINE
  5
56
330
1F
100
AcDbEntity
  8
outside cuts
  6
Continuous
 62
     1
370
     0
100
AcDbLine
 10
6.894719304923672
 20
7.330596327062739
 30
0.0
 11
5.671751170074092
 21
2.438723787664347
 31
0.0
  0
LINE
  5
57
330
1F
100
AcDbEntity
  8
outside cuts
  6
Continuous
 62
     1
370
     0
100
AcDbLine
 10
5.671751170074092
 20
2.438723787664347
 30
0.0
 11
3.703247233119928
 21
2.438723787664347
 31
0.0
  0
LINE
  5
58
330
1F
100
AcDbEntity
  8
outside cuts
  6
Continuous
 62
     1
370
     0
100
AcDbLine
 10
3.703247233119928
 20
2.438723787664347
 30
0.0
 11
3.703247233119928
 21
14.24974740938909
 31
0.0
  0
LINE
  5
59
330
1F
100
AcDbEntity
  8
outside cuts
  6
Continuous
 62
     1
370
     0
100
AcDbLine
 10
3.703247233119928
 20
14.24974740938909
 30
0.0
 11
7.640255107028228
 21
14.24974740938909
 31
0.0
  0
LINE
  5
5A
330
1F
100
AcDbEntity
  8
outside cuts
  6
Continuous
 62
     1
370
     0
100
AcDbLine
 10
7.640255107028228
 20
14.24974740938909
 30
0.0
 11
7.640255107028228
 21
13.48203087399974
 31
0.0
  0
LINE
  5
5B
330
1F
100
AcDbEntity
  8
outside cuts
  6
Continuous
 62
     1
370
     0
100
AcDbLine
 10
7.640255107028228
 20
13.48203087399974
 30
0.0
 11
7.640255107028228
 21
13.28518048029555
 31
0.0
  0
SPLINE
  5
5C
330
1F
100
AcDbEntity
  8
outside cuts
  6
Continuous
 62
     1
370
     0
100
AcDbSpline
210
0.0
220
0.0
230
1.0
 70
    12
 71
     2
 72
     6
 73
     3
 74
     0
 42
0.0000000001
 43
0.0000000001
 12
1.0
 22
0.0
 32
0.0
 13
1.0
 23
0.0
 33
0.0
 40
882.5133092308027
 40
882.5133092308027
 40
882.5133092308027
 40
883.8217825710237
 40
883.8217825710237
 40
883.8217825710237
 10
7.640255107028228
 20
13.28518048029555
 30
0.0
 41
1.0
 10
7.640255107039977
 20
13.08833008664171
 30
0.0
 41
0.7071067811865234
 10
7.837105500776037
 20
13.08833008659136
 30
0.0
 41
1.0
  0
SPLINE
  5
5D
330
1F
100
AcDbEntity
  8
outside cuts
  6
Continuous
 62
     1
370
     0
100
AcDbSpline
210
0.0
220
0.0
230
1.0
 70
    12
 71
     2
 72
     6
 73
     3
 74
     0
 42
0.0000000001
 43
0.0000000001
 12
1.0
 22
0.0
 32
0.0
 13
1.0
 23
0.0
 33
0.0
 40
883.8217825710237
 40
883.8217825710237
 40
883.8217825710237
 40
885.1302559112447
 40
885.1302559112447
 40
885.1302559112447
 10
7.837105500776037
 20
13.08833008659136
 30
0.0
 41
1.0
 10
8.033955894424693
 20
13.08833008662859
 30
0.0
 41
0.7071067811865476
 10
8.03395589443652
 20
13.28518048029555
 30
0.0
 41
1.0
  0
SPLINE
  5
5E
330
1F
100
AcDbEntity
  8
outside cuts
  6
Continuous
 62
     1
370
     0
100
AcDbSpline
210
0.0
220
0.0
230
1.0
 70
    12
 71
     2
 72
     6
 73
     3
 74
     0
 42
0.0000000001
 43
0.0000000001
 12
1.0
 22
0.0
 32
0.0
 13
1.0
 23
0.0
 33
0.0
 40
885.1302559112447
 40
885.1302559112447
 40
885.1302559112447
 40
886.4387292514643
 40
886.4387292514643
 40
886.4387292514643
 10
8.03395589443652
 20
13.28518048029555
 30
0.0
 41
1.0
 10
8.033955894424693
 20
13.48203087402179
 30
0.0
 41
0.7071067811865476
 10
8.230806288184315
 20
13.48203087399974
 30
0.0
 41
1.0
  0
LINE
  5
5F
330
1F
100
AcDbEntity
  8
outside cuts
  6
Continuous
 62
     1
370
     0
100
AcDbLine
 10
8.230806288184315
 20
13.48203087399974
 30
0.0
 11
25.15009762621957
 21
13.48203087399974
 31
0.0
  0
SPLINE
  5
60
330
1F
100
AcDbEntity
  8
outside cuts
  6
Continuous
 62
     1
370
     0
100
AcDbSpline
210
0.0
220
0.0
230
1.0
 70
    12
 71
     2
 72
     6
 73
     3
 74
     0
 42
0.0000000001
 43
0.0000000001
 12
1.0
 22
0.0
 32
0.0
 13
1.0
 23
0.0
 33
0.0
 40
958.0350792514641
 40
958.0350792514641
 40
958.0350792514641
 40
959.3435525916846
 40
959.3435525916846
 40
959.3435525916846
 10
25.15009762621957
 20
13.48203087399974
 30
0.0
 41
1.0
 10
25.34694801996921
 20
13.48203087398225
 30
0.0
 41
0.7071067811861615
 10
25.34694801996736
 20
13.28518048029555
 30
0.0
 41
1.0
  0
SPLINE
  5
61
330
1F
100
AcDbEntity
  8
outside cuts
  6
Continuous
 62
     1
370
     0
100
AcDbSpline
210
0.0
220
0.0
230
1.0
 70
    12
 71
     2
 72
     6
 73
     3
 74
     0
 42
0.0000000001
 43
0.0000000001
 12
1.0
 22
0.0
 32
0.0
 13
1.0
 23
0.0
 33
0.0
 40
959.3435525916846
 40
959.3435525916846
 40
959.3435525916846
 40
960.652025931905
 40
960.652025931905
 40
960.652025931905
 10
25.34694801996736
 20
13.28518048029555
 30
0.0
 41
1.0
 10
25.34694801996921
 20
13.08833008658869
 30
0.0
 41
0.7071067811861615
 10
25.54379841362784
 20
13.08833008659136
 30
0.0
 41
1.0
  0
SPLINE
  5
62
330
1F
100
AcDbEntity
  8
outside cuts
  6
Continuous
 62
     1
370
     0
100
AcDbSpline
210
0.0
220
0.0
230
1.0
 70
    12
 71
     2
 72
     6
 73
     3
 74
     0
 42
0.0000000001
 43
0.0000000001
 12
1.0
 22
0.0
 32
0.0
 13
1.0
 23
0.0
 33
0.0
 40
960.652025931905
 40
960.652025931905
 40
960.652025931905
 40
961.9604992721252
 40
961.9604992721252
 40
961.9604992721252
 10
25.54379841362784
 20
13.08833008659136
 30
0.0
 41
1.0
 10
25.74064880731598
 20
13.08833008660723
 30
0.0
 41
0.7071067811869336
 10
25.74064880737565
 20
13.28518048029555
 30
0.0
 41
1.0
  0
LINE
  5
63
330
1F
100
AcDbEntity
  8
outside cuts
  6
Continuous
 62
     1
370
     0
100
AcDbLine
 10
25.74064880737565
 20
13.28518048029555
 30
0.0
 11
25.74064880737565
 21
13.48203087399974
 31
0.0
  0
LINE
  5
64
330
1F
100
AcDbEntity
  8
outside cuts
  6
Continuous
 62
     1
370
     0
100
AcDbLine
 10
25.74064880737565
 20
13.48203087399974
 30
0.0
 11
25.74064880737565
 21
14.24974740938909
 31
0.0
  0
LINE
  5
65
330
1F
100
AcDbEntity
  8
outside cuts
  6
Continuous
 62
     1
370
     0
100
AcDbLine
 10
25.74064880737565
 20
14.24974740938909
 30
0.0
 11
27.3252944765696
 21
14.24974740938909
 31
0.0
  0
LINE
  5
66
330
1F
100
AcDbEntity
  8
outside cuts
  6
Continuous
 62
     1
370
     0
100
AcDbLine
 10
27.3252944765696
 20
14.24974740938909
 30
0.0
 11
27.3252944765696
 21
12.87179465354739
 31
0.0
  0
SPLINE
  5
67
330
1F
100
AcDbEntity
  8
outside cuts
  6
Continuous
 62
     1
370
     0
100
AcDbSpline
210
0.0
220
0.0
230
1.0
 70
    12
 71
     2
 72
     6
 73
     3
 74
     0
 42
0.0000000001
 43
0.0000000001
 12
1.0
 22
0.0
 32
0.0
 13
1.0
 23
0.0
 33
0.0
 40
978.5788492721249
 40
978.5788492721249
 40
978.5788492721249
 40
979.8873226123449
 40
979.8873226123449
 40
979.8873226123449
 10
27.3252944765696
 20
12.87179465354739
 30
0.0
 41
1.0
 10
27.32529447660405
 20
12.67494425982862
 30
0.0
 41
0.7071067811869457
 10
27.12844408290907
 20
12.67494425984326
 30
0.0
 41
1.0
  0
SPLINE
  5
68
330
1F
100
AcDbEntity
  8
outside cuts
  6
Continuous
 62
     1
370
     0
100
AcDbSpline
210
0.0
220
0.0
230
1.0
 70
    12
 71
     2
 72
     6
 73
     3
 74
     0
 42
0.0000000001
 43
0.0000000001
 12
1.0
 22
0.0
 32
0.0
 13
1.0
 23
0.0
 33
0.0
 40
979.8873226123449
 40
979.8873226123449
 40
979.8873226123449
 40
981.1957959525654
 40
981.1957959525654
 40
981.1957959525654
 10
27.12844408290907
 20
12.67494425984326
 30
0.0
 41
1.0
 10
26.93159368926814
 20
12.674944259761
 30
0.0
 41
0.7071067811861494
 10
26.93159368916132
 20
12.47809386613912
 30
0.0
 41
1.0
  0
SPLINE
  5
69
330
1F
100
AcDbEntity
  8
outside cuts
  6
Continuous
 62
     1
370
     0
100
AcDbSpline
210
0.0
220
0.0
230
1.0
 70
    12
 71
     2
 72
     6
 73
     3
 74
     0
 42
0.0000000001
 43
0.0000000001
 12
1.0
 22
0.0
 32
0.0
 13
1.0
 23
0.0
 33
0.0
 40
981.1957959525654
 40
981.1957959525654
 40
981.1957959525654
 40
982.504269292785
 40
982.504269292785
 40
982.504269292785
 10
26.93159368916132
 20
12.47809386613912
 30
0.0
 41
1.0
 10
26.93159368917781
 20
12.28124347246303
 30
0.0
 41
0.7071067811865476
 10
27.12844408290907
 20
12.28124347243494
 30
0.0
 41
1.0
  0
LINE
  5
6A
330
1F
100
AcDbEntity
  8
outside cuts
  6
Continuous
 62
     1
370
     0
100
AcDbLine
 10
27.12844408290907
 20
12.28124347243494
 30
0.0
 11
27.3252944765696
 21
12.28124347243494
 31
0.0
  0
LINE
  5
6B
330
1F
100
AcDbEntity
  8
outside cuts
  6
Continuous
 62
     1
370
     0
100
AcDbLine
 10
27.3252944765696
 20
12.28124347243494
 30
0.0
 11
28.09301101200267
 21
12.28124347243494
 31
0.0
  0
LINE
  5
6C
330
1F
100
AcDbEntity
  8
outside cuts
  6
Continuous
 62
     1
370
     0
100
AcDbLine
 10
28.09301101200267
 20
12.28124347243494
 30
0.0
 11
28.28986140566314
 21
12.28124347243494
 31
0.0
  0
SPLINE
  5
6D
330
1F
100
AcDbEntity
  8
outside cuts
  6
Continuous
 62
     1
370
     0
100
AcDbSpline
210
0.0
220
0.0
230
1.0
 70
    12
 71
     2
 72
     6
 73
     3
 74
     0
 42
0.0000000001
 43
0.0000000001
 12
1.0
 22
0.0
 32
0.0
 13
1.0
 23
0.0
 33
0.0
 40
987.4189692927853
 40
987.4189692927853
 40
987.4189692927853
 40
988.7274426330048
 40
988.7274426330048
 40
988.7274426330048
 10
28.28986140566314
 20
12.28124347243494
 30
0.0
 41
1.0
 10
28.48671179937195
 20
12.28124347246303
 30
0.0
 41
0.7071067811865476
 10
28.48671179941094
 20
12.47809386613912
 30
0.0
 41
1.0
  0
SPLINE
  5
6E
330
1F
100
AcDbEntity
  8
outside cuts
  6
Continuous
 62
     1
370
     0
100
AcDbSpline
210
0.0
220
0.0
230
1.0
 70
    12
 71
     2
 72
     6
 73
     3
 74
     0
 42
0.0000000001
 43
0.0000000001
 12
1.0
 22
0.0
 32
0.0
 13
1.0
 23
0.0
 33
0.0
 40
988.7274426330048
 40
988.7274426330048
 40
988.7274426330048
 40
990.0359159732249
 40
990.0359159732249
 40
990.0359159732249
 10
28.48671179941094
 20
12.47809386613912
 30
0.0
 41
1.0
 10
28.48671179940872
 20
12.67494425983524
 30
0.0
 41
0.7071067811869336
 10
28.28986140566314
 20
12.67494425984326
 30
0.0
 41
1.0
  0
SPLINE
  5
6F
330
1F
100
AcDbEntity
  8
outside cuts
  6
Continuous
 62
     1
370
     0
100
AcDbSpline
210
0.0
220
0.0
230
1.0
 70
    12
 71
     2
 72
     6
 73
     3
 74
     0
 42
0.0000000001
 43
0.0000000001
 12
1.0
 22
0.0
 32
0.0
 13
1.0
 23
0.0
 33
0.0
 40
990.0359159732249
 40
990.0359159732249
 40
990.0359159732249
 40
991.3443893134445
 40
991.3443893134445
 40
991.3443893134445
 10
28.28986140566314
 20
12.67494425984326
 30
0.0
 41
1.0
 10
28.09301101197865
 20
12.67494425985638
 30
0.0
 41
0.7071067811865476
 10
28.09301101200267
 20
12.87179465354739
 30
0.0
 41
1.0
  0
LINE
  5
70
330
1F
100
AcDbEntity
  8
outside cuts
  6
Continuous
 62
     1
370
     0
100
AcDbLine
 10
28.09301101200267
 20
12.87179465354739
 30
0.0
 11
28.09301101200267
 21
14.24974740938909
 31
0.0
  0
LINE
  5
71
330
1F
100
AcDbEntity
  8
outside cuts
  6
Continuous
 62
     1
370
     0
100
AcDbLine
 10
28.09301101200267
 20
14.24974740938909
 30
0.0
 11
29.67765668128391
 21
14.24974740938909
 31
0.0
  0
LINE
  5
72
330
1F
100
AcDbEntity
  8
outside cuts
  6
Continuous
 62
     1
370
     0
100
AcDbLine
 10
29.67765668128391
 20
14.24974740938909
 30
0.0
 11
29.67765668128391
 21
13.48203087399974
 31
0.0
  0
LINE
  5
73
330
1F
100
AcDbEntity
  8
outside cuts
  6
Continuous
 62
     1
370
     0
100
AcDbLine
 10
29.67765668128391
 20
13.48203087399974
 30
0.0
 11
29.67765668128391
 21
13.28518048029555
 31
0.0
  0
SPLINE
  5
74
330
1F
100
AcDbEntity
  8
outside cuts
  6
Continuous
 62
     1
370
     0
100
AcDbSpline
210
0.0
220
0.0
230
1.0
 70
    12
 71
     2
 72
     6
 73
     3
 74
     0
 42
0.0000000001
 43
0.0000000001
 12
1.0
 22
0.0
 32
0.0
 13
1.0
 23
0.0
 33
0.0
 40
1007.962739313444
 40
1007.962739313444
 40
1007.962739313444
 40
1009.271212653664
 40
1009.271212653664
 40
1009.271212653664
 10
29.67765668128391
 20
13.28518048029555
 30
0.0
 41
1.0
 10
29.67765668119187
 20
13.08833008661676
 30
0.0
 41
0.7071067811869154
 10
29.87450707494436
 20
13.08833008659136
 30
0.0
 41
1.0
  0
SPLINE
  5
75
330
1F
100
AcDbEntity
  8
outside cuts
  6
Continuous
 62
     1
370
     0
100
AcDbSpline
210
0.0
220
0.0
230
1.0
 70
    12
 71
     2
 72
     6
 73
     3
 74
     0
 42
0.0000000001
 43
0.0000000001
 12
1.0
 22
0.0
 32
0.0
 13
1.0
 23
0.0
 33
0.0
 40
1009.271212653664
 40
1009.271212653664
 40
1009.271212653664
 40
1010.579685993885
 40
1010.579685993885
 40
1010.579685993885
 10
29.87450707494436
 20
13.08833008659136
 30
0.0
 41
1.0
 10
30.07135746860361
 20
13.08833008662859
 30
0.0
 41
0.7071067811865476
 10
30.07135746860489
 20
13.28518048029555
 30
0.0
 41
1.0
  0
SPLINE
  5
76
330
1F
100
AcDbEntity
  8
outside cuts
  6
Continuous
 62
     1
370
     0
100
AcDbSpline
210
0.0
220
0.0
230
1.0
 70
    12
 71
     2
 72
     6
 73
     3
 74
     0
 42
0.0000000001
 43
0.0000000001
 12
1.0
 22
0.0
 32
0.0
 13
1.0
 23
0.0
 33
0.0
 40
1010.579685993885
 40
1010.579685993885
 40
1010.579685993885
 40
1011.888159334105
 40
1011.888159334105
 40
1011.888159334105
 10
30.07135746860489
 20
13.28518048029555
 30
0.0
 41
1.0
 10
30.07135746863952
 20
13.48203087400036
 30
0.0
 41
0.7071067811869336
 10
30.2682078623527
 20
13.48203087399974
 30
0.0
 41
1.0
  0
LINE
  5
77
330
1F
100
AcDbEntity
  8
outside cuts
  6
Continuous
 62
     1
370
     0
100
AcDbLine
 10
30.2682078623527
 20
13.48203087399974
 30
0.0
 11
39.3134834526587
 21
13.48203087399974
 31
0.0
  0
SPLINE
  5
78
330
1F
100
AcDbEntity
  8
outside cuts
  6
Continuous
 62
     1
370
     0
100
AcDbSpline
210
0.0
220
0.0
230
1.0
 70
    12
 71
     2
 72
     6
 73
     3
 74
     0
 42
0.0000000001
 43
0.0000000001
 12
1.0
 22
0.0
 32
0.0
 13
1.0
 23
0.0
 33
0.0
 40
1050.164509334105
 40
1050.164509334105
 40
1050.164509334105
 40
1051.472982674325
 40
1051.472982674325
 40
1051.472982674325
 10
39.3134834526587
 20
13.48203087399974
 30
0.0
 41
1.0
 10
39.5103338463215
 20
13.48203087402179
 30
0.0
 41
0.7071067811865476
 10
39.5103338463192
 20
13.28518048029555
 30
0.0
 41
1.0
  0
SPLINE
  5
79
330
1F
100
AcDbEntity
  8
outside cuts
  6
Continuous
 62
     1
370
     0
100
AcDbSpline
210
0.0
220
0.0
230
1.0
 70
    12
 71
     2
 72
     6
 73
     3
 74
     0
 42
0.0000000001
 43
0.0000000001
 12
1.0
 22
0.0
 32
0.0
 13
1.0
 23
0.0
 33
0.0
 40
1051.472982674325
 40
1051.472982674325
 40
1051.472982674325
 40
1052.781456014546
 40
1052.781456014546
 40
1052.781456014546
 10
39.5103338463192
 20
13.28518048029555
 30
0.0
 41
1.0
 10
39.5103338463215
 20
13.08833008662859
 30
0.0
 41
0.7071067811865476
 10
39.70718424006699
 20
13.08833008659136
 30
0.0
 41
1.0
  0
LINE
  5
7A
330
1F
100
AcDbEntity
  8
outside cuts
  6
Continuous
 62
     1
370
     0
100
AcDbLine
 10
28.28986140566314
 20
54.98702499601454
 30
0.0
 11
28.09301101191534
 21
54.98702499601454
 31
0.0
  0
LINE
  5
7B
330
1F
100
AcDbEntity
  8
outside cuts
  6
Continuous
 62
     1
370
     0
100
AcDbLine
 10
28.09301101191534
 20
54.98702499601454
 30
0.0
 11
27.32529447648229
 21
54.98702499601454
 31
0.0
  0
LINE
  5
7C
330
1F
100
AcDbEntity
  8
outside cuts
  6
Continuous
 62
     1
370
     0
100
AcDbLine
 10
27.32529447648229
 20
54.98702499601454
 30
0.0
 11
27.12844408282179
 21
54.98702499601454
 31
0.0
  0
SPLINE
  5
7D
330
1F
100
AcDbEntity
  8
outside cuts
  6
Continuous
 62
     1
370
     0
100
AcDbSpline
210
0.0
220
0.0
230
1.0
 70
    12
 71
     2
 72
     6
 73
     3
 74
     0
 42
0.0000000001
 43
0.0000000001
 12
1.0
 22
0.0
 32
0.0
 13
1.0
 23
0.0
 33
0.0
 40
531.1266646773773
 40
531.1266646773773
 40
531.1266646773773
 40
532.435138017597
 40
532.435138017597
 40
532.435138017597
 10
27.12844408282179
 20
54.98702499601454
 30
0.0
 41
1.0
 10
26.9315936891217
 20
54.98702499600176
 30
0.0
 41
0.7071067811865476
 10
26.93159368916132
 20
54.79017460231036
 30
0.0
 41
1.0
  0
SPLINE
  5
7E
330
1F
100
AcDbEntity
  8
outside cuts
  6
Continuous
 62
     1
370
     0
100
AcDbSpline
210
0.0
220
0.0
230
1.0
 70
    12
 71
     2
 72
     6
 73
     3
 74
     0
 42
0.0000000001
 43
0.0000000001
 12
1.0
 22
0.0
 32
0.0
 13
1.0
 23
0.0
 33
0.0
 40
532.435138017597
 40
532.435138017597
 40
532.435138017597
 40
533.7436113578166
 40
533.7436113578166
 40
533.7436113578166
 10
26.93159368916132
 20
54.79017460231036
 30
0.0
 41
1.0
 10
26.9315936891217
 20
54.5933242086084
 30
0.0
 41
0.7071067811865476
 10
27.12844408282179
 20
54.59332420860612
 30
0.0
 41
1.0
  0
SPLINE
  5
7F
330
1F
100
AcDbEntity
  8
outside cuts
  6
Continuous
 62
     1
370
     0
100
AcDbSpline
210
0.0
220
0.0
230
1.0
 70
    12
 71
     2
 72
     6
 73
     3
 74
     0
 42
0.0000000001
 43
0.0000000001
 12
1.0
 22
0.0
 32
0.0
 13
1.0
 23
0.0
 33
0.0
 40
533.7436113578166
 40
533.7436113578166
 40
533.7436113578166
 40
535.0520846980367
 40
535.0520846980367
 40
535.0520846980367
 10
27.12844408282179
 20
54.59332420860612
 30
0.0
 41
1.0
 10
27.32529447655408
 20
54.59332420862595
 30
0.0
 41
0.7071067811869336
 10
27.32529447648229
 20
54.39647381490208
 30
0.0
 41
1.0
  0
LINE
  5
80
330
1F
100
AcDbEntity
  8
outside cuts
  6
Continuous
 62
     1
370
     0
100
AcDbLine
 10
27.32529447648229
 20
54.39647381490208
 30
0.0
 11
27.32529447648229
 21
53.01852105906046
 31
0.0
  0
LINE
  5
81
330
1F
100
AcDbEntity
  8
outside cuts
  6
Continuous
 62
     1
370
     0
100
AcDbLine
 10
27.32529447648229
 20
53.01852105906046
 30
0.0
 11
10.71417796679694
 21
53.01852105906046
 31
0.0
  0
SPLINE
  5
82
330
1F
100
AcDbEntity
  8
outside cuts
  6
Continuous
 62
     1
370
     0
100
AcDbSpline
210
0.0
220
0.0
230
1.0
 70
    12
 71
     2
 72
     6
 73
     3
 74
     0
 42
0.0000000001
 43
0.0000000001
 12
1.0
 22
0.0
 32
0.0
 13
1.0
 23
0.0
 33
0.0
 40
611.1753497673394
 40
611.1753497673394
 40
611.1753497673394
 40
633.2634720440482
 40
633.2634720440482
 40
633.2634720440482
 10
10.71417796679694
 20
53.01852105906046
 30
0.0
 41
1.0
 10
7.640255106950973
 20
53.01852105907306
 30
0.0
 41
0.788205438016101
 10
6.894719304923672
 20
50.03637785059858
 30
0.0
 41
1.0
  0
LINE
  5
83
330
1F
100
AcDbEntity
  8
outside cuts
  6
Continuous
 62
     1
370
     0
100
AcDbLine
 10
6.894719304923672
 20
50.03637785059858
 30
0.0
 11
5.671751170074092
 21
45.14450531124379
 31
0.0
  0
LINE
  5
84
330
1F
100
AcDbEntity
  8
outside cuts
  6
Continuous
 62
     1
370
     0
100
AcDbLine
 10
5.671751170074092
 20
45.14450531124379
 30
0.0
 11
3.703247233119928
 21
45.14450531124379
 31
0.0
  0
LINE
  5
85
330
1F
100
AcDbEntity
  8
outside cuts
  6
Continuous
 62
     1
370
     0
100
AcDbLine
 10
3.703247233119928
 20
45.14450531124379
 30
0.0
 11
3.703247233119928
 21
56.95552893296865
 31
0.0
  0
LINE
  5
86
330
1F
100
AcDbEntity
  8
outside cuts
  6
Continuous
 62
     1
370
     0
100
AcDbLine
 10
3.703247233119928
 20
56.95552893296865
 30
0.0
 11
7.640255107028228
 21
56.95552893296865
 31
0.0
  0
LINE
  5
87
330
1F
100
AcDbEntity
  8
outside cuts
  6
Continuous
 62
     1
370
     0
100
AcDbLine
 10
7.640255107028228
 20
56.95552893296865
 30
0.0
 11
7.640255107028228
 21
56.18781239753558
 31
0.0
  0
LINE
  5
88
330
1F
100
AcDbEntity
  8
outside cuts
  6
Continuous
 62
     1
370
     0
100
AcDbLine
 10
7.640255107028228
 20
56.18781239753558
 30
0.0
 11
7.640255107028228
 21
55.99096200383134
 31
0.0
  0
SPLINE
  5
89
330
1F
100
AcDbEntity
  8
outside cuts
  6
Continuous
 62
     1
370
     0
100
AcDbSpline
210
0.0
220
0.0
230
1.0
 70
    12
 71
     2
 72
     6
 73
     3
 74
     0
 42
0.0000000001
 43
0.0000000001
 12
1.0
 22
0.0
 32
0.0
 13
1.0
 23
0.0
 33
0.0
 40
733.6529069747452
 40
733.6529069747452
 40
733.6529069747452
 40
734.9613803149648
 40
734.9613803149648
 40
734.9613803149648
 10
7.640255107028228
 20
55.99096200383134
 30
0.0
 41
1.0
 10
7.640255106979527
 20
55.79411161017464
 30
0.0
 41
0.7071067811865355
 10
7.837105500688711
 20
55.79411161017097
 30
0.0
 41
1.0
  0
SPLINE
  5
8A
330
1F
100
AcDbEntity
  8
outside cuts
  6
Continuous
 62
     1
370
     0
100
AcDbSpline
210
0.0
220
0.0
230
1.0
 70
    12
 71
     2
 72
     6
 73
     3
 74
     0
 42
0.0000000001
 43
0.0000000001
 12
1.0
 22
0.0
 32
0.0
 13
1.0
 23
0.0
 33
0.0
 40
734.9613803149648
 40
734.9613803149648
 40
734.9613803149648
 40
736.2698536551861
 40
736.2698536551861
 40
736.2698536551861
 10
7.837105500688711
 20
55.79411161017097
 30
0.0
 41
1.0
 10
8.033955894339313
 20
55.79411161014892
 30
0.0
 41
0.7071067811857514
 10
8.033955894349237
 20
55.99096200383134
 30
0.0
 41
1.0
  0
SPLINE
  5
8B
330
1F
100
AcDbEntity
  8
outside cuts
  6
Continuous
 62
     1
370
     0
100
AcDbSpline
210
0.0
220
0.0
230
1.0
 70
    12
 71
     2
 72
     6
 73
     3
 74
     0
 42
0.0000000001
 43
0.0000000001
 12
1.0
 22
0.0
 32
0.0
 13
1.0
 23
0.0
 33
0.0
 40
736.2698536551861
 40
736.2698536551861
 40
736.2698536551861
 40
737.5783269954062
 40
737.5783269954062
 40
737.5783269954062
 10
8.033955894349237
 20
55.99096200383134
 30
0.0
 41
1.0
 10
8.033955894356449
 20
56.18781239757705
 30
0.0
 41
0.7071067811869336
 10
8.230806288096975
 20
56.18781239753558
 30
0.0
 41
1.0
  0
LINE
  5
8C
330
1F
100
AcDbEntity
  8
outside cuts
  6
Continuous
 62
     1
370
     0
100
AcDbLine
 10
8.230806288096975
 20
56.18781239753558
 30
0.0
 11
25.15009762621957
 21
56.18781239753558
 31
0.0
  0
SPLINE
  5
8D
330
1F
100
AcDbEntity
  8
outside cuts
  6
Continuous
 62
     1
370
     0
100
AcDbSpline
210
0.0
220
0.0
230
1.0
 70
    12
 71
     2
 72
     6
 73
     3
 74
     0
 42
0.0000000001
 43
0.0000000001
 12
1.0
 22
0.0
 32
0.0
 13
1.0
 23
0.0
 33
0.0
 40
809.174676995406
 40
809.174676995406
 40
809.174676995406
 40
810.4831503356256
 40
810.4831503356256
 40
810.4831503356256
 10
25.15009762621957
 20
56.18781239753558
 30
0.0
 41
1.0
 10
25.34694801989003
 20
56.18781239756039
 30
0.0
 41
0.7071067811865476
 10
25.34694801988003
 20
55.99096200383134
 30
0.0
 41
1.0
  0
SPLINE
  5
8E
330
1F
100
AcDbEntity
  8
outside cuts
  6
Continuous
 62
     1
370
     0
100
AcDbSpline
210
0.0
220
0.0
230
1.0
 70
    12
 71
     2
 72
     6
 73
     3
 74
     0
 42
0.0000000001
 43
0.0000000001
 12
1.0
 22
0.0
 32
0.0
 13
1.0
 23
0.0
 33
0.0
 40
810.4831503356256
 40
810.4831503356256
 40
810.4831503356256
 40
811.7916236758457
 40
811.7916236758457
 40
811.7916236758457
 10
25.34694801988003
 20
55.99096200383134
 30
0.0
 41
1.0
 10
25.34694801986405
 20
55.79411161017661
 30
0.0
 41
0.7071067811869457
 10
25.54379841354052
 20
55.79411161017097
 30
0.0
 41
1.0
  0
SPLINE
  5
8F
330
1F
100
AcDbEntity
  8
outside cuts
  6
Continuous
 62
     1
370
     0
100
AcDbSpline
210
0.0
220
0.0
230
1.0
 70
    12
 71
     2
 72
     6
 73
     3
 74
     0
 42
0.0000000001
 43
0.0000000001
 12
1.0
 22
0.0
 32
0.0
 13
1.0
 23
0.0
 33
0.0
 40
811.7916236758457
 40
811.7916236758457
 40
811.7916236758457
 40
813.1000970160653
 40
813.1000970160653
 40
813.1000970160653
 10
25.54379841354052
 20
55.79411161017097
 30
0.0
 41
1.0
 10
25.74064880728337
 20
55.79411161016719
 30
0.0
 41
0.7071067811865476
 10
25.74064880728833
 20
55.99096200383134
 30
0.0
 41
1.0
  0
LINE
  5
90
330
1F
100
AcDbEntity
  8
outside cuts
  6
Continuous
 62
     1
370
     0
100
AcDbLine
 10
25.74064880728833
 20
55.99096200383134
 30
0.0
 11
25.74064880728833
 21
56.18781239753558
 31
0.0
  0
LINE
  5
91
330
1F
100
AcDbEntity
  8
outside cuts
  6
Continuous
 62
     1
370
     0
100
AcDbLine
 10
25.74064880728833
 20
56.18781239753558
 30
0.0
 11
25.74064880728833
 21
56.95552893296865
 31
0.0
  0
LINE
  5
92
330
1F
100
AcDbEntity
  8
outside cuts
  6
Continuous
 62
     1
370
     0
100
AcDbLine
 10
25.74064880728833
 20
56.95552893296865
 30
0.0
 11
29.67765668119663
 21
56.95552893296865
 31
0.0
  0
LINE
  5
93
330
1F
100
AcDbEntity
  8
outside cuts
  6
Continuous
 62
     1
370
     0
100
AcDbLine
 10
29.67765668119663
 20
56.95552893296865
 30
0.0
 11
29.67765668119663
 21
56.18781239753558
 31
0.0
  0
LINE
  5
94
330
1F
100
AcDbEntity
  8
outside cuts
  6
Continuous
 62
     1
370
     0
100
AcDbLine
 10
29.67765668119663
 20
56.18781239753558
 30
0.0
 11
29.67765668119663
 21
55.99096200383134
 31
0.0
  0
SPLINE
  5
95
330
1F
100
AcDbEntity
  8
outside cuts
  6
Continuous
 62
     1
370
     0
100
AcDbSpline
210
0.0
220
0.0
230
1.0
 70
    12
 71
     2
 72
     6
 73
     3
 74
     0
 42
0.0000000001
 43
0.0000000001
 12
1.0
 22
0.0
 32
0.0
 13
1.0
 23
0.0
 33
0.0
 40
837.9234970160646
 40
837.9234970160646
 40
837.9234970160646
 40
839.2319703562847
 40
839.2319703562847
 40
839.2319703562847
 10
29.67765668119663
 20
55.99096200383134
 30
0.0
 41
1.0
 10
29.67765668119198
 20
55.79411161018406
 30
0.0
 41
0.7071067811869336
 10
29.8745070748571
 20
55.79411161017097
 30
0.0
 41
1.0
  0
SPLINE
  5
96
330
1F
100
AcDbEntity
  8
outside cuts
  6
Continuous
 62
     1
370
     0
100
AcDbSpline
210
0.0
220
0.0
230
1.0
 70
    12
 71
     2
 72
     6
 73
     3
 74
     0
 42
0.0000000001
 43
0.0000000001
 12
1.0
 22
0.0
 32
0.0
 13
1.0
 23
0.0
 33
0.0
 40
839.2319703562847
 40
839.2319703562847
 40
839.2319703562847
 40
840.5404436965061
 40
840.5404436965061
 40
840.5404436965061
 10
29.8745070748571
 20
55.79411161017097
 30
0.0
 41
1.0
 10
30.07135746860256
 20
55.79411161014537
 30
0.0
 41
0.7071067811857574
 10
30.07135746860489
 20
55.99096200383134
 30
0.0
 41
1.0
  0
SPLINE
  5
97
330
1F
100
AcDbEntity
  8
outside cuts
  6
Continuous
 62
     1
370
     0
100
AcDbSpline
210
0.0
220
0.0
230
1.0
 70
    12
 71
     2
 72
     6
 73
     3
 74
     0
 42
0.0000000001
 43
0.0000000001
 12
1.0
 22
0.0
 32
0.0
 13
1.0
 23
0.0
 33
0.0
 40
840.5404436965061
 40
840.5404436965061
 40
840.5404436965061
 40
841.8489170367257
 40
841.8489170367257
 40
841.8489170367257
 10
30.07135746860489
 20
55.99096200383134
 30
0.0
 41
1.0
 10
30.0713574685475
 20
56.18781239756039
 30
0.0
 41
0.7071067811865476
 10
30.26820786226537
 20
56.18781239753558
 30
0.0
 41
1.0
  0
LINE
  5
98
330
1F
100
AcDbEntity
  8
outside cuts
  6
Continuous
 62
     1
370
     0
100
AcDbLine
 10
30.26820786226537
 20
56.18781239753558
 30
0.0
 11
39.31348345257139
 21
56.18781239753558
 31
0.0
  0
SPLINE
  5
99
330
1F
100
AcDbEntity
  8
outside cuts
  6
Continuous
 62
     1
370
     0
100
AcDbSpline
210
0.0
220
0.0
230
1.0
 70
    12
 71
     2
 72
     6
 73
     3
 74
     0
 42
0.0000000001
 43
0.0000000001
 12
1.0
 22
0.0
 32
0.0
 13
1.0
 23
0.0
 33
0.0
 40
880.1252670367257
 40
880.1252670367257
 40
880.1252670367257
 40
881.4337403769467
 40
881.4337403769467
 40
881.4337403769467
 10
39.31348345257139
 20
56.18781239753558
 30
0.0
 41
1.0
 10
39.51033384626547
 20
56.18781239756039
 30
0.0
 41
0.7071067811865476
 10
39.51033384623187
 20
55.99096200383134
 30
0.0
 41
1.0
  0
SPLINE
  5
9A
330
1F
100
AcDbEntity
  8
outside cuts
  6
Continuous
 62
     1
370
     0
100
AcDbSpline
210
0.0
220
0.0
230
1.0
 70
    12
 71
     2
 72
     6
 73
     3
 74
     0
 42
0.0000000001
 43
0.0000000001
 12
1.0
 22
0.0
 32
0.0
 13
1.0
 23
0.0
 33
0.0
 40
881.4337403769467
 40
881.4337403769467
 40
881.4337403769467
 40
882.7422137171664
 40
882.7422137171664
 40
882.7422137171664
 10
39.51033384623187
 20
55.99096200383134
 30
0.0
 41
1.0
 10
39.51033384626547
 20
55.79411161016719
 30
0.0
 41
0.7071067811865476
 10
39.70718423997967
 20
55.79411161017097
 30
0.0
 41
1.0
  0
SPLINE
  5
9B
330
1F
100
AcDbEntity
  8
outside cuts
  6
Continuous
 62
     1
370
     0
100
AcDbSpline
210
0.0
220
0.0
230
1.0
 70
    12
 71
     2
 72
     6
 73
     3
 74
     0
 42
0.0000000001
 43
0.0000000001
 12
1.0
 22
0.0
 32
0.0
 13
1.0
 23
0.0
 33
0.0
 40
882.7422137171664
 40
882.7422137171664
 40
882.7422137171664
 40
884.0506870573864
 40
884.0506870573864
 40
884.0506870573864
 10
39.70718423997967
 20
55.79411161017097
 30
0.0
 41
1.0
 10
39.90403463362328
 20
55.79411161017499
 30
0.0
 41
0.7071067811869486
 10
39.90403463364017
 20
55.99096200383134
 30
0.0
 41
1.0
  0
LINE
  5
9C
330
1F
100
AcDbEntity
  8
outside cuts
  6
Continuous
 62
     1
370
     0
100
AcDbLine
 10
39.90403463364017
 20
55.99096200383134
 30
0.0
 11
39.90403463364017
 21
56.18781239753558
 31
0.0
  0
LINE
  5
9D
330
1F
100
AcDbEntity
  8
outside cuts
  6
Continuous
 62
     1
370
     0
100
AcDbLine
 10
39.90403463364017
 20
56.18781239753558
 30
0.0
 11
39.90403463364017
 21
56.95552893296865
 31
0.0
  0
LINE
  5
9E
330
1F
100
AcDbEntity
  8
outside cuts
  6
Continuous
 62
     1
370
     0
100
AcDbLine
 10
39.90403463364017
 20
56.95552893296865
 30
0.0
 11
43.84104250754845
 21
56.95552893296865
 31
0.0
  0
LINE
  5
9F
330
1F
100
AcDbEntity
  8
outside cuts
  6
Continuous
 62
     1
370
     0
100
AcDbLine
 10
43.84104250754845
 20
56.95552893296865
 30
0.0
 11
43.84104250754845
 21
45.14450531124379
 31
0.0
  0
LINE
  5
A0
330
1F
100
AcDbEntity
  8
outside cuts
  6
Continuous
 62
     1
370
     0
100
AcDbLine
 10
43.84104250754845
 20
45.14450531124379
 30
0.0
 11
41.87253857059427
 21
45.14450531124379
 31
0.0
  0
LINE
  5
A1
330
1F
100
AcDbEntity
  8
outside cuts
  6
Continuous
 62
     1
370
     0
100
AcDbLine
 10
41.87253857059427
 20
45.14450531124379
 30
0.0
 11
40.64957043574471
 21
50.03637785059858
 31
0.0
  0
SPLINE
  5
A2
330
1F
100
AcDbEntity
  8
outside cuts
  6
Continuous
 62
     1
370
     0
100
AcDbSpline
210
0.0
220
0.0
230
1.0
 70
    12
 71
     2
 72
     6
 73
     3
 74
     0
 42
0.0000000001
 43
0.0000000001
 12
1.0
 22
0.0
 32
0.0
 13
1.0
 23
0.0
 33
0.0
 40
984.4401219880831
 40
984.4401219880831
 40
984.4401219880831
 40
1006.528244264792
 40
1006.528244264792
 40
1006.528244264792
 10
40.64957043574471
 20
50.03637785064224
 30
0.0
 41
1.0
 10
39.9040346336657
 20
53.01852105905876
 30
0.0
 41
0.7882054380161281
 10
36.83011177387144
 20
53.01852105906046
 30
0.0
 41
1.0
  0
LINE
  5
A3
330
1F
100
AcDbEntity
  8
outside cuts
  6
Continuous
 62
     1
370
     0
100
AcDbLine
 10
36.83011177387144
 20
53.01852105906046
 30
0.0
 11
28.09301101191534
 21
53.01852105906046
 31
0.0
  0
LINE
  5
A4
330
1F
100
AcDbEntity
  8
outside cuts
  6
Continuous
 62
     1
370
     0
100
AcDbLine
 10
28.09301101191534
 20
53.01852105906046
 30
0.0
 11
28.09301101191534
 21
54.39647381490208
 31
0.0
  0
SPLINE
  5
A5
330
1F
100
AcDbEntity
  8
outside cuts
  6
Continuous
 62
     1
370
     0
100
AcDbSpline
210
0.0
220
0.0
230
1.0
 70
    12
 71
     2
 72
     6
 73
     3
 74
     0
 42
0.0000000001
 43
0.0000000001
 12
1.0
 22
0.0
 32
0.0
 13
1.0
 23
0.0
 33
0.0
 40
1049.331509334095
 40
1049.331509334095
 40
1049.331509334095
 40
1050.639982674316
 40
1050.639982674316
 40
1050.639982674316
 10
28.09301101191534
 20
54.39647381490208
 30
0.0
 41
1.0
 10
28.09301101192255
 20
54.5933242086084
 30
0.0
 41
0.7071067811865476
 10
28.28986140566314
 20
54.59332420860612
 30
0.0
 41
1.0
  0
SPLINE
  5
A6
330
1F
100
AcDbEntity
  8
outside cuts
  6
Continuous
 62
     1
370
     0
100
AcDbSpline
210
0.0
220
0.0
230
1.0
 70
    12
 71
     2
 72
     6
 73
     3
 74
     0
 42
0.0000000001
 43
0.0000000001
 12
1.0
 22
0.0
 32
0.0
 13
1.0
 23
0.0
 33
0.0
 40
1050.639982674316
 40
1050.639982674316
 40
1050.639982674316
 40
1051.948456014535
 40
1051.948456014535
 40
1051.948456014535
 10
28.28986140566314
 20
54.59332420860612
 30
0.0
 41
1.0
 10
28.48671179931589
 20
54.5933242086084
 30
0.0
 41
0.7071067811865476
 10
28.48671179932366
 20
54.79017460231036
 30
0.0
 41
1.0
  0
SPLINE
  5
A7
330
1F
100
AcDbEntity
  8
outside cuts
  6
Continuous
 62
     1
370
     0
100
AcDbSpline
210
0.0
220
0.0
230
1.0
 70
    12
 71
     2
 72
     6
 73
     3
 74
     0
 42
0.0000000001
 43
0.0000000001
 12
1.0
 22
0.0
 32
0.0
 13
1.0
 23
0.0
 33
0.0
 40
1051.948456014535
 40
1051.948456014535
 40
1051.948456014535
 40
1053.256929354755
 40
1053.256929354755
 40
1053.256929354755
 10
28.48671179932366
 20
54.79017460231036
 30
0.0
 41
1.0
 10
28.48671179931589
 20
54.98702499600176
 30
0.0
 41
0.7071067811865476
 10
28.28986140566314
 20
54.98702499601454
 30
0.0
 41
1.0
  0
SPLINE
  5
A9
330
1F
100
AcDbEntity
  8
inside cuts
  6
Continuous
 62
     4
370
     0
100
AcDbSpline
210
0.0
220
0.0
230
1.0
 70
    12
 71
     2
 72
     6
 73
     3
 74
     0
 42
0.0000000001
 43
0.0000000001
 12
1.0
 22
0.0
 32
0.0
 13
1.0
 23
0.0
 33
0.0
 40
83.40688682505439
 40
83.40688682505439
 40
83.40688682505439
 40
84.71536016527503
 40
84.71536016527503
 40
84.71536016527503
 10
22.24796785182348
 20
36.8202976084449
 30
0.0
 41
1.0
 10
22.38716210010895
 20
36.95949185671608
 30
0.0
 41
0.7071067811860017
 10
22.52635634839139
 20
36.8202976084449
 30
0.0
 41
1.0
  0
LINE
  5
AA
330
1F
100
AcDbEntity
  8
inside cuts
  6
Continuous
 62
     4
370
     0
100
AcDbLine
 10
22.52635634839139
 20
36.8202976084449
 30
0.0
 11
23.22928730207477
 21
36.11736665476165
 31
0.0
  0
LINE
  5
AB
330
1F
100
AcDbEntity
  8
inside cuts
  6
Continuous
 62
     4
370
     0
100
AcDbLine
 10
23.22928730207477
 20
36.11736665476165
 30
0.0
 11
22.52635634839139
 21
35.41443570103456
 31
0.0
  0
SPLINE
  5
AC
330
1F
100
AcDbEntity
  8
inside cuts
  6
Continuous
 62
     4
370
     0
100
AcDbSpline
210
0.0
220
0.0
230
1.0
 70
    12
 71
     2
 72
     6
 73
     3
 74
     0
 42
0.0000000001
 43
0.0000000001
 12
1.0
 22
0.0
 32
0.0
 13
1.0
 23
0.0
 33
0.0
 40
93.12866016527462
 40
93.12866016527462
 40
93.12866016527462
 40
94.43713350549471
 40
94.43713350549471
 40
94.43713350549471
 10
22.52635634839139
 20
35.41443570103456
 30
0.0
 41
1.0
 10
22.38716210007388
 20
35.27524145278986
 30
0.0
 41
0.7071067811870935
 10
22.24796785182348
 20
35.41443570103456
 30
0.0
 41
1.0
  0
SPLINE
  5
AD
330
1F
100
AcDbEntity
  8
inside cuts
  6
Continuous
 62
     4
370
     0
100
AcDbSpline
210
0.0
220
0.0
230
1.0
 70
    12
 71
     2
 72
     6
 73
     3
 74
     0
 42
0.0000000001
 43
0.0000000001
 12
1.0
 22
0.0
 32
0.0
 13
1.0
 23
0.0
 33
0.0
 40
94.43713350549471
 40
94.43713350549471
 40
94.43713350549471
 40
95.74560684571406
 40
95.74560684571406
 40
95.74560684571406
 10
22.24796785182348
 20
35.41443570103456
 30
0.0
 41
1.0
 10
22.10877360361833
 20
35.55362994932597
 30
0.0
 41
0.7071067811865476
 10
21.96957935534286
 20
35.41443570103456
 30
0.0
 41
1.0
  0
SPLINE
  5
AE
330
1F
100
AcDbEntity
  8
inside cuts
  6
Continuous
 62
     4
370
     0
100
AcDbSpline
210
0.0
220
0.0
230
1.0
 70
    12
 71
     2
 72
     6
 73
     3
 74
     0
 42
0.0000000001
 43
0.0000000001
 12
1.0
 22
0.0
 32
0.0
 13
1.0
 23
0.0
 33
0.0
 40
95.74560684571406
 40
95.74560684571406
 40
95.74560684571406
 40
97.05408018593444
 40
97.05408018593444
 40
97.05408018593444
 10
21.96957935534286
 20
35.41443570103456
 30
0.0
 41
1.0
 10
21.83038510706444
 20
35.2752414527624
 30
0.0
 41
0.7071067811865988
 10
21.96957935534286
 20
35.13604720451035
 30
0.0
 41
1.0
  0
LINE
  5
AF
330
1F
100
AcDbEntity
  8
inside cuts
  6
Continuous
 62
     4
370
     0
100
AcDbLine
 10
21.96957935534286
 20
35.13604720451035
 30
0.0
 11
22.10877360358321
 21
34.99685295622639
 31
0.0
  0
LINE
  5
B0
330
1F
100
AcDbEntity
  8
inside cuts
  6
Continuous
 62
     4
370
     0
100
AcDbLine
 10
22.10877360358321
 20
34.99685295622639
 30
0.0
 11
22.65163117184258
 21
34.4539953880106
 31
0.0
  0
LINE
  5
B1
330
1F
100
AcDbEntity
  8
inside cuts
  6
Continuous
 62
     4
370
     0
100
AcDbLine
 10
22.65163117184258
 20
34.4539953880106
 30
0.0
 11
22.79082542008291
 21
34.3148011397703
 31
0.0
  0
SPLINE
  5
B2
330
1F
100
AcDbEntity
  8
inside cuts
  6
Continuous
 62
     4
370
     0
100
AcDbSpline
210
0.0
220
0.0
230
1.0
 70
    12
 71
     2
 72
     6
 73
     3
 74
     0
 42
0.0000000001
 43
0.0000000001
 12
1.0
 22
0.0
 32
0.0
 13
1.0
 23
0.0
 33
0.0
 40
101.9687801859338
 40
101.9687801859338
 40
101.9687801859338
 40
103.2772535261545
 40
103.2772535261545
 40
103.2772535261545
 10
22.79082542008291
 20
34.3148011397703
 30
0.0
 41
1.0
 10
22.93001966834313
 20
34.17560689148851
 30
0.0
 41
0.7071067811860017
 10
23.06921391656354
 20
34.3148011397703
 30
0.0
 41
1.0
  0
SPLINE
  5
B3
330
1F
100
AcDbEntity
  8
inside cuts
  6
Continuous
 62
     4
370
     0
100
AcDbSpline
210
0.0
220
0.0
230
1.0
 70
    12
 71
     2
 72
     6
 73
     3
 74
     0
 42
0.0000000001
 43
0.0000000001
 12
1.0
 22
0.0
 32
0.0
 13
1.0
 23
0.0
 33
0.0
 40
103.2772535261545
 40
103.2772535261545
 40
103.2772535261545
 40
104.5857268663738
 40
104.5857268663738
 40
104.5857268663738
 10
23.06921391656354
 20
34.3148011397703
 30
0.0
 41
1.0
 10
23.20840816489637
 20
34.45399538804578
 30
0.0
 41
0.7071067811866159
 10
23.06921391656354
 20
34.59318963629462
 30
0.0
 41
1.0
  0
SPLINE
  5
B4
330
1F
100
AcDbEntity
  8
inside cuts
  6
Continuous
 62
     4
370
     0
100
AcDbSpline
210
0.0
220
0.0
230
1.0
 70
    12
 71
     2
 72
     6
 73
     3
 74
     0
 42
0.0000000001
 43
0.0000000001
 12
1.0
 22
0.0
 32
0.0
 13
1.0
 23
0.0
 33
0.0
 40
104.5857268663738
 40
104.5857268663738
 40
104.5857268663738
 40
105.8942002065935
 40
105.8942002065935
 40
105.8942002065935
 10
23.06921391656354
 20
34.59318963629462
 30
0.0
 41
1.0
 10
22.93001966828782
 20
34.73238388456813
 30
0.0
 41
0.7071067811859846
 10
23.06921391656354
 20
34.87157813281884
 30
0.0
 41
1.0
  0
LINE
  5
B5
330
1F
100
AcDbEntity
  8
inside cuts
  6
Continuous
 62
     4
370
     0
100
AcDbLine
 10
23.06921391656354
 20
34.87157813281884
 30
0.0
 11
23.77214487033419
 21
35.57450908654586
 31
0.0
  0
LINE
  5
B6
330
1F
100
AcDbEntity
  8
inside cuts
  6
Continuous
 62
     4
370
     0
100
AcDbLine
 10
23.77214487033419
 20
35.57450908654586
 30
0.0
 11
24.47507582401757
 21
34.87157813281884
 31
0.0
  0
SPLINE
  5
B7
330
1F
100
AcDbEntity
  8
inside cuts
  6
Continuous
 62
     4
370
     0
100
AcDbSpline
210
0.0
220
0.0
230
1.0
 70
    12
 71
     2
 72
     6
 73
     3
 74
     0
 42
0.0000000001
 43
0.0000000001
 12
1.0
 22
0.0
 32
0.0
 13
1.0
 23
0.0
 33
0.0
 40
114.3075002065937
 40
114.3075002065937
 40
114.3075002065937
 40
115.6159735468131
 40
115.6159735468131
 40
115.6159735468131
 10
24.47507582401757
 20
34.87157813281884
 30
0.0
 41
1.0
 10
24.61427007228652
 20
34.73238388458548
 30
0.0
 41
0.7071067811866072
 10
24.47507582401757
 20
34.59318963629462
 30
0.0
 41
1.0
  0
SPLINE
  5
B8
330
1F
100
AcDbEntity
  8
inside cuts
  6
Continuous
 62
     4
370
     0
100
AcDbSpline
210
0.0
220
0.0
230
1.0
 70
    12
 71
     2
 72
     6
 73
     3
 74
     0
 42
0.0000000001
 43
0.0000000001
 12
1.0
 22
0.0
 32
0.0
 13
1.0
 23
0.0
 33
0.0
 40
115.6159735468131
 40
115.6159735468131
 40
115.6159735468131
 40
116.9244468870334
 40
116.9244468870334
 40
116.9244468870334
 10
24.47507582401757
 20
34.59318963629462
 30
0.0
 41
1.0
 10
24.33588157577395
 20
34.45399538802251
 30
0.0
 41
0.7071067811865476
 10
24.47507582401757
 20
34.3148011397703
 30
0.0
 41
1.0
  0
SPLINE
  5
B9
330
1F
100
AcDbEntity
  8
inside cuts
  6
Continuous
 62
     4
370
     0
100
AcDbSpline
210
0.0
220
0.0
230
1.0
 70
    12
 71
     2
 72
     6
 73
     3
 74
     0
 42
0.0000000001
 43
0.0000000001
 12
1.0
 22
0.0
 32
0.0
 13
1.0
 23
0.0
 33
0.0
 40
116.9244468870334
 40
116.9244468870334
 40
116.9244468870334
 40
118.2329202272525
 40
118.2329202272525
 40
118.2329202272525
 10
24.47507582401757
 20
34.3148011397703
 30
0.0
 41
1.0
 10
24.61427007228954
 20
34.17560689148724
 30
0.0
 41
0.7071067811870935
 10
24.75346432058551
 20
34.3148011397703
 30
0.0
 41
1.0
  0
LINE
  5
BA
330
1F
100
AcDbEntity
  8
inside cuts
  6
Continuous
 62
     4
370
     0
100
AcDbLine
 10
24.75346432058551
 20
34.3148011397703
 30
0.0
 11
24.8926585688258
 21
34.4539953880106
 31
0.0
  0
LINE
  5
BB
330
1F
100
AcDbEntity
  8
inside cuts
  6
Continuous
 62
     4
370
     0
100
AcDbLine
 10
24.8926585688258
 20
34.4539953880106
 30
0.0
 11
25.43551613708519
 21
34.99685295622639
 31
0.0
  0
LINE
  5
BC
330
1F
100
AcDbEntity
  8
inside cuts
  6
Continuous
 62
     4
370
     0
100
AcDbLine
 10
25.43551613708519
 20
34.99685295622639
 30
0.0
 11
25.57471038532552
 21
35.13604720451035
 31
0.0
  0
SPLINE
  5
BD
330
1F
100
AcDbEntity
  8
inside cuts
  6
Continuous
 62
     4
370
     0
100
AcDbSpline
210
0.0
220
0.0
230
1.0
 70
    12
 71
     2
 72
     6
 73
     3
 74
     0
 42
0.0000000001
 43
0.0000000001
 12
1.0
 22
0.0
 32
0.0
 13
1.0
 23
0.0
 33
0.0
 40
123.1476202272519
 40
123.1476202272519
 40
123.1476202272519
 40
124.4560935674723
 40
124.4560935674723
 40
124.4560935674723
 10
25.57471038532552
 20
35.13604720451035
 30
0.0
 41
1.0
 10
25.71390463359305
 20
35.2752414527624
 30
0.0
 41
0.7071067811865988
 10
25.57471038532552
 20
35.41443570103456
 30
0.0
 41
1.0
  0
SPLINE
  5
BE
330
1F
100
AcDbEntity
  8
inside cuts
  6
Continuous
 62
     4
370
     0
100
AcDbSpline
210
0.0
220
0.0
230
1.0
 70
    12
 71
     2
 72
     6
 73
     3
 74
     0
 42
0.0000000001
 43
0.0000000001
 12
1.0
 22
0.0
 32
0.0
 13
1.0
 23
0.0
 33
0.0
 40
124.4560935674723
 40
124.4560935674723
 40
124.4560935674723
 40
125.7645669076916
 40
125.7645669076916
 40
125.7645669076916
 10
25.57471038532552
 20
35.41443570103456
 30
0.0
 41
1.0
 10
25.43551613701575
 20
35.55362994932597
 30
0.0
 41
0.7071067811865476
 10
25.29632188875756
 20
35.41443570103456
 30
0.0
 41
1.0
  0
SPLINE
  5
BF
330
1F
100
AcDbEntity
  8
inside cuts
  6
Continuous
 62
     4
370
     0
100
AcDbSpline
210
0.0
220
0.0
230
1.0
 70
    12
 71
     2
 72
     6
 73
     3
 74
     0
 42
0.0000000001
 43
0.0000000001
 12
1.0
 22
0.0
 32
0.0
 13
1.0
 23
0.0
 33
0.0
 40
125.7645669076916
 40
125.7645669076916
 40
125.7645669076916
 40
127.0730402479113
 40
127.0730402479113
 40
127.0730402479113
 10
25.29632188875756
 20
35.41443570103456
 30
0.0
 41
1.0
 10
25.15712764050053
 20
35.27524145279293
 30
0.0
 41
0.7071067811860016
 10
25.01793339227699
 20
35.41443570103456
 30
0.0
 41
1.0
  0
LINE
  5
C0
330
1F
100
AcDbEntity
  8
inside cuts
  6
Continuous
 62
     4
370
     0
100
AcDbLine
 10
25.01793339227699
 20
35.41443570103456
 30
0.0
 11
24.3150024385063
 21
36.11736665476165
 31
0.0
  0
LINE
  5
C1
330
1F
100
AcDbEntity
  8
inside cuts
  6
Continuous
 62
     4
370
     0
100
AcDbLine
 10
24.3150024385063
 20
36.11736665476165
 30
0.0
 11
25.01793339227699
 21
36.8202976084449
 31
0.0
  0
SPLINE
  5
C2
330
1F
100
AcDbEntity
  8
inside cuts
  6
Continuous
 62
     4
370
     0
100
AcDbSpline
210
0.0
220
0.0
230
1.0
 70
    12
 71
     2
 72
     6
 73
     3
 74
     0
 42
0.0000000001
 43
0.0000000001
 12
1.0
 22
0.0
 32
0.0
 13
1.0
 23
0.0
 33
0.0
 40
135.4863402479115
 40
135.4863402479115
 40
135.4863402479115
 40
136.7948135881319
 40
136.7948135881319
 40
136.7948135881319
 10
25.01793339227699
 20
36.8202976084449
 30
0.0
 41
1.0
 10
25.15712764053208
 20
36.95949185666752
 30
0.0
 41
0.7071067811864111
 10
25.29632188875756
 20
36.8202976084449
 30
0.0
 41
1.0
  0
SPLINE
  5
C3
330
1F
100
AcDbEntity
  8
inside cuts
  6
Continuous
 62
     4
370
     0
100
AcDbSpline
210
0.0
220
0.0
230
1.0
 70
    12
 71
     2
 72
     6
 73
     3
 74
     0
 42
0.0000000001
 43
0.0000000001
 12
1.0
 22
0.0
 32
0.0
 13
1.0
 23
0.0
 33
0.0
 40
136.7948135881319
 40
136.7948135881319
 40
136.7948135881319
 40
138.1032869283525
 40
138.1032869283525
 40
138.1032869283525
 10
25.29632188875756
 20
36.8202976084449
 30
0.0
 41
1.0
 10
25.4355161370355
 20
36.68110336024274
 30
0.0
 41
0.7071067811860017
 10
25.57471038532552
 20
36.8202976084449
 30
0.0
 41
1.0
  0
SPLINE
  5
C4
330
1F
100
AcDbEntity
  8
inside cuts
  6
Continuous
 62
     4
370
     0
100
AcDbSpline
210
0.0
220
0.0
230
1.0
 70
    12
 71
     2
 72
     6
 73
     3
 74
     0
 42
0.0000000001
 43
0.0000000001
 12
1.0
 22
0.0
 32
0.0
 13
1.0
 23
0.0
 33
0.0
 40
138.1032869283525
 40
138.1032869283525
 40
138.1032869283525
 40
139.4117602685722
 40
139.4117602685722
 40
139.4117602685722
 10
25.57471038532552
 20
36.8202976084449
 30
0.0
 41
1.0
 10
25.71390463355791
 20
36.95949185675804
 30
0.0
 41
0.7071067811860358
 10
25.57471038532552
 20
37.09868610496935
 30
0.0
 41
1.0
  0
LINE
  5
C5
330
1F
100
AcDbEntity
  8
inside cuts
  6
Continuous
 62
     4
370
     0
100
AcDbLine
 10
25.57471038532552
 20
37.09868610496935
 30
0.0
 11
25.43551613708519
 21
37.23788035325326
 31
0.0
  0
LINE
  5
C6
330
1F
100
AcDbEntity
  8
inside cuts
  6
Continuous
 62
     4
370
     0
100
AcDbLine
 10
25.43551613708519
 20
37.23788035325326
 30
0.0
 11
24.8926585688258
 21
37.78073792146898
 31
0.0
  0
LINE
  5
C7
330
1F
100
AcDbEntity
  8
inside cuts
  6
Continuous
 62
     4
370
     0
100
AcDbLine
 10
24.8926585688258
 20
37.78073792146898
 30
0.0
 11
24.75346432058551
 21
37.91993216970924
 31
0.0
  0
SPLINE
  5
C8
330
1F
100
AcDbEntity
  8
inside cuts
  6
Continuous
 62
     4
370
     0
100
AcDbSpline
210
0.0
220
0.0
230
1.0
 70
    12
 71
     2
 72
     6
 73
     3
 74
     0
 42
0.0000000001
 43
0.0000000001
 12
1.0
 22
0.0
 32
0.0
 13
1.0
 23
0.0
 33
0.0
 40
144.3264602685715
 40
144.3264602685715
 40
144.3264602685715
 40
145.6349336087909
 40
145.6349336087909
 40
145.6349336087909
 10
24.75346432058551
 20
37.91993216970924
 30
0.0
 41
1.0
 10
24.61427007230885
 20
38.05912641801653
 30
0.0
 41
0.7071067811865476
 10
24.47507582401757
 20
37.91993216970924
 30
0.0
 41
1.0
  0
SPLINE
  5
C9
330
1F
100
AcDbEntity
  8
inside cuts
  6
Continuous
 62
     4
370
     0
100
AcDbSpline
210
0.0
220
0.0
230
1.0
 70
    12
 71
     2
 72
     6
 73
     3
 74
     0
 42
0.0000000001
 43
0.0000000001
 12
1.0
 22
0.0
 32
0.0
 13
1.0
 23
0.0
 33
0.0
 40
145.6349336087909
 40
145.6349336087909
 40
145.6349336087909
 40
146.943406949011
 40
146.943406949011
 40
146.943406949011
 10
24.47507582401757
 20
37.91993216970924
 30
0.0
 41
1.0
 10
24.33588157578044
 20
37.78073792145585
 30
0.0
 41
0.7071067811870252
 10
24.47507582401757
 20
37.64154367318501
 30
0.0
 41
1.0
  0
SPLINE
  5
CA
330
1F
100
AcDbEntity
  8
inside cuts
  6
Continuous
 62
     4
370
     0
100
AcDbSpline
210
0.0
220
0.0
230
1.0
 70
    12
 71
     2
 72
     6
 73
     3
 74
     0
 42
0.0000000001
 43
0.0000000001
 12
1.0
 22
0.0
 32
0.0
 13
1.0
 23
0.0
 33
0.0
 40
146.943406949011
 40
146.943406949011
 40
146.943406949011
 40
148.2518802892309
 40
148.2518802892309
 40
148.2518802892309
 10
24.47507582401757
 20
37.64154367318501
 30
0.0
 41
1.0
 10
24.61427007223019
 20
37.50234942496314
 30
0.0
 41
0.7071067811854387
 10
24.47507582401757
 20
37.36315517666081
 30
0.0
 41
1.0
  0
LINE
  5
CB
330
1F
100
AcDbEntity
  8
inside cuts
  6
Continuous
 62
     4
370
     0
100
AcDbLine
 10
24.47507582401757
 20
37.36315517666081
 30
0.0
 11
23.77214487033419
 21
36.66022422297736
 31
0.0
  0
LINE
  5
CC
330
1F
100
AcDbEntity
  8
inside cuts
  6
Continuous
 62
     4
370
     0
100
AcDbLine
 10
23.77214487033419
 20
36.66022422297736
 30
0.0
 11
23.06921391656354
 21
37.36315517666081
 31
0.0
  0
SPLINE
  5
CD
330
1F
100
AcDbEntity
  8
inside cuts
  6
Continuous
 62
     4
370
     0
100
AcDbSpline
210
0.0
220
0.0
230
1.0
 70
    12
 71
     2
 72
     6
 73
     3
 74
     0
 42
0.0000000001
 43
0.0000000001
 12
1.0
 22
0.0
 32
0.0
 13
1.0
 23
0.0
 33
0.0
 40
156.6651802892318
 40
156.6651802892318
 40
156.6651802892318
 40
157.9736536294519
 40
157.9736536294519
 40
157.9736536294519
 10
23.06921391656354
 20
37.36315517666081
 30
0.0
 41
1.0
 10
22.93001966838482
 20
37.50234942490653
 30
0.0
 41
0.7071067811870508
 10
23.06921391656354
 20
37.64154367318501
 30
0.0
 41
1.0
  0
SPLINE
  5
CE
330
1F
100
AcDbEntity
  8
inside cuts
  6
Continuous
 62
     4
370
     0
100
AcDbSpline
210
0.0
220
0.0
230
1.0
 70
    12
 71
     2
 72
     6
 73
     3
 74
     0
 42
0.0000000001
 43
0.0000000001
 12
1.0
 22
0.0
 32
0.0
 13
1.0
 23
0.0
 33
0.0
 40
157.9736536294519
 40
157.9736536294519
 40
157.9736536294519
 40
159.2821269696722
 40
159.2821269696722
 40
159.2821269696722
 10
23.06921391656354
 20
37.64154367318501
 30
0.0
 41
1.0
 10
23.20840816486015
 20
37.78073792148158
 30
0.0
 41
0.7071067811865476
 10
23.06921391656354
 20
37.91993216970924
 30
0.0
 41
1.0
  0
SPLINE
  5
CF
330
1F
100
AcDbEntity
  8
inside cuts
  6
Continuous
 62
     4
370
     0
100
AcDbSpline
210
0.0
220
0.0
230
1.0
 70
    12
 71
     2
 72
     6
 73
     3
 74
     0
 42
0.0000000001
 43
0.0000000001
 12
1.0
 22
0.0
 32
0.0
 13
1.0
 23
0.0
 33
0.0
 40
159.2821269696722
 40
159.2821269696722
 40
159.2821269696722
 40
160.5906003098916
 40
160.5906003098916
 40
160.5906003098916
 10
23.06921391656354
 20
37.91993216970924
 30
0.0
 41
1.0
 10
22.93001966832525
 20
38.05912641801653
 30
0.0
 41
0.7071067811865476
 10
22.79082542008291
 20
37.91993216970924
 30
0.0
 41
1.0
  0
LINE
  5
D0
330
1F
100
AcDbEntity
  8
inside cuts
  6
Continuous
 62
     4
370
     0
100
AcDbLine
 10
22.79082542008291
 20
37.91993216970924
 30
0.0
 11
22.65163117184258
 21
37.78073792146898
 31
0.0
  0
LINE
  5
D1
330
1F
100
AcDbEntity
  8
inside cuts
  6
Continuous
 62
     4
370
     0
100
AcDbLine
 10
22.65163117184258
 20
37.78073792146898
 30
0.0
 11
22.10877360358321
 21
37.23788035325326
 31
0.0
  0
LINE
  5
D2
330
1F
100
AcDbEntity
  8
inside cuts
  6
Continuous
 62
     4
370
     0
100
AcDbLine
 10
22.10877360358321
 20
37.23788035325326
 30
0.0
 11
21.96957935534286
 21
37.09868610496935
 31
0.0
  0
SPLINE
  5
D3
330
1F
100
AcDbEntity
  8
inside cuts
  6
Continuous
 62
     4
370
     0
100
AcDbSpline
210
0.0
220
0.0
230
1.0
 70
    12
 71
     2
 72
     6
 73
     3
 74
     0
 42
0.0000000001
 43
0.0000000001
 12
1.0
 22
0.0
 32
0.0
 13
1.0
 23
0.0
 33
0.0
 40
165.505300309891
 40
165.505300309891
 40
165.505300309891
 40
166.8137736501103
 40
166.8137736501103
 40
166.8137736501103
 10
21.96957935534286
 20
37.09868610496935
 30
0.0
 41
1.0
 10
21.83038510706444
 20
36.95949185674584
 30
0.0
 41
0.7071067811865988
 10
21.96957935534286
 20
36.8202976084449
 30
0.0
 41
1.0
  0
SPLINE
  5
D4
330
1F
100
AcDbEntity
  8
inside cuts
  6
Continuous
 62
     4
370
     0
100
AcDbSpline
210
0.0
220
0.0
230
1.0
 70
    12
 71
     2
 72
     6
 73
     3
 74
     0
 42
0.0000000001
 43
0.0000000001
 12
1.0
 22
0.0
 32
0.0
 13
1.0
 23
0.0
 33
0.0
 40
166.8137736501103
 40
166.8137736501103
 40
166.8137736501103
 40
168.1222469903294
 40
168.1222469903294
 40
168.1222469903294
 10
21.96957935534286
 20
36.8202976084449
 30
0.0
 41
1.0
 10
22.10877360360096
 20
36.68110336023761
 30
0.0
 41
0.7071067811870935
 10
22.24796785182348
 20
36.8202976084449
 30
0.0
 41
1.0
  0
LINE
  5
D5
330
1F
100
AcDbEntity
  8
inside cuts
  6
Continuous
 62
     4
370
     0
100
AcDbLine
 10
32.54138251078287
 20
45.42946186342608
 30
0.0
 11
34.49010198640904
 21
47.3781813390958
 31
0.0
  0
SPLINE
  5
D6
330
1F
100
AcDbEntity
  8
inside cuts
  6
Continuous
 62
     4
370
     0
100
AcDbSpline
210
0.0
220
0.0
230
1.0
 70
    12
 71
     2
 72
     6
 73
     3
 74
     0
 42
0.0000000001
 43
0.0000000001
 12
1.0
 22
0.0
 32
0.0
 13
1.0
 23
0.0
 33
0.0
 40
48.85508008264127
 40
48.85508008264127
 40
48.85508008264127
 40
50.16355342286035
 40
50.16355342286035
 40
50.16355342286035
 10
34.49010198640904
 20
47.3781813390958
 30
0.0
 41
1.0
 10
34.62929623471513
 20
47.5173755873676
 30
0.0
 41
0.7071067811871019
 10
34.49010198640904
 20
47.65656983557638
 30
0.0
 41
1.0
  0
SPLINE
  5
D7
330
1F
100
AcDbEntity
  8
inside cuts
  6
Continuous
 62
     4
370
     0
100
AcDbSpline
210
0.0
220
0.0
230
1.0
 70
    12
 71
     2
 72
     6
 73
     3
 74
     0
 42
0.0000000001
 43
0.0000000001
 12
1.0
 22
0.0
 32
0.0
 13
1.0
 23
0.0
 33
0.0
 40
50.16355342286035
 40
50.16355342286035
 40
50.16355342286035
 40
51.47202676308071
 40
51.47202676308071
 40
51.47202676308071
 10
34.49010198640904
 20
47.65656983562019
 30
0.0
 41
1.0
 10
34.35090773815364
 20
47.79576408380245
 30
0.0
 41
0.7071067811865348
 10
34.49010198640904
 20
47.93495833210075
 30
0.0
 41
1.0
  0
SPLINE
  5
D8
330
1F
100
AcDbEntity
  8
inside cuts
  6
Continuous
 62
     4
370
     0
100
AcDbSpline
210
0.0
220
0.0
230
1.0
 70
    12
 71
     2
 72
     6
 73
     3
 74
     0
 42
0.0000000001
 43
0.0000000001
 12
1.0
 22
0.0
 32
0.0
 13
1.0
 23
0.0
 33
0.0
 40
51.47202676308071
 40
51.47202676308071
 40
51.47202676308071
 40
52.78050010330108
 40
52.78050010330108
 40
52.78050010330108
 10
34.49010198640904
 20
47.93495833210075
 30
0.0
 41
1.0
 10
34.62929623468366
 20
48.07415258039136
 30
0.0
 41
0.7071067811865476
 10
34.76849048297694
 20
47.93495833210075
 30
0.0
 41
1.0
  0
LINE
  5
D9
330
1F
100
AcDbEntity
  8
inside cuts
  6
Continuous
 62
     4
370
     0
100
AcDbLine
 10
34.76849048297694
 20
47.93495833210075
 30
0.0
 11
34.90768473121723
 21
47.7957640838605
 31
0.0
  0
LINE
  5
DA
330
1F
100
AcDbEntity
  8
inside cuts
  6
Continuous
 62
     4
370
     0
100
AcDbLine
 10
34.90768473121723
 20
47.7957640838605
 30
0.0
 11
35.45054229947665
 21
47.25290651564477
 31
0.0
  0
LINE
  5
DB
330
1F
100
AcDbEntity
  8
inside cuts
  6
Continuous
 62
     4
370
     0
100
AcDbLine
 10
35.45054229947665
 20
47.25290651564477
 30
0.0
 11
35.58973654771695
 21
47.11371226736064
 31
0.0
  0
SPLINE
  5
DC
330
1F
100
AcDbEntity
  8
inside cuts
  6
Continuous
 62
     4
370
     0
100
AcDbSpline
210
0.0
220
0.0
230
1.0
 70
    12
 71
     2
 72
     6
 73
     3
 74
     0
 42
0.0000000001
 43
0.0000000001
 12
1.0
 22
0.0
 32
0.0
 13
1.0
 23
0.0
 33
0.0
 40
57.69520010330112
 40
57.69520010330112
 40
57.69520010330112
 40
59.00367344352121
 40
59.00367344352121
 40
59.00367344352121
 10
35.58973654771695
 20
47.11371226736064
 30
0.0
 41
1.0
 10
35.7289307959727
 20
46.97451801915919
 30
0.0
 41
0.7071067811870593
 10
35.58973654771695
 20
46.83532377083644
 30
0.0
 41
1.0
  0
SPLINE
  5
DD
330
1F
100
AcDbEntity
  8
inside cuts
  6
Continuous
 62
     4
370
     0
100
AcDbSpline
210
0.0
220
0.0
230
1.0
 70
    12
 71
     2
 72
     6
 73
     3
 74
     0
 42
0.0000000001
 43
0.0000000001
 12
1.0
 22
0.0
 32
0.0
 13
1.0
 23
0.0
 33
0.0
 40
59.00367344352121
 40
59.00367344352121
 40
59.00367344352121
 40
60.31214678374057
 40
60.31214678374057
 40
60.31214678374057
 10
35.58973654771695
 20
46.83532377083644
 30
0.0
 41
1.0
 10
35.45054229945228
 20
46.69612952261465
 30
0.0
 41
0.7071067811865476
 10
35.31134805114904
 20
46.83532377083644
 30
0.0
 41
1.0
  0
SPLINE
  5
DE
330
1F
100
AcDbEntity
  8
inside cuts
  6
Continuous
 62
     4
370
     0
100
AcDbSpline
210
0.0
220
0.0
230
1.0
 70
    12
 71
     2
 72
     6
 73
     3
 74
     0
 42
0.0000000001
 43
0.0000000001
 12
1.0
 22
0.0
 32
0.0
 13
1.0
 23
0.0
 33
0.0
 40
60.31214678374057
 40
60.31214678374057
 40
60.31214678374057
 40
61.62062012396066
 40
61.62062012396066
 40
61.62062012396066
 10
35.31134805114904
 20
46.83532377083644
 30
0.0
 41
1.0
 10
35.17215380288996
 20
46.9745180191393
 30
0.0
 41
0.7071067811870935
 10
35.03295955466842
 20
46.83532377083644
 30
0.0
 41
1.0
  0
LINE
  5
DF
330
1F
100
AcDbEntity
  8
inside cuts
  6
Continuous
 62
     4
370
     0
100
AcDbLine
 10
35.03295955466842
 20
46.83532377083644
 30
0.0
 11
33.0842400790423
 21
44.88660429521019
 31
0.0
  0
SPLINE
  5
E0
330
1F
100
AcDbEntity
  8
inside cuts
  6
Continuous
 62
     4
370
     0
100
AcDbSpline
210
0.0
220
0.0
230
1.0
 70
    12
 71
     2
 72
     6
 73
     3
 74
     0
 42
0.0000000001
 43
0.0000000001
 12
1.0
 22
0.0
 32
0.0
 13
1.0
 23
0.0
 33
0.0
 40
73.28262012396002
 40
73.28262012396002
 40
73.28262012396002
 40
74.59109346418037
 40
74.59109346418037
 40
74.59109346418037
 10
33.08424007895498
 20
44.88660429521019
 30
0.0
 41
1.0
 10
32.94504583074202
 20
44.74741004696448
 30
0.0
 41
0.7071067811865988
 10
33.0842400790423
 20
44.60821579868598
 30
0.0
 41
1.0
  0
SPLINE
  5
E1
330
1F
100
AcDbEntity
  8
inside cuts
  6
Continuous
 62
     4
370
     0
100
AcDbSpline
210
0.0
220
0.0
230
1.0
 70
    12
 71
     2
 72
     6
 73
     3
 74
     0
 42
0.0000000001
 43
0.0000000001
 12
1.0
 22
0.0
 32
0.0
 13
1.0
 23
0.0
 33
0.0
 40
74.59109346418037
 40
74.59109346418037
 40
74.59109346418037
 40
75.89956680440102
 40
75.89956680440102
 40
75.89956680440102
 10
33.0842400790423
 20
44.60821579868598
 30
0.0
 41
1.0
 10
33.22343432720568
 20
44.46902155041583
 30
0.0
 41
0.7071067811859846
 10
33.0842400790423
 20
44.32982730216176
 30
0.0
 41
1.0
  0
SPLINE
  5
E2
330
1F
100
AcDbEntity
  8
inside cuts
  6
Continuous
 62
     4
370
     0
100
AcDbSpline
210
0.0
220
0.0
230
1.0
 70
    12
 71
     2
 72
     6
 73
     3
 74
     0
 42
0.0000000001
 43
0.0000000001
 12
1.0
 22
0.0
 32
0.0
 13
1.0
 23
0.0
 33
0.0
 40
75.89956680440102
 40
75.89956680440102
 40
75.89956680440102
 40
77.20804014462166
 40
77.20804014462166
 40
77.20804014462166
 10
33.08424007895498
 20
44.32982730216176
 30
0.0
 41
1.0
 10
32.94504583072568
 20
44.19063305393276
 30
0.0
 41
0.7071067811860017
 10
32.80585158247439
 20
44.32982730216176
 30
0.0
 41
1.0
  0
LINE
  5
E3
330
1F
100
AcDbEntity
  8
inside cuts
  6
Continuous
 62
     4
370
     0
100
AcDbLine
 10
32.80585158247439
 20
44.32982730216176
 30
0.0
 11
32.6666573342341
 21
44.46902155040208
 31
0.0
  0
LINE
  5
E4
330
1F
100
AcDbEntity
  8
inside cuts
  6
Continuous
 62
     4
370
     0
100
AcDbLine
 10
32.6666573342341
 20
44.46902155040208
 30
0.0
 11
32.12379976597468
 21
45.0118791186179
 31
0.0
  0
LINE
  5
E5
330
1F
100
AcDbEntity
  8
inside cuts
  6
Continuous
 62
     4
370
     0
100
AcDbLine
 10
32.12379976597468
 20
45.0118791186179
 30
0.0
 11
31.98460551773438
 21
45.15107336690185
 31
0.0
  0
SPLINE
  5
E6
330
1F
100
AcDbEntity
  8
inside cuts
  6
Continuous
 62
     4
370
     0
100
AcDbSpline
210
0.0
220
0.0
230
1.0
 70
    12
 71
     2
 72
     6
 73
     3
 74
     0
 42
0.0000000001
 43
0.0000000001
 12
1.0
 22
0.0
 32
0.0
 13
1.0
 23
0.0
 33
0.0
 40
82.12274014462106
 40
82.12274014462106
 40
82.12274014462106
 40
83.43121348484144
 40
83.43121348484144
 40
83.43121348484144
 10
31.98460551773438
 20
45.15107336690185
 30
0.0
 41
1.0
 10
31.84541126946485
 20
45.29026761517629
 30
0.0
 41
0.7071067811865305
 10
31.98460551773438
 20
45.42946186342608
 30
0.0
 41
1.0
  0
SPLINE
  5
E7
330
1F
100
AcDbEntity
  8
inside cuts
  6
Continuous
 62
     4
370
     0
100
AcDbSpline
210
0.0
220
0.0
230
1.0
 70
    12
 71
     2
 72
     6
 73
     3
 74
     0
 42
0.0000000001
 43
0.0000000001
 12
1.0
 22
0.0
 32
0.0
 13
1.0
 23
0.0
 33
0.0
 40
83.43121348484144
 40
83.43121348484144
 40
83.43121348484144
 40
84.7396868250618
 40
84.7396868250618
 40
84.7396868250618
 10
31.98460551773438
 20
45.42946186342608
 30
0.0
 41
1.0
 10
32.12379976598395
 20
45.56865611165714
 30
0.0
 41
0.7071067811864111
 10
32.26299401421497
 20
45.42946186342608
 30
0.0
 41
1.0
  0
SPLINE
  5
E8
330
1F
100
AcDbEntity
  8
inside cuts
  6
Continuous
 62
     4
370
     0
100
AcDbSpline
210
0.0
220
0.0
230
1.0
 70
    12
 71
     2
 72
     6
 73
     3
 74
     0
 42
0.0000000001
 43
0.0000000001
 12
1.0
 22
0.0
 32
0.0
 13
1.0
 23
0.0
 33
0.0
 40
84.7396868250618
 40
84.7396868250618
 40
84.7396868250618
 40
86.04816016528189
 40
86.04816016528189
 40
86.04816016528189
 10
32.26299401421497
 20
45.42946186342608
 30
0.0
 41
1.0
 10
32.40218826250274
 20
45.29026761515694
 30
0.0
 41
0.7071067811870935
 10
32.54138251078287
 20
45.42946186342608
 30
0.0
 41
1.0
  0
SPLINE
  5
E9
330
1F
100
AcDbEntity
  8
inside cuts
  6
Continuous
 62
     4
370
     0
100
AcDbSpline
210
0.0
220
0.0
230
1.0
 70
    12
 71
     2
 72
     6
 73
     3
 74
     0
 42
0.0000000001
 43
0.0000000001
 12
1.0
 22
0.0
 32
0.0
 13
1.0
 23
0.0
 33
0.0
 40
47.54660674241811
 40
47.54660674241811
 40
47.54660674241811
 40
48.85508008263848
 40
48.85508008263848
 40
48.85508008263848
 10
9.99191429244883
 20
21.23750151561191
 30
0.0
 41
1.0
 10
9.85272004419022
 20
21.09830726735244
 30
0.0
 41
0.7071067811865476
 10
9.713525795968255
 20
21.23750151561191
 30
0.0
 41
1.0
  0
SPLINE
  5
EA
330
1F
100
AcDbEntity
  8
inside cuts
  6
Continuous
 62
     4
370
     0
100
AcDbSpline
210
0.0
220
0.0
230
1.0
 70
    12
 71
     2
 72
     6
 73
     3
 74
     0
 42
0.0000000001
 43
0.0000000001
 12
1.0
 22
0.0
 32
0.0
 13
1.0
 23
0.0
 33
0.0
 40
48.85508008263848
 40
48.85508008263848
 40
48.85508008263848
 40
50.16355342285885
 40
50.16355342285885
 40
50.16355342285885
 10
9.713525795968255
 20
21.23750151561191
 30
0.0
 41
1.0
 10
9.574331547655323
 20
21.37669576388762
 30
0.0
 41
0.7071067811865475
 10
9.435137299400356
 20
21.23750151561191
 30
0.0
 41
1.0
  0
LINE
  5
EB
330
1F
100
AcDbEntity
  8
inside cuts
  6
Continuous
 62
     4
370
     0
100
AcDbLine
 10
9.435137299400356
 20
21.23750151561191
 30
0.0
 11
7.486417823774193
 21
19.28878203998584
 31
0.0
  0
SPLINE
  5
EC
330
1F
100
AcDbEntity
  8
inside cuts
  6
Continuous
 62
     4
370
     0
100
AcDbSpline
210
0.0
220
0.0
230
1.0
 70
    12
 71
     2
 72
     6
 73
     3
 74
     0
 42
0.0000000001
 43
0.0000000001
 12
1.0
 22
0.0
 32
0.0
 13
1.0
 23
0.0
 33
0.0
 40
61.82555342285949
 40
61.82555342285949
 40
61.82555342285949
 40
63.13402676307857
 40
63.13402676307857
 40
63.13402676307857
 10
7.486417823774193
 20
19.28878203998584
 30
0.0
 41
1.0
 10
7.347223575493657
 20
19.1495877917431
 30
0.0
 41
0.7071067811870935
 10
7.486417823774193
 20
19.01039354346163
 30
0.0
 41
1.0
  0
SPLINE
  5
ED
330
1F
100
AcDbEntity
  8
inside cuts
  6
Continuous
 62
     4
370
     0
100
AcDbSpline
210
0.0
220
0.0
230
1.0
 70
    12
 71
     2
 72
     6
 73
     3
 74
     0
 42
0.0000000001
 43
0.0000000001
 12
1.0
 22
0.0
 32
0.0
 13
1.0
 23
0.0
 33
0.0
 40
63.13402676307857
 40
63.13402676307857
 40
63.13402676307857
 40
64.44250010329894
 40
64.44250010329894
 40
64.44250010329894
 10
7.486417823774193
 20
19.01039354346163
 30
0.0
 41
1.0
 10
7.625612072004678
 20
18.87119929521253
 30
0.0
 41
0.7071067811866327
 10
7.486417823774193
 20
18.73200504693731
 30
0.0
 41
1.0
  0
SPLINE
  5
EE
330
1F
100
AcDbEntity
  8
inside cuts
  6
Continuous
 62
     4
370
     0
100
AcDbSpline
210
0.0
220
0.0
230
1.0
 70
    12
 71
     2
 72
     6
 73
     3
 74
     0
 42
0.0000000001
 43
0.0000000001
 12
1.0
 22
0.0
 32
0.0
 13
1.0
 23
0.0
 33
0.0
 40
64.44250010329894
 40
64.44250010329894
 40
64.44250010329894
 40
65.75097344351815
 40
65.75097344351815
 40
65.75097344351815
 10
7.486417823774193
 20
18.73200504693731
 30
0.0
 41
1.0
 10
7.34722357552758
 20
18.59281079869875
 30
0.0
 41
0.7071067811868206
 10
7.208029327206237
 20
18.73200504693731
 30
0.0
 41
1.0
  0
LINE
  5
EF
330
1F
100
AcDbEntity
  8
inside cuts
  6
Continuous
 62
     4
370
     0
100
AcDbLine
 10
7.208029327206237
 20
18.73200504693731
 30
0.0
 11
7.068835078965936
 21
18.87119929517761
 31
0.0
  0
LINE
  5
F0
330
1F
100
AcDbEntity
  8
inside cuts
  6
Continuous
 62
     4
370
     0
100
AcDbLine
 10
7.068835078965936
 20
18.87119929517761
 30
0.0
 11
6.525977510793883
 21
19.41405686339339
 31
0.0
  0
LINE
  5
F1
330
1F
100
AcDbEntity
  8
inside cuts
  6
Continuous
 62
     4
370
     0
100
AcDbLine
 10
6.525977510793883
 20
19.41405686339339
 30
0.0
 11
6.386783262466228
 21
19.55325111167735
 31
0.0
  0
SPLINE
  5
F2
330
1F
100
AcDbEntity
  8
inside cuts
  6
Continuous
 62
     4
370
     0
100
AcDbSpline
210
0.0
220
0.0
230
1.0
 70
    12
 71
     2
 72
     6
 73
     3
 74
     0
 42
0.0000000001
 43
0.0000000001
 12
1.0
 22
0.0
 32
0.0
 13
1.0
 23
0.0
 33
0.0
 40
70.66567344351756
 40
70.66567344351756
 40
70.66567344351756
 40
71.97414678373792
 40
71.97414678373792
 40
71.97414678373792
 10
6.386783262466228
 20
19.55325111167735
 30
0.0
 41
1.0
 10
6.247589014295816
 20
19.69244535992856
 30
0.0
 41
0.7071067811866159
 10
6.386783262466228
 20
19.83163960820157
 30
0.0
 41
1.0
  0
SPLINE
  5
F3
330
1F
100
AcDbEntity
  8
inside cuts
  6
Continuous
 62
     4
370
     0
100
AcDbSpline
210
0.0
220
0.0
230
1.0
 70
    12
 71
     2
 72
     6
 73
     3
 74
     0
 42
0.0000000001
 43
0.0000000001
 12
1.0
 22
0.0
 32
0.0
 13
1.0
 23
0.0
 33
0.0
 40
71.97414678373792
 40
71.97414678373792
 40
71.97414678373792
 40
73.28262012395714
 40
73.28262012395714
 40
73.28262012395714
 10
6.386783262466228
 20
19.83163960820157
 30
0.0
 41
1.0
 10
6.525977510821005
 20
19.97083385647498
 30
0.0
 41
0.7071067811868206
 10
6.665171759034184
 20
19.83163960820157
 30
0.0
 41
1.0
  0
SPLINE
  5
F4
330
1F
100
AcDbEntity
  8
inside cuts
  6
Continuous
 62
     4
370
     0
100
AcDbSpline
210
0.0
220
0.0
230
1.0
 70
    12
 71
     2
 72
     6
 73
     3
 74
     0
 42
0.0000000001
 43
0.0000000001
 12
1.0
 22
0.0
 32
0.0
 13
1.0
 23
0.0
 33
0.0
 40
73.28262012395714
 40
73.28262012395714
 40
73.28262012395714
 40
74.59109346417736
 40
74.59109346417736
 40
74.59109346417736
 10
6.665171759034184
 20
19.83163960820157
 30
0.0
 41
1.0
 10
6.804366007355754
 20
19.69244535994021
 30
0.0
 41
0.7071067811868206
 10
6.943560255514758
 20
19.83163960820157
 30
0.0
 41
1.0
  0
LINE
  5
F5
330
1F
100
AcDbEntity
  8
inside cuts
  6
Continuous
 62
     4
370
     0
100
AcDbLine
 10
6.943560255514758
 20
19.83163960820157
 30
0.0
 11
8.892279731228204
 21
21.78035908382781
 31
0.0
  0
SPLINE
  5
F6
330
1F
100
AcDbEntity
  8
inside cuts
  6
Continuous
 62
     4
370
     0
100
AcDbSpline
210
0.0
220
0.0
230
1.0
 70
    12
 71
     2
 72
     6
 73
     3
 74
     0
 42
0.0000000001
 43
0.0000000001
 12
1.0
 22
0.0
 32
0.0
 13
1.0
 23
0.0
 33
0.0
 40
86.25309346417673
 40
86.25309346417673
 40
86.25309346417673
 40
87.56156680439737
 40
87.56156680439737
 40
87.56156680439737
 10
8.892279731228204
 20
21.78035908382781
 30
0.0
 41
1.0
 10
9.031473979428696
 20
21.9195533321127
 30
0.0
 41
0.7071067811860017
 10
8.892279731228204
 20
22.05874758035202
 30
0.0
 41
1.0
  0
SPLINE
  5
F7
330
1F
100
AcDbEntity
  8
inside cuts
  6
Continuous
 62
     4
370
     0
100
AcDbSpline
210
0.0
220
0.0
230
1.0
 70
    12
 71
     2
 72
     6
 73
     3
 74
     0
 42
0.0000000001
 43
0.0000000001
 12
1.0
 22
0.0
 32
0.0
 13
1.0
 23
0.0
 33
0.0
 40
87.56156680439737
 40
87.56156680439737
 40
87.56156680439737
 40
88.87004014461746
 40
88.87004014461746
 40
88.87004014461746
 10
8.892279731228204
 20
22.05874758035202
 30
0.0
 41
1.0
 10
8.753085482967023
 20
22.19794182854681
 30
0.0
 41
0.7071067811871958
 10
8.892279731228204
 20
22.33713607687624
 30
0.0
 41
1.0
  0
SPLINE
  5
F8
330
1F
100
AcDbEntity
  8
inside cuts
  6
Continuous
 62
     4
370
     0
100
AcDbSpline
210
0.0
220
0.0
230
1.0
 70
    12
 71
     2
 72
     6
 73
     3
 74
     0
 42
0.0000000001
 43
0.0000000001
 12
1.0
 22
0.0
 32
0.0
 13
1.0
 23
0.0
 33
0.0
 40
88.87004014461746
 40
88.87004014461746
 40
88.87004014461746
 40
90.17851348483683
 40
90.17851348483683
 40
90.17851348483683
 10
8.892279731228204
 20
22.33713607687624
 30
0.0
 41
1.0
 10
9.03147397942148
 20
22.47633032519089
 30
0.0
 41
0.7071067811865476
 10
9.17066822770882
 20
22.33713607687624
 30
0.0
 41
1.0
  0
LINE
  5
F9
330
1F
100
AcDbEntity
  8
inside cuts
  6
Continuous
 62
     4
370
     0
100
AcDbLine
 10
9.17066822770882
 20
22.33713607687624
 30
0.0
 11
9.309862475949163
 21
22.19794182863599
 31
0.0
  0
LINE
  5
FA
330
1F
100
AcDbEntity
  8
inside cuts
  6
Continuous
 62
     4
370
     0
100
AcDbLine
 10
9.309862475949163
 20
22.19794182863599
 30
0.0
 11
9.852720044208542
 21
21.65508426042026
 31
0.0
  0
LINE
  5
FB
330
1F
100
AcDbEntity
  8
inside cuts
  6
Continuous
 62
     4
370
     0
100
AcDbLine
 10
9.852720044208542
 20
21.65508426042026
 30
0.0
 11
9.99191429244883
 21
21.51589001213624
 31
0.0
  0
SPLINE
  5
FC
330
1F
100
AcDbEntity
  8
inside cuts
  6
Continuous
 62
     4
370
     0
100
AcDbSpline
210
0.0
220
0.0
230
1.0
 70
    12
 71
     2
 72
     6
 73
     3
 74
     0
 42
0.0000000001
 43
0.0000000001
 12
1.0
 22
0.0
 32
0.0
 13
1.0
 23
0.0
 33
0.0
 40
95.09321348483623
 40
95.09321348483623
 40
95.09321348483623
 40
96.4016868250566
 40
96.4016868250566
 40
96.4016868250566
 10
9.99191429244883
 20
21.51589001213624
 30
0.0
 41
1.0
 10
10.13110854073115
 20
21.37669576389717
 30
0.0
 41
0.7071067811865305
 10
9.99191429244883
 20
21.23750151561191
 30
0.0
 41
1.0
  0
SPLINE
  5
FD
330
1F
100
AcDbEntity
  8
inside cuts
  6
Continuous
 62
     4
370
     0
100
AcDbSpline
210
0.0
220
0.0
230
1.0
 70
    12
 71
     2
 72
     6
 73
     3
 74
     0
 42
0.0000000001
 43
0.0000000001
 12
1.0
 22
0.0
 32
0.0
 13
1.0
 23
0.0
 33
0.0
 40
47.546606742421
 40
47.546606742421
 40
47.546606742421
 40
48.85508008264109
 40
48.85508008264109
 40
48.85508008264109
 10
14.46004966162613
 20
44.32982730216176
 30
0.0
 41
1.0
 10
14.32085541338776
 20
44.46902155045081
 30
0.0
 41
0.7071067811870935
 10
14.46004966162613
 20
44.60821579868598
 30
0.0
 41
1.0
  0
SPLINE
  5
FE
330
1F
100
AcDbEntity
  8
inside cuts
  6
Continuous
 62
     4
370
     0
100
AcDbSpline
210
0.0
220
0.0
230
1.0
 70
    12
 71
     2
 72
     6
 73
     3
 74
     0
 42
0.0000000001
 43
0.0000000001
 12
1.0
 22
0.0
 32
0.0
 13
1.0
 23
0.0
 33
0.0
 40
48.85508008264109
 40
48.85508008264109
 40
48.85508008264109
 40
50.16355342286173
 40
50.16355342286173
 40
50.16355342286173
 10
14.46004966162613
 20
44.60821579868598
 30
0.0
 41
1.0
 10
14.59924390988374
 20
44.74741004687934
 30
0.0
 41
0.7071067811860018
 10
14.46004966162613
 20
44.88660429521019
 30
0.0
 41
1.0
  0
LINE
  5
FF
330
1F
100
AcDbEntity
  8
inside cuts
  6
Continuous
 62
     4
370
     0
100
AcDbLine
 10
14.46004966162613
 20
44.88660429521019
 30
0.0
 11
12.51133018599996
 21
46.83532377083644
 31
0.0
  0
SPLINE
  5
100
330
1F
100
AcDbEntity
  8
inside cuts
  6
Continuous
 62
     4
370
     0
100
AcDbSpline
210
0.0
220
0.0
230
1.0
 70
    12
 71
     2
 72
     6
 73
     3
 74
     0
 42
0.0000000001
 43
0.0000000001
 12
1.0
 22
0.0
 32
0.0
 13
1.0
 23
0.0
 33
0.0
 40
61.82555342286109
 40
61.82555342286109
 40
61.82555342286109
 40
63.13402676308146
 40
63.13402676308146
 40
63.13402676308146
 10
12.51133018599996
 20
46.83532377083644
 30
0.0
 41
1.0
 10
12.37213593770371
 20
46.97451801904429
 30
0.0
 41
0.7071067811864111
 10
12.232941689432
 20
46.83532377083644
 30
0.0
 41
1.0
  0
SPLINE
  5
101
330
1F
100
AcDbEntity
  8
inside cuts
  6
Continuous
 62
     4
370
     0
100
AcDbSpline
210
0.0
220
0.0
230
1.0
 70
    12
 71
     2
 72
     6
 73
     3
 74
     0
 42
0.0000000001
 43
0.0000000001
 12
1.0
 22
0.0
 32
0.0
 13
1.0
 23
0.0
 33
0.0
 40
63.13402676308146
 40
63.13402676308146
 40
63.13402676308146
 40
64.44250010330154
 40
64.44250010330154
 40
64.44250010330154
 10
12.232941689432
 20
46.83532377083644
 30
0.0
 41
1.0
 10
12.0937474411721
 20
46.69612952260469
 30
0.0
 41
0.7071067811870935
 10
11.95455319295143
 20
46.83532377083644
 30
0.0
 41
1.0
  0
SPLINE
  5
102
330
1F
100
AcDbEntity
  8
inside cuts
  6
Continuous
 62
     4
370
     0
100
AcDbSpline
210
0.0
220
0.0
230
1.0
 70
    12
 71
     2
 72
     6
 73
     3
 74
     0
 42
0.0000000001
 43
0.0000000001
 12
1.0
 22
0.0
 32
0.0
 13
1.0
 23
0.0
 33
0.0
 40
64.44250010330154
 40
64.44250010330154
 40
64.44250010330154
 40
65.75097344352164
 40
65.75097344352164
 40
65.75097344352164
 10
11.95455319295143
 20
46.83532377083644
 30
0.0
 41
1.0
 10
11.81535894463746
 20
46.9745180191393
 30
0.0
 41
0.7071067811870935
 10
11.95455319295143
 20
47.11371226736064
 30
0.0
 41
1.0
  0
LINE
  5
103
330
1F
100
AcDbEntity
  8
inside cuts
  6
Continuous
 62
     4
370
     0
100
AcDbLine
 10
11.95455319295143
 20
47.11371226736064
 30
0.0
 11
12.09374744119173
 21
47.25290651564477
 31
0.0
  0
LINE
  5
104
330
1F
100
AcDbEntity
  8
inside cuts
  6
Continuous
 62
     4
370
     0
100
AcDbLine
 10
12.09374744119173
 20
47.25290651564477
 30
0.0
 11
12.63660500945115
 21
47.7957640838605
 31
0.0
  0
LINE
  5
105
330
1F
100
AcDbEntity
  8
inside cuts
  6
Continuous
 62
     4
370
     0
100
AcDbLine
 10
12.63660500945115
 20
47.7957640838605
 30
0.0
 11
12.77579925769144
 21
47.93495833210075
 31
0.0
  0
SPLINE
  5
106
330
1F
100
AcDbEntity
  8
inside cuts
  6
Continuous
 62
     4
370
     0
100
AcDbSpline
210
0.0
220
0.0
230
1.0
 70
    12
 71
     2
 72
     6
 73
     3
 74
     0
 42
0.0000000001
 43
0.0000000001
 12
1.0
 22
0.0
 32
0.0
 13
1.0
 23
0.0
 33
0.0
 40
70.66567344352168
 40
70.66567344352168
 40
70.66567344352168
 40
71.97414678374103
 40
71.97414678374103
 40
71.97414678374103
 10
12.77579925769144
 20
47.93495833210075
 30
0.0
 41
1.0
 10
12.91499350595041
 20
48.07415258039136
 30
0.0
 41
0.7071067811865476
 10
13.05418775417201
 20
47.93495833210075
 30
0.0
 41
1.0
  0
SPLINE
  5
107
330
1F
100
AcDbEntity
  8
inside cuts
  6
Continuous
 62
     4
370
     0
100
AcDbSpline
210
0.0
220
0.0
230
1.0
 70
    12
 71
     2
 72
     6
 73
     3
 74
     0
 42
0.0000000001
 43
0.0000000001
 12
1.0
 22
0.0
 32
0.0
 13
1.0
 23
0.0
 33
0.0
 40
71.97414678374103
 40
71.97414678374103
 40
71.97414678374103
 40
73.28262012396141
 40
73.28262012396141
 40
73.28262012396141
 10
13.05418775417201
 20
47.93495833210075
 30
0.0
 41
1.0
 10
13.19338200245473
 20
47.79576408386848
 30
0.0
 41
0.7071067811866327
 10
13.05418775417201
 20
47.65656983557638
 30
0.0
 41
1.0
  0
SPLINE
  5
108
330
1F
100
AcDbEntity
  8
inside cuts
  6
Continuous
 62
     4
370
     0
100
AcDbSpline
210
0.0
220
0.0
230
1.0
 70
    12
 71
     2
 72
     6
 73
     3
 74
     0
 42
0.0000000001
 43
0.0000000001
 12
1.0
 22
0.0
 32
0.0
 13
1.0
 23
0.0
 33
0.0
 40
73.28262012396141
 40
73.28262012396141
 40
73.28262012396141
 40
74.59109346418076
 40
74.59109346418076
 40
74.59109346418076
 10
13.05418775417201
 20
47.65656983557638
 30
0.0
 41
1.0
 10
12.9149935059877
 20
47.51737558734354
 30
0.0
 41
0.7071067811866159
 10
13.05418775417201
 20
47.3781813390958
 30
0.0
 41
1.0
  0
LINE
  5
109
330
1F
100
AcDbEntity
  8
inside cuts
  6
Continuous
 62
     4
370
     0
100
AcDbLine
 10
13.05418775417201
 20
47.3781813390958
 30
0.0
 11
15.00290722988551
 21
45.42946186342608
 31
0.0
  0
SPLINE
  5
10A
330
1F
100
AcDbEntity
  8
inside cuts
  6
Continuous
 62
     4
370
     0
100
AcDbSpline
210
0.0
220
0.0
230
1.0
 70
    12
 71
     2
 72
     6
 73
     3
 74
     0
 42
0.0000000001
 43
0.0000000001
 12
1.0
 22
0.0
 32
0.0
 13
1.0
 23
0.0
 33
0.0
 40
86.25309346418075
 40
86.25309346418075
 40
86.25309346418075
 40
87.56156680440057
 40
87.56156680440057
 40
87.56156680440057
 10
15.00290722988551
 20
45.42946186342608
 30
0.0
 41
1.0
 10
15.14210147808207
 20
45.29026761514797
 30
0.0
 41
0.7071067811876395
 10
15.28129572636614
 20
45.42946186342608
 30
0.0
 41
1.0
  0
SPLINE
  5
10B
330
1F
100
AcDbEntity
  8
inside cuts
  6
Continuous
 62
     4
370
     0
100
AcDbSpline
210
0.0
220
0.0
230
1.0
 70
    12
 71
     2
 72
     6
 73
     3
 74
     0
 42
0.0000000001
 43
0.0000000001
 12
1.0
 22
0.0
 32
0.0
 13
1.0
 23
0.0
 33
0.0
 40
87.56156680440057
 40
87.56156680440057
 40
87.56156680440057
 40
88.87004014462222
 40
88.87004014462222
 40
88.87004014462222
 10
15.28129572636614
 20
45.42946186342608
 30
0.0
 41
1.0
 10
15.4204899746531
 20
45.56865611171055
 30
0.0
 41
0.7071067811860016
 10
15.55968422293404
 20
45.42946186342608
 30
0.0
 41
1.0
  0
SPLINE
  5
10C
330
1F
100
AcDbEntity
  8
inside cuts
  6
Continuous
 62
     4
370
     0
100
AcDbSpline
210
0.0
220
0.0
230
1.0
 70
    12
 71
     2
 72
     6
 73
     3
 74
     0
 42
0.0000000001
 43
0.0000000001
 12
1.0
 22
0.0
 32
0.0
 13
1.0
 23
0.0
 33
0.0
 40
88.87004014462222
 40
88.87004014462222
 40
88.87004014462222
 40
90.1785134848426
 40
90.1785134848426
 40
90.1785134848426
 10
15.55968422293404
 20
45.42946186342608
 30
0.0
 41
1.0
 10
15.69887847117579
 20
45.29026761516592
 30
0.0
 41
0.7071067811865476
 10
15.55968422293404
 20
45.15107336690185
 30
0.0
 41
1.0
  0
LINE
  5
10D
330
1F
100
AcDbEntity
  8
inside cuts
  6
Continuous
 62
     4
370
     0
100
AcDbLine
 10
15.55968422293404
 20
45.15107336690185
 30
0.0
 11
15.42048997469371
 21
45.0118791186179
 31
0.0
  0
LINE
  5
10E
330
1F
100
AcDbEntity
  8
inside cuts
  6
Continuous
 62
     4
370
     0
100
AcDbLine
 10
15.42048997469371
 20
45.0118791186179
 30
0.0
 11
14.87763240643432
 21
44.46902155040208
 31
0.0
  0
LINE
  5
10F
330
1F
100
AcDbEntity
  8
inside cuts
  6
Continuous
 62
     4
370
     0
100
AcDbLine
 10
14.87763240643432
 20
44.46902155040208
 30
0.0
 11
14.73843815819399
 21
44.32982730216176
 31
0.0
  0
SPLINE
  5
110
330
1F
100
AcDbEntity
  8
inside cuts
  6
Continuous
 62
     4
370
     0
100
AcDbSpline
210
0.0
220
0.0
230
1.0
 70
    12
 71
     2
 72
     6
 73
     3
 74
     0
 42
0.0000000001
 43
0.0000000001
 12
1.0
 22
0.0
 32
0.0
 13
1.0
 23
0.0
 33
0.0
 40
95.093213484842
 40
95.093213484842
 40
95.093213484842
 40
96.40168682506209
 40
96.40168682506209
 40
96.40168682506209
 10
14.73843815819399
 20
44.32982730216176
 30
0.0
 41
1.0
 10
14.59924390986067
 20
44.19063305391603
 30
0.0
 41
0.7071067811870935
 10
14.46004966162613
 20
44.32982730216176
 30
0.0
 41
1.0
  0
SPLINE
  5
111
330
1F
100
AcDbEntity
  8
inside cuts
  6
Continuous
 62
     4
370
     0
100
AcDbSpline
210
0.0
220
0.0
230
1.0
 70
    12
 71
     2
 72
     6
 73
     3
 74
     0
 42
0.0000000001
 43
0.0000000001
 12
1.0
 22
0.0
 32
0.0
 13
1.0
 23
0.0
 33
0.0
 40
47.54660674241742
 40
47.54660674241742
 40
47.54660674241742
 40
48.85508008263751
 40
48.85508008263751
 40
48.85508008263751
 10
40.0578719168942
 20
18.73200504693731
 30
0.0
 41
1.0
 10
39.91867766864367
 20
18.87119929522703
 30
0.0
 41
0.7071067811870593
 10
40.0578719168942
 20
19.01039354346163
 30
0.0
 41
1.0
  0
SPLINE
  5
112
330
1F
100
AcDbEntity
  8
inside cuts
  6
Continuous
 62
     4
370
     0
100
AcDbSpline
210
0.0
220
0.0
230
1.0
 70
    12
 71
     2
 72
     6
 73
     3
 74
     0
 42
0.0000000001
 43
0.0000000001
 12
1.0
 22
0.0
 32
0.0
 13
1.0
 23
0.0
 33
0.0
 40
48.85508008263751
 40
48.85508008263751
 40
48.85508008263751
 40
50.16355342285715
 40
50.16355342285715
 40
50.16355342285715
 10
40.0578719168942
 20
19.01039354346163
 30
0.0
 41
1.0
 10
40.19706616516557
 20
19.14958779165919
 30
0.0
 41
0.7071067811860018
 10
40.0578719168942
 20
19.28878203998584
 30
0.0
 41
1.0
  0
LINE
  5
113
330
1F
100
AcDbEntity
  8
inside cuts
  6
Continuous
 62
     4
370
     0
100
AcDbLine
 10
40.0578719168942
 20
19.28878203998584
 30
0.0
 11
38.10915244126807
 21
21.23750151561191
 31
0.0
  0
SPLINE
  5
114
330
1F
100
AcDbEntity
  8
inside cuts
  6
Continuous
 62
     4
370
     0
100
AcDbSpline
210
0.0
220
0.0
230
1.0
 70
    12
 71
     2
 72
     6
 73
     3
 74
     0
 42
0.0000000001
 43
0.0000000001
 12
1.0
 22
0.0
 32
0.0
 13
1.0
 23
0.0
 33
0.0
 40
61.82555342285715
 40
61.82555342285715
 40
61.82555342285715
 40
63.13402676307779
 40
63.13402676307779
 40
63.13402676307779
 10
38.10915244126807
 20
21.23750151561191
 30
0.0
 41
1.0
 10
37.96995819294651
 20
21.37669576387853
 30
0.0
 41
0.7071067811860017
 10
37.83076394470017
 20
21.23750151561191
 30
0.0
 41
1.0
  0
SPLINE
  5
115
330
1F
100
AcDbEntity
  8
inside cuts
  6
Continuous
 62
     4
370
     0
100
AcDbSpline
210
0.0
220
0.0
230
1.0
 70
    12
 71
     2
 72
     6
 73
     3
 74
     0
 42
0.0000000001
 43
0.0000000001
 12
1.0
 22
0.0
 32
0.0
 13
1.0
 23
0.0
 33
0.0
 40
63.13402676307779
 40
63.13402676307779
 40
63.13402676307779
 40
64.44250010329687
 40
64.44250010329687
 40
64.44250010329687
 10
37.83076394470017
 20
21.23750151561191
 30
0.0
 41
1.0
 10
37.69156969641444
 20
21.09830726736221
 30
0.0
 41
0.7071067811870935
 10
37.55237544821954
 20
21.23750151561191
 30
0.0
 41
1.0
  0
SPLINE
  5
116
330
1F
100
AcDbEntity
  8
inside cuts
  6
Continuous
 62
     4
370
     0
100
AcDbSpline
210
0.0
220
0.0
230
1.0
 70
    12
 71
     2
 72
     6
 73
     3
 74
     0
 42
0.0000000001
 43
0.0000000001
 12
1.0
 22
0.0
 32
0.0
 13
1.0
 23
0.0
 33
0.0
 40
64.44250010329687
 40
64.44250010329687
 40
64.44250010329687
 40
65.75097344351724
 40
65.75097344351724
 40
65.75097344351724
 10
37.55237544821954
 20
21.23750151561191
 30
0.0
 41
1.0
 10
37.41318119995069
 20
21.37669576392147
 30
0.0
 41
0.7071067811865988
 10
37.55237544821954
 20
21.51589001213624
 30
0.0
 41
1.0
  0
LINE
  5
117
330
1F
100
AcDbEntity
  8
inside cuts
  6
Continuous
 62
     4
370
     0
100
AcDbLine
 10
37.55237544821954
 20
21.51589001213624
 30
0.0
 11
37.69156969645984
 21
21.65508426042026
 31
0.0
  0
LINE
  5
118
330
1F
100
AcDbEntity
  8
inside cuts
  6
Continuous
 62
     4
370
     0
100
AcDbLine
 10
37.69156969645984
 20
21.65508426042026
 30
0.0
 11
38.23442726463195
 21
22.19794182863599
 31
0.0
  0
LINE
  5
119
330
1F
100
AcDbEntity
  8
inside cuts
  6
Continuous
 62
     4
370
     0
100
AcDbLine
 10
38.23442726463195
 20
22.19794182863599
 30
0.0
 11
38.37362151295956
 21
22.33713607687624
 31
0.0
  0
SPLINE
  5
11A
330
1F
100
AcDbEntity
  8
inside cuts
  6
Continuous
 62
     4
370
     0
100
AcDbSpline
210
0.0
220
0.0
230
1.0
 70
    12
 71
     2
 72
     6
 73
     3
 74
     0
 42
0.0000000001
 43
0.0000000001
 12
1.0
 22
0.0
 32
0.0
 13
1.0
 23
0.0
 33
0.0
 40
70.66567344351662
 40
70.66567344351662
 40
70.66567344351662
 40
71.9741467837357
 40
71.9741467837357
 40
71.9741467837357
 10
38.37362151295956
 20
22.33713607687624
 30
0.0
 41
1.0
 10
38.51281576118254
 20
22.4763303251379
 30
0.0
 41
0.7071067811870935
 10
38.65201000944019
 20
22.33713607687624
 30
0.0
 41
1.0
  0
SPLINE
  5
11B
330
1F
100
AcDbEntity
  8
inside cuts
  6
Continuous
 62
     4
370
     0
100
AcDbSpline
210
0.0
220
0.0
230
1.0
 70
    12
 71
     2
 72
     6
 73
     3
 74
     0
 42
0.0000000001
 43
0.0000000001
 12
1.0
 22
0.0
 32
0.0
 13
1.0
 23
0.0
 33
0.0
 40
71.9741467837357
 40
71.9741467837357
 40
71.9741467837357
 40
73.28262012395608
 40
73.28262012395608
 40
73.28262012395608
 10
38.65201000944019
 20
22.33713607687624
 30
0.0
 41
1.0
 10
38.79120425768905
 20
22.19794182859938
 30
0.0
 41
0.707106781186539
 10
38.65201000944019
 20
22.05874758035202
 30
0.0
 41
1.0
  0
SPLINE
  5
11C
330
1F
100
AcDbEntity
  8
inside cuts
  6
Continuous
 62
     4
370
     0
100
AcDbSpline
210
0.0
220
0.0
230
1.0
 70
    12
 71
     2
 72
     6
 73
     3
 74
     0
 42
0.0000000001
 43
0.0000000001
 12
1.0
 22
0.0
 32
0.0
 13
1.0
 23
0.0
 33
0.0
 40
73.28262012395608
 40
73.28262012395608
 40
73.28262012395608
 40
74.59109346417645
 40
74.59109346417645
 40
74.59109346417645
 10
38.65201000944019
 20
22.05874758035202
 30
0.0
 41
1.0
 10
38.51281576120918
 20
21.91955333211675
 30
0.0
 41
0.707106781186556
 10
38.65201000944019
 20
21.78035908382781
 30
0.0
 41
1.0
  0
LINE
  5
11D
330
1F
100
AcDbEntity
  8
inside cuts
  6
Continuous
 62
     4
370
     0
100
AcDbLine
 10
38.65201000944019
 20
21.78035908382781
 30
0.0
 11
40.60072948506631
 21
19.83163960820157
 31
0.0
  0
SPLINE
  5
11E
330
1F
100
AcDbEntity
  8
inside cuts
  6
Continuous
 62
     4
370
     0
100
AcDbSpline
210
0.0
220
0.0
230
1.0
 70
    12
 71
     2
 72
     6
 73
     3
 74
     0
 42
0.0000000001
 43
0.0000000001
 12
1.0
 22
0.0
 32
0.0
 13
1.0
 23
0.0
 33
0.0
 40
86.25309346417708
 40
86.25309346417708
 40
86.25309346417708
 40
87.56156680439673
 40
87.56156680439673
 40
87.56156680439673
 10
40.60072948506631
 20
19.83163960820157
 30
0.0
 41
1.0
 10
40.73992373333807
 20
19.69244535995522
 30
0.0
 41
0.7071067811860016
 10
40.87911798163425
 20
19.83163960820157
 30
0.0
 41
1.0
  0
SPLINE
  5
11F
330
1F
100
AcDbEntity
  8
inside cuts
  6
Continuous
 62
     4
370
     0
100
AcDbSpline
210
0.0
220
0.0
230
1.0
 70
    12
 71
     2
 72
     6
 73
     3
 74
     0
 42
0.0000000001
 43
0.0000000001
 12
1.0
 22
0.0
 32
0.0
 13
1.0
 23
0.0
 33
0.0
 40
87.56156680439673
 40
87.56156680439673
 40
87.56156680439673
 40
88.87004014461608
 40
88.87004014461608
 40
88.87004014461608
 10
40.87911798163425
 20
19.83163960820157
 30
0.0
 41
1.0
 10
41.01831222984126
 20
19.97083385643875
 30
0.0
 41
0.7071067811865476
 10
41.15750647811483
 20
19.83163960820157
 30
0.0
 41
1.0
  0
SPLINE
  5
120
330
1F
100
AcDbEntity
  8
inside cuts
  6
Continuous
 62
     4
370
     0
100
AcDbSpline
210
0.0
220
0.0
230
1.0
 70
    12
 71
     2
 72
     6
 73
     3
 74
     0
 42
0.0000000001
 43
0.0000000001
 12
1.0
 22
0.0
 32
0.0
 13
1.0
 23
0.0
 33
0.0
 40
88.87004014461608
 40
88.87004014461608
 40
88.87004014461608
 40
90.17851348483646
 40
90.17851348483646
 40
90.17851348483646
 10
41.15750647811483
 20
19.83163960820157
 30
0.0
 41
1.0
 10
41.2967007264166
 20
19.69244535987481
 30
0.0
 41
0.7071067811866009
 10
41.15750647811483
 20
19.55325111167735
 30
0.0
 41
1.0
  0
LINE
  5
121
330
1F
100
AcDbEntity
  8
inside cuts
  6
Continuous
 62
     4
370
     0
100
AcDbLine
 10
41.15750647811483
 20
19.55325111167735
 30
0.0
 11
41.01831222987455
 21
19.41405686339339
 31
0.0
  0
LINE
  5
122
330
1F
100
AcDbEntity
  8
inside cuts
  6
Continuous
 62
     4
370
     0
100
AcDbLine
 10
41.01831222987455
 20
19.41405686339339
 30
0.0
 11
40.47545466170244
 21
18.87119929517761
 31
0.0
  0
LINE
  5
123
330
1F
100
AcDbEntity
  8
inside cuts
  6
Continuous
 62
     4
370
     0
100
AcDbLine
 10
40.47545466170244
 20
18.87119929517761
 30
0.0
 11
40.33626041337483
 21
18.73200504693731
 31
0.0
  0
SPLINE
  5
124
330
1F
100
AcDbEntity
  8
inside cuts
  6
Continuous
 62
     4
370
     0
100
AcDbSpline
210
0.0
220
0.0
230
1.0
 70
    12
 71
     2
 72
     6
 73
     3
 74
     0
 42
0.0000000001
 43
0.0000000001
 12
1.0
 22
0.0
 32
0.0
 13
1.0
 23
0.0
 33
0.0
 40
95.09321348483586
 40
95.09321348483586
 40
95.09321348483586
 40
96.40168682505494
 40
96.40168682505494
 40
96.40168682505494
 10
40.33626041337483
 20
18.73200504693731
 30
0.0
 41
1.0
 10
40.19706616510306
 20
18.5928107986737
 30
0.0
 41
0.7071067811870935
 10
40.0578719168942
 20
18.73200504693731
 30
0.0
 41
1.0
  0
SPLINE
  5
125
330
1F
100
AcDbEntity
  8
outside cuts
  6
Continuous
 62
     1
370
     0
100
AcDbSpline
210
0.0
220
0.0
230
1.0
 70
    12
 71
     2
 72
     8
 73
     5
 74
     0
 42
0.0000000001
 43
0.0000000001
 12
1.0
 22
0.0
 32
0.0
 13
1.0
 23
0.0
 33
0.0
 40
551.1017068743879
 40
551.1017068743879
 40
551.1017068743879
 40
565.8307452901388
 40
565.8307452901388
 40
580.5597837058897
 40
580.5597837058897
 40
580.5597837058897
 10
3.208281237791912
 20
20.18616763164568
 30
0.0
 41
1.0
 10
2.842852933596868
 20
18.35902611064506
 30
0.0
 41
0.9038774545273168
 10
4.024180979284996
 20
16.91803755004516
 30
0.0
 41
1.0
 10
5.205509025067758
 20
15.47704898948779
 30
0.0
 41
0.9038774545273168
 10
7.068835078965936
 20
15.47704898948503
 30
0.0
 41
1.0
  0
LINE
  5
126
330
1F
100
AcDbEntity
  8
outside cuts
  6
Continuous
 62
     1
370
     0
100
AcDbLine
 10
7.068835078965936
 20
15.47704898948503
 30
0.0
 11
40.47545466170244
 21
15.47704898948503
 31
0.0
  0
SPLINE
  5
127
330
1F
100
AcDbEntity
  8
outside cuts
  6
Continuous
 62
     1
370
     0
100
AcDbSpline
210
0.0
220
0.0
230
1.0
 70
    12
 71
     2
 72
     8
 73
     5
 74
     0
 42
0.0000000001
 43
0.0000000001
 12
1.0
 22
0.0
 32
0.0
 13
1.0
 23
0.0
 33
0.0
 40
721.924571400704
 40
721.924571400704
 40
721.924571400704
 40
736.6536098164552
 40
736.6536098164552
 40
751.3826482322063
 40
751.3826482322063
 40
751.3826482322063
 10
40.47545466170244
 20
15.47704898948503
 30
0.0
 41
1.0
 10
42.33878071560466
 20
15.4770489894891
 30
0.0
 41
0.9038774545273142
 10
43.52010876138338
 20
16.91803755004516
 30
0.0
 41
1.0
 10
44.70143680707562
 20
18.35902611064632
 30
0.0
 41
0.9038774545273142
 10
44.33600850287645
 20
20.18616763164568
 30
0.0
 41
1.0
  0
LINE
  5
128
330
1F
100
AcDbEntity
  8
outside cuts
  6
Continuous
 62
     1
370
     0
100
AcDbLine
 10
44.33600850287645
 20
20.18616763164568
 30
0.0
 11
38.76823857239127
 21
48.0250172838969
 31
0.0
  0
SPLINE
  5
129
330
1F
100
AcDbEntity
  8
outside cuts
  6
Continuous
 62
     1
370
     0
100
AcDbSpline
210
0.0
220
0.0
230
1.0
 70
    12
 71
     2
 72
     6
 73
     3
 74
     0
 42
0.0000000001
 43
0.0000000001
 12
1.0
 22
0.0
 32
0.0
 13
1.0
 23
0.0
 33
0.0
 40
871.5196167306669
 40
871.5196167306669
 40
871.5196167306669
 40
894.4004735079701
 40
894.4004735079701
 40
894.4004735079701
 10
38.76823857239127
 20
48.02501728385324
 30
0.0
 41
1.0
 10
38.1352591513056
 20
51.18991438955703
 30
0.0
 41
0.7733421413379498
 10
34.90768473121723
 20
51.18991438955297
 30
0.0
 41
1.0
  0
LINE
  5
12A
330
1F
100
AcDbEntity
  8
outside cuts
  6
Continuous
 62
     1
370
     0
100
AcDbLine
 10
34.90768473121723
 20
51.18991438955297
 30
0.0
 11
12.63660500945115
 21
51.18991438955297
 31
0.0
  0
SPLINE
  5
12B
330
1F
100
AcDbEntity
  8
outside cuts
  6
Continuous
 62
     1
370
     0
100
AcDbSpline
210
0.0
220
0.0
230
1.0
 70
    12
 71
     2
 72
     6
 73
     3
 74
     0
 42
0.0000000001
 43
0.0000000001
 12
1.0
 22
0.0
 32
0.0
 13
1.0
 23
0.0
 33
0.0
 40
988.6436653045133
 40
988.6436653045133
 40
988.6436653045133
 40
1011.524522081817
 40
1011.524522081817
 40
1011.524522081817
 10
12.63660500945115
 20
51.18991438955297
 30
0.0
 41
1.0
 10
9.409030589380857
 20
51.18991438958078
 30
0.0
 41
0.7733421413379057
 10
8.776051168189799
 20
48.0250172838969
 30
0.0
 41
1.0
  0
LINE
  5
12C
330
1F
100
AcDbEntity
  8
outside cuts
  6
Continuous
 62
     1
370
     0
100
AcDbLine
 10
8.776051168189799
 20
48.0250172838969
 30
0.0
 11
3.208281237791912
 21
20.18616763164568
 31
0.0
  0
ENDSEC
  0
SECTION
  2
OBJECTS
  0
DICTIONARY
  5
C
330
0
100
AcDbDictionary
281
     1
  3
ACAD_GROUP
350
D
  3
ACAD_LAYOUT
350
1A
  3
ACAD_MATERIAL
350
3B
  3
ACAD_MLEADERSTYLE
350
154
  3
ACAD_MLINESTYLE
350
17
  3
ACAD_PLOTSETTINGS
350
19
  3
ACAD_PLOTSTYLENAME
350
E
  3
ACAD_TABLESTYLE
350
153
  3
ACAD_VISUALSTYLE
350
2A
  0
DICTIONARY
  5
D
102
{ACAD_REACTORS
330
C
102
}
330
C
100
AcDbDictionary
281
     1
  0
DICTIONARY
  5
1A
102
{ACAD_REACTORS
330
C
102
}
330
C
100
AcDbDictionary
281
     1
  3
Layout1
350
1E
  3
Layout2
350
26
  3
Model
350
22
  0
DICTIONARY
  5
3B
102
{ACAD_REACTORS
330
C
102
}
330
C
100
AcDbDictionary
281
     1
  3
ByBlock
350
3D
  3
ByLayer
350
3C
  3
Global
350
3E
  0
DICTIONARY
  5
154
102
{ACAD_REACTORS
330
C
102
}
330
C
100
AcDbDictionary
281
     1
  0
DICTIONARY
  5
17
102
{ACAD_REACTORS
330
C
102
}
330
C
100
AcDbDictionary
281
     1
  3
Standard
350
18
  0
DICTIONARY
  5
19
102
{ACAD_REACTORS
330
C
102
}
330
C
100
AcDbDictionary
281
     1
  0
ACDBDICTIONARYWDFLT
  5
E
102
{ACAD_REACTORS
330
C
102
}
330
C
100
AcDbDictionary
281
     1
  3
Normal
350
F
100
AcDbDictionaryWithDefault
340
F
  0
DICTIONARY
  5
153
102
{ACAD_REACTORS
330
C
102
}
330
C
100
AcDbDictionary
281
     1
  0
DICTIONARY
  5
2A
102
{ACAD_REACTORS
330
C
102
}
330
C
100
AcDbDictionary
281
     1
  3
2dWireframe
350
2F
  3
3D Hidden
350
31
  3
3dWireframe
350
30
  3
Basic
350
32
  3
Brighten
350
36
  3
ColorChange
350
3A
  3
Conceptual
350
34
  3
Dim
350
35
  3
Facepattern
350
39
  3
Flat
350
2B
  3
FlatWithEdges
350
2C
  3
Gouraud
350
2D
  3
GouraudWithEdges
350
2E
  3
Linepattern
350
38
  3
Realistic
350
33
  3
Thicken
350
37
  0
LAYOUT
  5
1E
102
{ACAD_REACTORS
330
1A
102
}
330
1A
100
AcDbPlotSettings
  1

  2
none_device
  4

  6

 40
0.0
 41
0.0
 42
0.0
 43
0.0
 44
0.0
 45
0.0
 46
0.0
 47
0.0
 48
0.0
 49
0.0
140
0.0
141
0.0
142
1.0
143
1.0
 70
   688
 72
     0
 73
     0
 74
     5
  7

 75
    16
 76
     0
 77
     2
 78
   300
147
1.0
148
0.0
149
0.0
100
AcDbLayout
  1
Layout1
 70
     1
 71
     1
 10
0.0
 20
0.0
 11
12.0
 21
9.0
 12
0.0
 22
0.0
 32
0.0
 14
1.000000000000000E+20
 24
1.000000000000000E+20
 34
1.000000000000000E+20
 15
-1.000000000000000E+20
 25
-1.000000000000000E+20
 35
-1.000000000000000E+20
146
0.0
 13
0.0
 23
0.0
 33
0.0
 16
1.0
 26
0.0
 36
0.0
 17
0.0
 27
1.0
 37
0.0
 76
     0
330
1B
  0
LAYOUT
  5
26
102
{ACAD_REACTORS
330
1A
102
}
330
1A
100
AcDbPlotSettings
  1

  2
none_device
  4

  6

 40
0.0
 41
0.0
 42
0.0
 43
0.0
 44
0.0
 45
0.0
 46
0.0
 47
0.0
 48
0.0
 49
0.0
140
0.0
141
0.0
142
1.0
143
1.0
 70
   688
 72
     0
 73
     0
 74
     5
  7

 75
    16
 76
     0
 77
     2
 78
   300
147
1.0
148
0.0
149
0.0
100
AcDbLayout
  1
Layout2
 70
     1
 71
     2
 10
0.0
 20
0.0
 11
0.0
 21
0.0
 12
0.0
 22
0.0
 32
0.0
 14
0.0
 24
0.0
 34
0.0
 15
0.0
 25
0.0
 35
0.0
146
0.0
 13
0.0
 23
0.0
 33
0.0
 16
1.0
 26
0.0
 36
0.0
 17
0.0
 27
1.0
 37
0.0
 76
     0
330
23
  0
LAYOUT
  5
22
102
{ACAD_REACTORS
330
1A
102
}
330
1A
100
AcDbPlotSettings
  1

  2
none_device
  4

  6

 40
0.0
 41
0.0
 42
0.0
 43
0.0
 44
0.0
 45
0.0
 46
0.0
 47
0.0
 48
0.0
 49
0.0
140
0.0
141
0.0
142
1.0
143
1.0
 70
  1712
 72
     0
 73
     0
 74
     0
  7

 75
     0
 76
     0
 77
     2
 78
   300
147
1.0
148
0.0
149
0.0
100
AcDbLayout
  1
Model
 70
     1
 71
     0
 10
0.0
 20
0.0
 11
12.0
 21
9.0
 12
0.0
 22
0.0
 32
0.0
 14
0.0
 24
0.0
 34
0.0
 15
48.0
 25
96.0
 35
0.0
146
0.0
 13
0.0
 23
0.0
 33
0.0
 16
1.0
 26
0.0
 36
0.0
 17
0.0
 27
1.0
 37
0.0
 76
     0
330
1F
331
29
  0
MATERIAL
  5
3D
102
{ACAD_REACTORS
330
3B
102
}
102
{ACAD_XDICTIONARY
360
14F
102
}
330
3B
100
AcDbMaterial
  1
ByBlock
  0
MATERIAL
  5
3C
102
{ACAD_REACTORS
330
3B
102
}
102
{ACAD_XDICTIONARY
360
14D
102
}
330
3B
100
AcDbMaterial
  1
ByLayer
  0
MATERIAL
  5
3E
102
{ACAD_REACTORS
330
3B
102
}
102
{ACAD_XDICTIONARY
360
151
102
}
330
3B
100
AcDbMaterial
  1
Global
  0
MLINESTYLE
  5
18
102
{ACAD_REACTORS
330
17
102
}
330
17
100
AcDbMlineStyle
  2
Standard
 70
     0
  3

 62
   256
 51
90.0
 52
90.0
 71
     2
 49
0.5
 62
   256
  6
BYLAYER
 49
-0.5
 62
   256
  6
BYLAYER
  0
ACDBPLACEHOLDER
  5
F
102
{ACAD_REACTORS
330
E
102
}
330
E
  0
VISUALSTYLE
  5
2F
102
{ACAD_REACTORS
330
2A
102
}
102
{ACAD_XDICTIONARY
360
135
102
}
330
2A
100
AcDbVisualStyle
  2
2dWireframe
 70
     4
 71
     0
 72
     2
 73
     0
 90
        0
 40
-0.6
 41
-30.0
 62
     5
 63
     7
421
 16777215
 74
     1
 91
        4
 64
     7
 65
   257
 75
     1
175
     1
 42
1.0
 92
        0
 66
   257
 43
1.0
 76
     1
 77
     6
 78
     2
 67
     7
 79
     5
170
     0
171
     0
290
     0
174
     0
 93
        1
 44
0.0
173
     0
291
     0
 45
0.0
1001
ACAD
1000
AcDbSavedByObjectVersion
1070
     0
  0
VISUALSTYLE
  5
31
102
{ACAD_REACTORS
330
2A
102
}
102
{ACAD_XDICTIONARY
360
139
102
}
330
2A
100
AcDbVisualStyle
  2
3D Hidden
 70
     6
 71
     1
 72
     2
 73
     2
 90
        0
 40
-0.6
 41
-30.0
 62
     5
 63
     7
421
 16777215
 74
     2
 91
        2
 64
     7
 65
   257
 75
     2
175
     1
 42
40.0
 92
        0
 66
   257
 43
1.0
 76
     1
 77
     6
 78
     2
 67
     7
 79
     3
170
     0
171
     0
290
     0
174
     0
 93
        1
 44
0.0
173
     0
291
     0
 45
0.0
1001
ACAD
1000
AcDbSavedByObjectVersion
1070
     0
  0
VISUALSTYLE
  5
30
102
{ACAD_REACTORS
330
2A
102
}
102
{ACAD_XDICTIONARY
360
137
102
}
330
2A
100
AcDbVisualStyle
  2
3dWireframe
 70
     5
 71
     0
 72
     2
 73
     0
 90
        0
 40
-0.6
 41
-30.0
 62
     5
 63
     7
421
 16777215
 74
     1
 91
        4
 64
     7
 65
   257
 75
     1
175
     1
 42
1.0
 92
        0
 66
   257
 43
1.0
 76
     1
 77
     6
 78
     2
 67
     7
 79
     5
170
     0
171
     0
290
     0
174
     0
 93
        1
 44
0.0
173
     0
291
     0
 45
0.0
1001
ACAD
1000
AcDbSavedByObjectVersion
1070
     0
  0
VISUALSTYLE
  5
32
102
{ACAD_REACTORS
330
2A
102
}
102
{ACAD_XDICTIONARY
360
13B
102
}
330
2A
100
AcDbVisualStyle
  2
Basic
 70
     7
 71
     1
 72
     0
 73
     1
 90
        0
 40
-0.6
 41
-30.0
 62
     5
 63
     7
421
 16777215
 74
     0
 91
        4
 64
     7
 65
   257
 75
     1
175
     1
 42
1.0
 92
        8
 66
     7
 43
1.0
 76
     1
 77
     6
 78
     2
 67
     7
 79
     5
170
     0
171
     0
290
     0
174
     0
 93
        1
 44
0.0
173
     0
291
     1
 45
0.0
1001
ACAD
1000
AcDbSavedByObjectVersion
1070
     0
  0
VISUALSTYLE
  5
36
102
{ACAD_REACTORS
330
2A
102
}
102
{ACAD_XDICTIONARY
360
143
102
}
330
2A
100
AcDbVisualStyle
  2
Brighten
 70
    12
 71
     2
 72
     2
 73
     0
 90
        0
 40
-0.6
 41
-30.0
 62
     5
 63
     7
421
 16777215
 74
     1
 91
        4
 64
     7
 65
   257
 75
     1
175
     1
 42
1.0
 92
        8
 66
     7
 43
1.0
 76
     1
 77
     6
 78
     2
 67
     7
 79
     5
170
     0
171
     0
290
     0
174
     0
 93
        1
 44
50.0
173
     0
291
     1
 45
0.0
1001
ACAD
1000
AcDbSavedByObjectVersion
1070
     0
  0
VISUALSTYLE
  5
3A
102
{ACAD_REACTORS
330
2A
102
}
102
{ACAD_XDICTIONARY
360
14B
102
}
330
2A
100
AcDbVisualStyle
  2
ColorChange
 70
    16
 71
     2
 72
     2
 73
     3
 90
        0
 40
-0.6
 41
-30.0
 62
     5
 63
     8
421
  8421504
 74
     1
 91
        4
 64
     7
 65
   257
 75
     1
175
     1
 42
1.0
 92
        8
 66
     8
424
  8421504
 43
1.0
 76
     1
 77
     6
 78
     2
 67
     7
 79
     5
170
     0
171
     0
290
     0
174
     0
 93
        1
 44
0.0
173
     0
291
     1
 45
0.0
1001
ACAD
1000
AcDbSavedByObjectVersion
1070
     0
  0
VISUALSTYLE
  5
34
102
{ACAD_REACTORS
330
2A
102
}
102
{ACAD_XDICTIONARY
360
13F
102
}
330
2A
100
AcDbVisualStyle
  2
Conceptual
 70
     9
 71
     3
 72
     2
 73
     0
 90
        0
 40
-0.6
 41
-30.0
 62
     5
 63
     7
421
 16777215
 74
     2
 91
        2
 64
     7
 65
   257
 75
     1
175
     1
 42
40.0
 92
        8
 66
     7
 43
1.0
 76
     1
 77
     6
 78
     2
 67
     7
 79
     3
170
     0
171
     0
290
     0
174
     0
 93
        1
 44
0.0
173
     0
291
     0
 45
0.0
1001
ACAD
1000
AcDbSavedByObjectVersion
1070
     0
  0
VISUALSTYLE
  5
35
102
{ACAD_REACTORS
330
2A
102
}
102
{ACAD_XDICTIONARY
360
141
102
}
330
2A
100
AcDbVisualStyle
  2
Dim
 70
    11
 71
     2
 72
     2
 73
     0
 90
        0
 40
-0.6
 41
-30.0
 62
     5
 63
     7
421
 16777215
 74
     1
 91
        4
 64
     7
 65
   257
 75
     1
175
     1
 42
1.0
 92
        8
 66
     7
 43
1.0
 76
     1
 77
     6
 78
     2
 67
     7
 79
     5
170
     0
171
     0
290
     0
174
     0
 93
        1
 44
-50.0
173
     0
291
     1
 45
0.0
1001
ACAD
1000
AcDbSavedByObjectVersion
1070
     0
  0
VISUALSTYLE
  5
39
102
{ACAD_REACTORS
330
2A
102
}
102
{ACAD_XDICTIONARY
360
149
102
}
330
2A
100
AcDbVisualStyle
  2
Facepattern
 70
    15
 71
     2
 72
     2
 73
     0
 90
        0
 40
-0.6
 41
-30.0
 62
     5
 63
     7
421
 16777215
 74
     1
 91
        4
 64
     7
 65
   257
 75
     1
175
     1
 42
1.0
 92
        8
 66
     7
 43
1.0
 76
     1
 77
     6
 78
     2
 67
     7
 79
     5
170
     0
171
     0
290
     0
174
     0
 93
        1
 44
0.0
173
     0
291
     1
 45
0.0
1001
ACAD
1000
AcDbSavedByObjectVersion
1070
     0
  0
VISUALSTYLE
  5
2B
102
{ACAD_REACTORS
330
2A
102
}
102
{ACAD_XDICTIONARY
360
12D
102
}
330
2A
100
AcDbVisualStyle
  2
Flat
 70
     0
 71
     2
 72
     1
 73
     1
 90
        2
 40
-0.6
 41
30.0
 62
     5
 63
     7
421
 16777215
 74
     0
 91
        4
 64
     7
 65
   257
 75
     1
175
     1
 42
1.0
 92
        8
 66
     7
 43
1.0
 76
     1
 77
     6
 78
     2
 67
     7
 79
     5
170
     0
171
     0
290
     0
174
     0
 93
       13
 44
0.0
173
     0
291
     1
 45
0.0
1001
ACAD
1000
AcDbSavedByObjectVersion
1070
     0
  0
VISUALSTYLE
  5
2C
102
{ACAD_REACTORS
330
2A
102
}
102
{ACAD_XDICTIONARY
360
12F
102
}
330
2A
100
AcDbVisualStyle
  2
FlatWithEdges
 70
     1
 71
     2
 72
     1
 73
     1
 90
        2
 40
-0.6
 41
30.0
 62
     5
 63
     7
421
 16777215
 74
     1
 91
        4
 64
     7
 65
   257
 75
     1
175
     1
 42
1.0
 92
        0
 66
   257
 43
1.0
 76
     1
 77
     6
 78
     2
 67
     7
 79
     5
170
     0
171
     0
290
     0
174
     0
 93
       13
 44
0.0
173
     0
291
     1
 45
0.0
1001
ACAD
1000
AcDbSavedByObjectVersion
1070
     0
  0
VISUALSTYLE
  5
2D
102
{ACAD_REACTORS
330
2A
102
}
102
{ACAD_XDICTIONARY
360
131
102
}
330
2A
100
AcDbVisualStyle
  2
Gouraud
 70
     2
 71
     2
 72
     2
 73
     1
 90
        2
 40
-0.6
 41
30.0
 62
     5
 63
     7
421
 16777215
 74
     0
 91
        4
 64
     7
 65
   257
 75
     1
175
     1
 42
1.0
 92
        0
 66
     7
 43
1.0
 76
     1
 77
     6
 78
     2
 67
     7
 79
     5
170
     0
171
     0
290
     0
174
     0
 93
       13
 44
0.0
173
     0
291
     1
 45
0.0
1001
ACAD
1000
AcDbSavedByObjectVersion
1070
     0
  0
VISUALSTYLE
  5
2E
102
{ACAD_REACTORS
330
2A
102
}
102
{ACAD_XDICTIONARY
360
133
102
}
330
2A
100
AcDbVisualStyle
  2
GouraudWithEdges
 70
     3
 71
     2
 72
     2
 73
     1
 90
        2
 40
-0.6
 41
30.0
 62
     5
 63
     7
421
 16777215
 74
     1
 91
        4
 64
     7
 65
   257
 75
     1
175
     1
 42
1.0
 92
        0
 66
   257
 43
1.0
 76
     1
 77
     6
 78
     2
 67
     7
 79
     5
170
     0
171
     0
290
     0
174
     0
 93
       13
 44
0.0
173
     0
291
     1
 45
0.0
1001
ACAD
1000
AcDbSavedByObjectVersion
1070
     0
  0
VISUALSTYLE
  5
38
102
{ACAD_REACTORS
330
2A
102
}
102
{ACAD_XDICTIONARY
360
147
102
}
330
2A
100
AcDbVisualStyle
  2
Linepattern
 70
    14
 71
     2
 72
     2
 73
     0
 90
        0
 40
-0.6
 41
-30.0
 62
     5
 63
     7
421
 16777215
 74
     1
 91
        4
 64
     7
 65
   257
 75
     7
175
     7
 42
1.0
 92
        8
 66
     7
 43
1.0
 76
     1
 77
     6
 78
     2
 67
     7
 79
     5
170
     0
171
     0
290
     0
174
     0
 93
        1
 44
0.0
173
     0
291
     1
 45
0.0
1001
ACAD
1000
AcDbSavedByObjectVersion
1070
     0
  0
VISUALSTYLE
  5
33
102
{ACAD_REACTORS
330
2A
102
}
102
{ACAD_XDICTIONARY
360
13D
102
}
330
2A
100
AcDbVisualStyle
  2
Realistic
 70
     8
 71
     2
 72
     2
 73
     0
 90
        0
 40
-0.6
 41
-30.0
 62
     5
 63
     7
421
 16777215
 74
     1
 91
        0
 64
     7
 65
   257
 75
     1
175
     1
 42
1.0
 92
        8
 66
     8
424
  7895160
 43
1.0
 76
     1
 77
     6
 78
     2
 67
     7
 79
     5
170
     0
171
     0
290
     0
174
     0
 93
       13
 44
0.0
173
     0
291
     0
 45
0.0
1001
ACAD
1000
AcDbSavedByObjectVersion
1070
     0
  0
VISUALSTYLE
  5
37
102
{ACAD_REACTORS
330
2A
102
}
102
{ACAD_XDICTIONARY
360
145
102
}
330
2A
100
AcDbVisualStyle
  2
Thicken
 70
    13
 71
     2
 72
     2
 73
     0
 90
        0
 40
-0.6
 41
-30.0
 62
     5
 63
     7
421
 16777215
 74
     1
 91
        4
 64
     7
 65
   257
 75
     1
175
     1
 42
1.0
 92
       12
 66
     7
 43
1.0
 76
     1
 77
     6
 78
     2
 67
     7
 79
     5
170
     0
171
     0
290
     0
174
     0
 93
        1
 44
0.0
173
     0
291
     1
 45
0.0
1001
ACAD
1000
AcDbSavedByObjectVersion
1070
     0
  0
DICTIONARY
  5
14F
330
3D
100
AcDbDictionary
280
     1
281
     1
  3
ACAD_XREC_ROUNDTRIP
360
150
  0
DICTIONARY
  5
14D
330
3C
100
AcDbDictionary
280
     1
281
     1
  3
ACAD_XREC_ROUNDTRIP
360
14E
  0
DICTIONARY
  5
151
330
3E
100
AcDbDictionary
280
     1
281
     1
  3
ACAD_XREC_ROUNDTRIP
360
152
  0
DICTIONARY
  5
135
330
2F
100
AcDbDictionary
280
     1
281
     1
  3
ACAD_XREC_ROUNDTRIP
360
136
  0
DICTIONARY
  5
139
330
31
100
AcDbDictionary
280
     1
281
     1
  3
ACAD_XREC_ROUNDTRIP
360
13A
  0
DICTIONARY
  5
137
330
30
100
AcDbDictionary
280
     1
281
     1
  3
ACAD_XREC_ROUNDTRIP
360
138
  0
DICTIONARY
  5
13B
330
32
100
AcDbDictionary
280
     1
281
     1
  3
ACAD_XREC_ROUNDTRIP
360
13C
  0
DICTIONARY
  5
143
330
36
100
AcDbDictionary
280
     1
281
     1
  3
ACAD_XREC_ROUNDTRIP
360
144
  0
DICTIONARY
  5
14B
330
3A
100
AcDbDictionary
280
     1
281
     1
  3
ACAD_XREC_ROUNDTRIP
360
14C
  0
DICTIONARY
  5
13F
330
34
100
AcDbDictionary
280
     1
281
     1
  3
ACAD_XREC_ROUNDTRIP
360
140
  0
DICTIONARY
  5
141
330
35
100
AcDbDictionary
280
     1
281
     1
  3
ACAD_XREC_ROUNDTRIP
360
142
  0
DICTIONARY
  5
149
330
39
100
AcDbDictionary
280
     1
281
     1
  3
ACAD_XREC_ROUNDTRIP
360
14A
  0
DICTIONARY
  5
12D
330
2B
100
AcDbDictionary
280
     1
281
     1
  3
ACAD_XREC_ROUNDTRIP
360
12E
  0
DICTIONARY
  5
12F
330
2C
100
AcDbDictionary
280
     1
281
     1
  3
ACAD_XREC_ROUNDTRIP
360
130
  0
DICTIONARY
  5
131
330
2D
100
AcDbDictionary
280
     1
281
     1
  3
ACAD_XREC_ROUNDTRIP
360
132
  0
DICTIONARY
  5
133
330
2E
100
AcDbDictionary
280
     1
281
     1
  3
ACAD_XREC_ROUNDTRIP
360
134
  0
DICTIONARY
  5
147
330
38
100
AcDbDictionary
280
     1
281
     1
  3
ACAD_XREC_ROUNDTRIP
360
148
  0
DICTIONARY
  5
13D
330
33
100
AcDbDictionary
280
     1
281
     1
  3
ACAD_XREC_ROUNDTRIP
360
13E
  0
DICTIONARY
  5
145
330
37
100
AcDbDictionary
280
     1
281
     1
  3
ACAD_XREC_ROUNDTRIP
360
146
  0
XRECORD
  5
150
102
{ACAD_REACTORS
330
14F
102
}
330
14F
100
AcDbXrecord
280
     1
102
MATERIAL
148
0.0
149
0.0
149
0.0
 93
        0
 94
      127
282
     0
 72
     1
 77
     1
171
     1
175
     1
179
     1
273
     0
  0
XRECORD
  5
14E
102
{ACAD_REACTORS
330
14D
102
}
330
14D
100
AcDbXrecord
280
     1
102
MATERIAL
148
0.0
149
0.0
149
0.0
 93
        0
 94
      127
282
     0
 72
     1
 77
     1
171
     1
175
     1
179
     1
273
     0
  0
XRECORD
  5
152
102
{ACAD_REACTORS
330
151
102
}
330
151
100
AcDbXrecord
280
     1
102
MATERIAL
148
0.0
149
0.0
149
0.0
 93
        0
 94
      127
282
     0
 72
     1
 77
     1
171
     1
175
     1
179
     1
273
     0
  0
XRECORD
  5
136
102
{ACAD_REACTORS
330
135
102
}
330
135
100
AcDbXrecord
280
     1
102
RTVSPropertyOp0
 70
     1
102
RTVSPropertyOp1
 70
     1
102
RTVSPropertyOp2
 70
     1
102
RTVSPropertyOp3
 70
     1
102
RTVSPropertyOp4
 70
     1
102
RTVSPropertyOp5
 70
     1
102
RTVSPropertyOp6
 70
     1
102
RTVSPropertyOp7
 70
     1
102
RTVSPropertyOp8
 70
     1
102
RTVSPropertyOp9
 70
     1
102
RTVSPropertyOp10
 70
     1
102
RTVSPropertyOp11
 70
     1
102
RTVSPropertyOp12
 70
     1
102
RTVSPropertyOp13
 70
     1
102
RTVSPropertyOp14
 70
     1
102
RTVSPropertyOp15
 70
     1
102
RTVSPropertyOp16
 70
     1
102
RTVSPropertyOp17
 70
     1
102
RTVSPropertyOp18
 70
     1
102
RTVSPropertyOp19
 70
     1
102
RTVSPropertyOp20
 70
     1
102
RTVSPropertyOp21
 70
     1
102
RTVSPropertyOp22
 70
     1
102
RTVSPropertyOp23
 70
     1
102
RTVSPropertyOp24
 70
     1
102
RTVSPropertyOp25
 70
     1
102
RTVSPropertyOp26
 70
     1
102
RTVSPropertyOp27
 70
     1
102
RTVSPropertyOp28
 70
     1
102
RTVSPropertyOp29
 70
     1
102
RTVSPropertyOp30
 70
     1
102
RTVSPropertyOp31
 70
     1
102
RTVSPropertyOp32
 70
     1
  0
XRECORD
  5
13A
102
{ACAD_REACTORS
330
139
102
}
330
139
100
AcDbXrecord
280
     1
102
RTVSPropertyOp0
 70
     1
102
RTVSPropertyOp1
 70
     1
102
RTVSPropertyOp2
 70
     1
102
RTVSPropertyOp3
 70
     1
102
RTVSPropertyOp4
 70
     1
102
RTVSPropertyOp5
 70
     1
102
RTVSPropertyOp6
 70
     1
102
RTVSPropertyOp7
 70
     1
102
RTVSPropertyOp8
 70
     1
102
RTVSPropertyOp9
 70
     1
102
RTVSPropertyOp10
 70
     1
102
RTVSPropertyOp11
 70
     1
102
RTVSPropertyOp12
 70
     1
102
RTVSPropertyOp13
 70
     1
102
RTVSPropertyOp14
 70
     1
102
RTVSPropertyOp15
 70
     1
102
RTVSPropertyOp16
 70
     1
102
RTVSPropertyOp17
 70
     1
102
RTVSPropertyOp18
 70
     1
102
RTVSPropertyOp19
 70
     1
102
RTVSPropertyOp20
 70
     1
102
RTVSPropertyOp21
 70
     1
102
RTVSPropertyOp22
 70
     1
102
RTVSPropertyOp23
 70
     1
102
RTVSPropertyOp24
 70
     1
102
RTVSPropertyOp25
 70
     1
102
RTVSPropertyOp26
 70
     1
102
RTVSPropertyOp27
 70
     1
102
RTVSPropertyOp28
 70
     1
102
RTVSPropertyOp29
 70
     1
102
RTVSPropertyOp30
 70
     1
102
RTVSPropertyOp31
 70
     1
102
RTVSPropertyOp32
 70
     1
  0
XRECORD
  5
138
102
{ACAD_REACTORS
330
137
102
}
330
137
100
AcDbXrecord
280
     1
102
RTVSPropertyOp0
 70
     1
102
RTVSPropertyOp1
 70
     1
102
RTVSPropertyOp2
 70
     1
102
RTVSPropertyOp3
 70
     1
102
RTVSPropertyOp4
 70
     1
102
RTVSPropertyOp5
 70
     1
102
RTVSPropertyOp6
 70
     1
102
RTVSPropertyOp7
 70
     1
102
RTVSPropertyOp8
 70
     1
102
RTVSPropertyOp9
 70
     1
102
RTVSPropertyOp10
 70
     1
102
RTVSPropertyOp11
 70
     1
102
RTVSPropertyOp12
 70
     1
102
RTVSPropertyOp13
 70
     1
102
RTVSPropertyOp14
 70
     1
102
RTVSPropertyOp15
 70
     1
102
RTVSPropertyOp16
 70
     1
102
RTVSPropertyOp17
 70
     1
102
RTVSPropertyOp18
 70
     1
102
RTVSPropertyOp19
 70
     1
102
RTVSPropertyOp20
 70
     1
102
RTVSPropertyOp21
 70
     1
102
RTVSPropertyOp22
 70
     1
102
RTVSPropertyOp23
 70
     1
102
RTVSPropertyOp24
 70
     1
102
RTVSPropertyOp25
 70
     1
102
RTVSPropertyOp26
 70
     1
102
RTVSPropertyOp27
 70
     1
102
RTVSPropertyOp28
 70
     1
102
RTVSPropertyOp29
 70
     1
102
RTVSPropertyOp30
 70
     1
102
RTVSPropertyOp31
 70
     1
102
RTVSPropertyOp32
 70
     1
  0
XRECORD
  5
13C
102
{ACAD_REACTORS
330
13B
102
}
330
13B
100
AcDbXrecord
280
     1
102
RTVSPropertyOp0
 70
     1
102
RTVSPropertyOp1
 70
     1
102
RTVSPropertyOp2
 70
     1
102
RTVSPropertyOp3
 70
     1
102
RTVSPropertyOp4
 70
     1
102
RTVSPropertyOp5
 70
     1
102
RTVSPropertyOp6
 70
     1
102
RTVSPropertyOp7
 70
     1
102
RTVSPropertyOp8
 70
     1
102
RTVSPropertyOp9
 70
     1
102
RTVSPropertyOp10
 70
     1
102
RTVSPropertyOp11
 70
     1
102
RTVSPropertyOp12
 70
     1
102
RTVSPropertyOp13
 70
     1
102
RTVSPropertyOp14
 70
     1
102
RTVSPropertyOp15
 70
     1
102
RTVSPropertyOp16
 70
     1
102
RTVSPropertyOp17
 70
     1
102
RTVSPropertyOp18
 70
     1
102
RTVSPropertyOp19
 70
     1
102
RTVSPropertyOp20
 70
     1
102
RTVSPropertyOp21
 70
     1
102
RTVSPropertyOp22
 70
     1
102
RTVSPropertyOp23
 70
     1
102
RTVSPropertyOp24
 70
     1
102
RTVSPropertyOp25
 70
     1
102
RTVSPropertyOp26
 70
     1
102
RTVSPropertyOp27
 70
     1
102
RTVSPropertyOp28
 70
     1
102
RTVSPropertyOp29
 70
     1
102
RTVSPropertyOp30
 70
     1
102
RTVSPropertyOp31
 70
     1
102
RTVSPropertyOp32
 70
     1
  0
XRECORD
  5
144
102
{ACAD_REACTORS
330
143
102
}
330
143
100
AcDbXrecord
280
     1
102
RTVSPropertyOp0
 70
     1
102
RTVSPropertyOp1
 70
     1
102
RTVSPropertyOp2
 70
     1
102
RTVSPropertyOp3
 70
     1
102
RTVSPropertyOp4
 70
     1
102
RTVSPropertyOp5
 70
     1
102
RTVSPropertyOp6
 70
     1
102
RTVSPropertyOp7
 70
     1
102
RTVSPropertyOp8
 70
     1
102
RTVSPropertyOp9
 70
     1
102
RTVSPropertyOp10
 70
     1
102
RTVSPropertyOp11
 70
     1
102
RTVSPropertyOp12
 70
     1
102
RTVSPropertyOp13
 70
     1
102
RTVSPropertyOp14
 70
     1
102
RTVSPropertyOp15
 70
     1
102
RTVSPropertyOp16
 70
     1
102
RTVSPropertyOp17
 70
     1
102
RTVSPropertyOp18
 70
     1
102
RTVSPropertyOp19
 70
     1
102
RTVSPropertyOp20
 70
     1
102
RTVSPropertyOp21
 70
     1
102
RTVSPropertyOp22
 70
     1
102
RTVSPropertyOp23
 70
     1
102
RTVSPropertyOp24
 70
     1
102
RTVSPropertyOp25
 70
     1
102
RTVSPropertyOp26
 70
     1
102
RTVSPropertyOp27
 70
     1
102
RTVSPropertyOp28
 70
     1
102
RTVSPropertyOp29
 70
     1
102
RTVSPropertyOp30
 70
     1
102
RTVSPropertyOp31
 70
     1
102
RTVSPropertyOp32
 70
     1
  0
XRECORD
  5
14C
102
{ACAD_REACTORS
330
14B
102
}
330
14B
100
AcDbXrecord
280
     1
102
RTVSPropertyOp0
 70
     1
102
RTVSPropertyOp1
 70
     1
102
RTVSPropertyOp2
 70
     1
102
RTVSPropertyOp3
 70
     1
102
RTVSPropertyOp4
 70
     1
102
RTVSPropertyOp5
 70
     1
102
RTVSPropertyOp6
 70
     1
102
RTVSPropertyOp7
 70
     1
102
RTVSPropertyOp8
 70
     1
102
RTVSPropertyOp9
 70
     1
102
RTVSPropertyOp10
 70
     1
102
RTVSPropertyOp11
 70
     1
102
RTVSPropertyOp12
 70
     1
102
RTVSPropertyOp13
 70
     1
102
RTVSPropertyOp14
 70
     1
102
RTVSPropertyOp15
 70
     1
102
RTVSPropertyOp16
 70
     1
102
RTVSPropertyOp17
 70
     1
102
RTVSPropertyOp18
 70
     1
102
RTVSPropertyOp19
 70
     1
102
RTVSPropertyOp20
 70
     1
102
RTVSPropertyOp21
 70
     1
102
RTVSPropertyOp22
 70
     1
102
RTVSPropertyOp23
 70
     1
102
RTVSPropertyOp24
 70
     1
102
RTVSPropertyOp25
 70
     1
102
RTVSPropertyOp26
 70
     1
102
RTVSPropertyOp27
 70
     1
102
RTVSPropertyOp28
 70
     1
102
RTVSPropertyOp29
 70
     1
102
RTVSPropertyOp30
 70
     1
102
RTVSPropertyOp31
 70
     1
102
RTVSPropertyOp32
 70
     1
  0
XRECORD
  5
140
102
{ACAD_REACTORS
330
13F
102
}
330
13F
100
AcDbXrecord
280
     1
102
RTVSPropertyOp0
 70
     1
102
RTVSPropertyOp1
 70
     1
102
RTVSPropertyOp2
 70
     1
102
RTVSPropertyOp3
 70
     1
102
RTVSPropertyOp4
 70
     1
102
RTVSPropertyOp5
 70
     1
102
RTVSPropertyOp6
 70
     1
102
RTVSPropertyOp7
 70
     1
102
RTVSPropertyOp8
 70
     1
102
RTVSPropertyOp9
 70
     1
102
RTVSPropertyOp10
 70
     1
102
RTVSPropertyOp11
 70
     1
102
RTVSPropertyOp12
 70
     1
102
RTVSPropertyOp13
 70
     1
102
RTVSPropertyOp14
 70
     1
102
RTVSPropertyOp15
 70
     1
102
RTVSPropertyOp16
 70
     1
102
RTVSPropertyOp17
 70
     1
102
RTVSPropertyOp18
 70
     1
102
RTVSPropertyOp19
 70
     1
102
RTVSPropertyOp20
 70
     1
102
RTVSPropertyOp21
 70
     1
102
RTVSPropertyOp22
 70
     1
102
RTVSPropertyOp23
 70
     1
102
RTVSPropertyOp24
 70
     1
102
RTVSPropertyOp25
 70
     1
102
RTVSPropertyOp26
 70
     1
102
RTVSPropertyOp27
 70
     1
102
RTVSPropertyOp28
 70
     1
102
RTVSPropertyOp29
 70
     1
102
RTVSPropertyOp30
 70
     1
102
RTVSPropertyOp31
 70
     1
102
RTVSPropertyOp32
 70
     1
  0
XRECORD
  5
142
102
{ACAD_REACTORS
330
141
102
}
330
141
100
AcDbXrecord
280
     1
102
RTVSPropertyOp0
 70
     1
102
RTVSPropertyOp1
 70
     1
102
RTVSPropertyOp2
 70
     1
102
RTVSPropertyOp3
 70
     1
102
RTVSPropertyOp4
 70
     1
102
RTVSPropertyOp5
 70
     1
102
RTVSPropertyOp6
 70
     1
102
RTVSPropertyOp7
 70
     1
102
RTVSPropertyOp8
 70
     1
102
RTVSPropertyOp9
 70
     1
102
RTVSPropertyOp10
 70
     1
102
RTVSPropertyOp11
 70
     1
102
RTVSPropertyOp12
 70
     1
102
RTVSPropertyOp13
 70
     1
102
RTVSPropertyOp14
 70
     1
102
RTVSPropertyOp15
 70
     1
102
RTVSPropertyOp16
 70
     1
102
RTVSPropertyOp17
 70
     1
102
RTVSPropertyOp18
 70
     1
102
RTVSPropertyOp19
 70
     1
102
RTVSPropertyOp20
 70
     1
102
RTVSPropertyOp21
 70
     1
102
RTVSPropertyOp22
 70
     1
102
RTVSPropertyOp23
 70
     1
102
RTVSPropertyOp24
 70
     1
102
RTVSPropertyOp25
 70
     1
102
RTVSPropertyOp26
 70
     1
102
RTVSPropertyOp27
 70
     1
102
RTVSPropertyOp28
 70
     1
102
RTVSPropertyOp29
 70
     1
102
RTVSPropertyOp30
 70
     1
102
RTVSPropertyOp31
 70
     1
102
RTVSPropertyOp32
 70
     1
  0
XRECORD
  5
14A
102
{ACAD_REACTORS
330
149
102
}
330
149
100
AcDbXrecord
280
     1
102
RTVSPropertyOp0
 70
     1
102
RTVSPropertyOp1
 70
     1
102
RTVSPropertyOp2
 70
     1
102
RTVSPropertyOp3
 70
     1
102
RTVSPropertyOp4
 70
     1
102
RTVSPropertyOp5
 70
     1
102
RTVSPropertyOp6
 70
     1
102
RTVSPropertyOp7
 70
     1
102
RTVSPropertyOp8
 70
     1
102
RTVSPropertyOp9
 70
     1
102
RTVSPropertyOp10
 70
     1
102
RTVSPropertyOp11
 70
     1
102
RTVSPropertyOp12
 70
     1
102
RTVSPropertyOp13
 70
     1
102
RTVSPropertyOp14
 70
     1
102
RTVSPropertyOp15
 70
     1
102
RTVSPropertyOp16
 70
     1
102
RTVSPropertyOp17
 70
     1
102
RTVSPropertyOp18
 70
     1
102
RTVSPropertyOp19
 70
     1
102
RTVSPropertyOp20
 70
     1
102
RTVSPropertyOp21
 70
     1
102
RTVSPropertyOp22
 70
     1
102
RTVSPropertyOp23
 70
     1
102
RTVSPropertyOp24
 70
     1
102
RTVSPropertyOp25
 70
     1
102
RTVSPropertyOp26
 70
     1
102
RTVSPropertyOp27
 70
     1
102
RTVSPropertyOp28
 70
     1
102
RTVSPropertyOp29
 70
     1
102
RTVSPropertyOp30
 70
     1
102
RTVSPropertyOp31
 70
     1
102
RTVSPropertyOp32
 70
     1
  0
XRECORD
  5
12E
102
{ACAD_REACTORS
330
12D
102
}
330
12D
100
AcDbXrecord
280
     1
102
RTVSPropertyOp0
 70
     1
102
RTVSPropertyOp1
 70
     1
102
RTVSPropertyOp2
 70
     1
102
RTVSPropertyOp3
 70
     1
102
RTVSPropertyOp4
 70
     1
102
RTVSPropertyOp5
 70
     1
102
RTVSPropertyOp6
 70
     1
102
RTVSPropertyOp7
 70
     1
102
RTVSPropertyOp8
 70
     1
102
RTVSPropertyOp9
 70
     1
102
RTVSPropertyOp10
 70
     1
102
RTVSPropertyOp11
 70
     1
102
RTVSPropertyOp12
 70
     1
102
RTVSPropertyOp13
 70
     1
102
RTVSPropertyOp14
 70
     1
102
RTVSPropertyOp15
 70
     1
102
RTVSPropertyOp16
 70
     1
102
RTVSPropertyOp17
 70
     1
102
RTVSPropertyOp18
 70
     1
102
RTVSPropertyOp19
 70
     1
102
RTVSPropertyOp20
 70
     1
102
RTVSPropertyOp21
 70
     1
102
RTVSPropertyOp22
 70
     1
102
RTVSPropertyOp23
 70
     1
102
RTVSPropertyOp24
 70
     1
102
RTVSPropertyOp25
 70
     1
102
RTVSPropertyOp26
 70
     1
102
RTVSPropertyOp27
 70
     1
102
RTVSPropertyOp28
 70
     1
102
RTVSPropertyOp29
 70
     1
102
RTVSPropertyOp30
 70
     1
102
RTVSPropertyOp31
 70
     1
102
RTVSPropertyOp32
 70
     1
  0
XRECORD
  5
130
102
{ACAD_REACTORS
330
12F
102
}
330
12F
100
AcDbXrecord
280
     1
102
RTVSPropertyOp0
 70
     1
102
RTVSPropertyOp1
 70
     1
102
RTVSPropertyOp2
 70
     1
102
RTVSPropertyOp3
 70
     1
102
RTVSPropertyOp4
 70
     1
102
RTVSPropertyOp5
 70
     1
102
RTVSPropertyOp6
 70
     1
102
RTVSPropertyOp7
 70
     1
102
RTVSPropertyOp8
 70
     1
102
RTVSPropertyOp9
 70
     1
102
RTVSPropertyOp10
 70
     1
102
RTVSPropertyOp11
 70
     1
102
RTVSPropertyOp12
 70
     1
102
RTVSPropertyOp13
 70
     1
102
RTVSPropertyOp14
 70
     1
102
RTVSPropertyOp15
 70
     1
102
RTVSPropertyOp16
 70
     1
102
RTVSPropertyOp17
 70
     1
102
RTVSPropertyOp18
 70
     1
102
RTVSPropertyOp19
 70
     1
102
RTVSPropertyOp20
 70
     1
102
RTVSPropertyOp21
 70
     1
102
RTVSPropertyOp22
 70
     1
102
RTVSPropertyOp23
 70
     1
102
RTVSPropertyOp24
 70
     1
102
RTVSPropertyOp25
 70
     1
102
RTVSPropertyOp26
 70
     1
102
RTVSPropertyOp27
 70
     1
102
RTVSPropertyOp28
 70
     1
102
RTVSPropertyOp29
 70
     1
102
RTVSPropertyOp30
 70
     1
102
RTVSPropertyOp31
 70
     1
102
RTVSPropertyOp32
 70
     1
  0
XRECORD
  5
132
102
{ACAD_REACTORS
330
131
102
}
330
131
100
AcDbXrecord
280
     1
102
RTVSPropertyOp0
 70
     1
102
RTVSPropertyOp1
 70
     1
102
RTVSPropertyOp2
 70
     1
102
RTVSPropertyOp3
 70
     1
102
RTVSPropertyOp4
 70
     1
102
RTVSPropertyOp5
 70
     1
102
RTVSPropertyOp6
 70
     1
102
RTVSPropertyOp7
 70
     1
102
RTVSPropertyOp8
 70
     1
102
RTVSPropertyOp9
 70
     1
102
RTVSPropertyOp10
 70
     1
102
RTVSPropertyOp11
 70
     1
102
RTVSPropertyOp12
 70
     1
102
RTVSPropertyOp13
 70
     1
102
RTVSPropertyOp14
 70
     1
102
RTVSPropertyOp15
 70
     1
102
RTVSPropertyOp16
 70
     1
102
RTVSPropertyOp17
 70
     1
102
RTVSPropertyOp18
 70
     1
102
RTVSPropertyOp19
 70
     1
102
RTVSPropertyOp20
 70
     1
102
RTVSPropertyOp21
 70
     1
102
RTVSPropertyOp22
 70
     1
102
RTVSPropertyOp23
 70
     1
102
RTVSPropertyOp24
 70
     1
102
RTVSPropertyOp25
 70
     1
102
RTVSPropertyOp26
 70
     1
102
RTVSPropertyOp27
 70
     1
102
RTVSPropertyOp28
 70
     1
102
RTVSPropertyOp29
 70
     1
102
RTVSPropertyOp30
 70
     1
102
RTVSPropertyOp31
 70
     1
102
RTVSPropertyOp32
 70
     1
  0
XRECORD
  5
134
102
{ACAD_REACTORS
330
133
102
}
330
133
100
AcDbXrecord
280
     1
102
RTVSPropertyOp0
 70
     1
102
RTVSPropertyOp1
 70
     1
102
RTVSPropertyOp2
 70
     1
102
RTVSPropertyOp3
 70
     1
102
RTVSPropertyOp4
 70
     1
102
RTVSPropertyOp5
 70
     1
102
RTVSPropertyOp6
 70
     1
102
RTVSPropertyOp7
 70
     1
102
RTVSPropertyOp8
 70
     1
102
RTVSPropertyOp9
 70
     1
102
RTVSPropertyOp10
 70
     1
102
RTVSPropertyOp11
 70
     1
102
RTVSPropertyOp12
 70
     1
102
RTVSPropertyOp13
 70
     1
102
RTVSPropertyOp14
 70
     1
102
RTVSPropertyOp15
 70
     1
102
RTVSPropertyOp16
 70
     1
102
RTVSPropertyOp17
 70
     1
102
RTVSPropertyOp18
 70
     1
102
RTVSPropertyOp19
 70
     1
102
RTVSPropertyOp20
 70
     1
102
RTVSPropertyOp21
 70
     1
102
RTVSPropertyOp22
 70
     1
102
RTVSPropertyOp23
 70
     1
102
RTVSPropertyOp24
 70
     1
102
RTVSPropertyOp25
 70
     1
102
RTVSPropertyOp26
 70
     1
102
RTVSPropertyOp27
 70
     1
102
RTVSPropertyOp28
 70
     1
102
RTVSPropertyOp29
 70
     1
102
RTVSPropertyOp30
 70
     1
102
RTVSPropertyOp31
 70
     1
102
RTVSPropertyOp32
 70
     1
  0
XRECORD
  5
148
102
{ACAD_REACTORS
330
147
102
}
330
147
100
AcDbXrecord
280
     1
102
RTVSPropertyOp0
 70
     1
102
RTVSPropertyOp1
 70
     1
102
RTVSPropertyOp2
 70
     1
102
RTVSPropertyOp3
 70
     1
102
RTVSPropertyOp4
 70
     1
102
RTVSPropertyOp5
 70
     1
102
RTVSPropertyOp6
 70
     1
102
RTVSPropertyOp7
 70
     1
102
RTVSPropertyOp8
 70
     1
102
RTVSPropertyOp9
 70
     1
102
RTVSPropertyOp10
 70
     1
102
RTVSPropertyOp11
 70
     1
102
RTVSPropertyOp12
 70
     1
102
RTVSPropertyOp13
 70
     1
102
RTVSPropertyOp14
 70
     1
102
RTVSPropertyOp15
 70
     1
102
RTVSPropertyOp16
 70
     1
102
RTVSPropertyOp17
 70
     1
102
RTVSPropertyOp18
 70
     1
102
RTVSPropertyOp19
 70
     1
102
RTVSPropertyOp20
 70
     1
102
RTVSPropertyOp21
 70
     1
102
RTVSPropertyOp22
 70
     1
102
RTVSPropertyOp23
 70
     1
102
RTVSPropertyOp24
 70
     1
102
RTVSPropertyOp25
 70
     1
102
RTVSPropertyOp26
 70
     1
102
RTVSPropertyOp27
 70
     1
102
RTVSPropertyOp28
 70
     1
102
RTVSPropertyOp29
 70
     1
102
RTVSPropertyOp30
 70
     1
102
RTVSPropertyOp31
 70
     1
102
RTVSPropertyOp32
 70
     1
  0
XRECORD
  5
13E
102
{ACAD_REACTORS
330
13D
102
}
330
13D
100
AcDbXrecord
280
     1
102
RTVSPropertyOp0
 70
     1
102
RTVSPropertyOp1
 70
     1
102
RTVSPropertyOp2
 70
     1
102
RTVSPropertyOp3
 70
     1
102
RTVSPropertyOp4
 70
     1
102
RTVSPropertyOp5
 70
     1
102
RTVSPropertyOp6
 70
     1
102
RTVSPropertyOp7
 70
     1
102
RTVSPropertyOp8
 70
     1
102
RTVSPropertyOp9
 70
     1
102
RTVSPropertyOp10
 70
     1
102
RTVSPropertyOp11
 70
     1
102
RTVSPropertyOp12
 70
     1
102
RTVSPropertyOp13
 70
     1
102
RTVSPropertyOp14
 70
     1
102
RTVSPropertyOp15
 70
     1
102
RTVSPropertyOp16
 70
     1
102
RTVSPropertyOp17
 70
     1
102
RTVSPropertyOp18
 70
     1
102
RTVSPropertyOp19
 70
     1
102
RTVSPropertyOp20
 70
     1
102
RTVSPropertyOp21
 70
     1
102
RTVSPropertyOp22
 70
     1
102
RTVSPropertyOp23
 70
     1
102
RTVSPropertyOp24
 70
     1
102
RTVSPropertyOp25
 70
     1
102
RTVSPropertyOp26
 70
     1
102
RTVSPropertyOp27
 70
     1
102
RTVSPropertyOp28
 70
     1
102
RTVSPropertyOp29
 70
     1
102
RTVSPropertyOp30
 70
     1
102
RTVSPropertyOp31
 70
     1
102
RTVSPropertyOp32
 70
     1
  0
XRECORD
  5
146
102
{ACAD_REACTORS
330
145
102
}
330
145
100
AcDbXrecord
280
     1
102
RTVSPropertyOp0
 70
     1
102
RTVSPropertyOp1
 70
     1
102
RTVSPropertyOp2
 70
     1
102
RTVSPropertyOp3
 70
     1
102
RTVSPropertyOp4
 70
     1
102
RTVSPropertyOp5
 70
     1
102
RTVSPropertyOp6
 70
     1
102
RTVSPropertyOp7
 70
     1
102
RTVSPropertyOp8
 70
     1
102
RTVSPropertyOp9
 70
     1
102
RTVSPropertyOp10
 70
     1
102
RTVSPropertyOp11
 70
     1
102
RTVSPropertyOp12
 70
     1
102
RTVSPropertyOp13
 70
     1
102
RTVSPropertyOp14
 70
     1
102
RTVSPropertyOp15
 70
     1
102
RTVSPropertyOp16
 70
     1
102
RTVSPropertyOp17
 70
     1
102
RTVSPropertyOp18
 70
     1
102
RTVSPropertyOp19
 70
     1
102
RTVSPropertyOp20
 70
     1
102
RTVSPropertyOp21
 70
     1
102
RTVSPropertyOp22
 70
     1
102
RTVSPropertyOp23
 70
     1
102
RTVSPropertyOp24
 70
     1
102
RTVSPropertyOp25
 70
     1
102
RTVSPropertyOp26
 70
     1
102
RTVSPropertyOp27
 70
     1
102
RTVSPropertyOp28
 70
     1
102
RTVSPropertyOp29
 70
     1
102
RTVSPropertyOp30
 70
     1
102
RTVSPropertyOp31
 70
     1
102
RTVSPropertyOp32
 70
     1
  0
ENDSEC
  0
EOF
