<svg xmlns="http://www.w3.org/2000/svg" version="1.1" width="1179" height="600"><g stroke="red" stroke-width="1.000" fill="none" transform="scale(0.6)"><path id="gaten" d="M160.000 120 l 15.900 0 l 0 17.900 l -15.900 0 l 0 -17.900 m 32.200 0 l 15.900 0 l 0 17.900 l -15.900 0 l 0 -17.900 m 32.200 0 l 15.900 0 l 0 17.900 l -15.900 0 l 0 -17.900 m 32.200 0 M480.000 120 l 15.900 0 l 0 17.900 l -15.900 0 l 0 -17.900 m 32.200 0 l 15.900 0 l 0 17.900 l -15.900 0 l 0 -17.900 m 32.200 0 l 15.900 0 l 0 17.900 l -15.900 0 l 0 -17.900 m 32.200 0 M160.000 550.000 l 15.900 0 l 0 17.900 l -15.900 0 l 0 -17.900 m 32.200 0 l 15.900 0 l 0 17.900 l -15.900 0 l 0 -17.900 m 32.200 0 l 15.900 0 l 0 17.900 l -15.900 0 l 0 -17.900 m 32.200 0 M480.000 550.000 l 15.900 0 l 0 17.900 l -15.900 0 l 0 -17.900 m 32.200 0 l 15.900 0 l 0 17.900 l -15.900 0 l 0 -17.900 m 32.200 0 l 15.900 0 l 0 17.900 l -15.900 0 l 0 -17.900 m 32.200 0 "/><path id="staander" d="M80.000 100 l 80.000 0 c 28 0 20 -15 40 -15 c 20 0 12 15 40 15 l 240.000 0 c 28 0 20 -15 40 -15 c 20 0 12 15 40 15 l 80.000 0 l 0 490.000 l -20 0 c 0 0 0.260 -5 -260 -5 c -260.260 0 -260 5 -260 5 l -20 0 c 0 -57.000 0 -57.000 495.000 -57.000 c 10 0 10 0 10 -10 c 0 -368.000 0 -368.000 -50 -368.000 c -200 0 -460.000 20 -455.000 -55"/> <path id="dienblad-staander" d="M21.000 225l 62.000 0 c 28 0 20 -15 40 -15 c 20 0 12 15 40 15 l 240.000 0 c 28 0 20 -15 40 -15 c 20 0 12 15 40 15 l 62.000 0 l 18 0 l 0 -10 l -18 0 l 0 -10 l 18 0 l 0 -10 l -18 0 l 0 -10 l 18 0 l 0 -10 l -18 0c -183.400 0 -131 -10 -262 -10 c -131 0 -78.600 10 -262 10 l -18 0 l 0 10 l 18 -0 l 0 10 l -18 0 l 0 10 l 18 -0 l 0 10 l -18 0 l 0 10 l 18 -0M223.000 195 c 0 -15 120 -15 120 0 c 0 5 -120 5 -120 0 "/> <path id="dwars-plank-lang" d="M50 528.000 l 374 0 l 18 0 c 20 0 20 -16 0 -16 l -18 0 l 0 -16 l 18 0 c 20 0 20 -16 0 -16 l -18 0 l 0 -16 l 18 0 c 20 0 20 -16 0 -16 l -18 0 l -374 0 l -18 0 c -20 0 -20 16 0 16 l 18 -0 l 0 16 l -18 0 c -20 0 -20 16 0 16 l 18 -0 l 0 16 l -18 0 c -20 0 -20 16 0 16 l 18 -0"/><path id="dwars-plank-kort" d="M80.000 443.000 l 374 0 l 18 0 c 20 0 20 -16 0 -16 l -18 0 l 0 -16 l 18 0 c 20 0 20 -16 0 -16 l -18 0 l 0 -16 l 18 0 c 20 0 20 -16 0 -16 l -18 0 l -374 0 l -18 0 c -20 0 -20 16 0 16 l 18 -0 l 0 16 l -18 0 c -20 0 -20 16 0 16 l 18 -0 l 0 16 l -18 0 c -20 0 -20 16 0 16 l 18 -0"/></g><g stroke="black" stroke-width="1.000" fill="none" transform="scale(0.6)"><path id="dienblad-blad" d="M 804.000 109.000l 392.000 0M 804.000 651.000 l0.000 -86.000l13.000 0.000 l0.000 -50.000 l-13.000 0.000 0.000 -270.000 l13.000 0.000 l0.000 -50.000 l-13.000 0.000 l0.000 -86.000 392.000 0 l0.000 86.000 l-13.000 0.000 l0.000 50.000 l13.000 0.000 0.000 270.000 l-13.000 0.000 l0.000 50.000 l13.000 0.000 l0.000 86.000 -392.000 0 "/></g><g stroke="blue" stroke-width="1.000" fill="none" transform="scale(0.6)"><path id="dienblad-dwars-smal" d="M50 358.000 l 374 0 l 0 -9.900 l 18 0 l 0 -10.100 l -18 0 l 0 -9.900 l 18 0 l 0 -10.100 l -18 0 l 0 -9.900 l -374 0 l 0 9.900 l -18 0 l 0 10.100 l 18 -0 l 0 9.900 l -18 0 l 0 10.100 l 18 -0 l 0 9.900"/> <path id="dienblad-dwars-breed" d="M40 285.000l 374 0 l 0 -9.900 l 18 0 l 0 -10.100 l -18 0 l 0 -9.900 l 18 0 l 0 -10.100 l -18 0 l 0 -9.900 l -374 0 l 0 9.900 l -18 0 l 0 10.100 l 18 -0 l 0 9.900 l -18 0 l 0 10.100 l 18 -0 l 0 9.900"/></g></svg>