  0
SECTION
  2
HEADER
  9
$ACADVER
  1
AC1018
  9
$ACADMAINTVER
 70
   104
  9
$DWGCODEPAGE
  3
ANSI_1252
  9
$INSBASE
 10
99.93700787401564
 20
103.8740157480315
 30
0.0
  9
$EXTMIN
 10
99.93700787401564
 20
103.8740157480315
 30
-0.0000000000001186
  9
$EXTMAX
 10
195.9370078740157
 20
203.8110236220472
 30
0.0
  9
$LIMMIN
 10
0.0
 20
0.0
  9
$LIMMAX
 10
12.0
 20
9.0
  9
$ORTHOMODE
 70
     0
  9
$REGENMODE
 70
     1
  9
$FILLMODE
 70
     1
  9
$QTEXTMODE
 70
     0
  9
$MIRRTEXT
 70
     1
  9
$LTSCALE
 40
1.0
  9
$ATTMODE
 70
     1
  9
$TEXTSIZE
 40
10.0
  9
$TRACEWID
 40
0.05
  9
$TEXTSTYLE
  7
Standard
  9
$CLAYER
  8
0
  9
$CELTYPE
  6
ByLayer
  9
$CECOLOR
 62
   256
  9
$CELTSCALE
 40
1.0
  9
$DISPSILH
 70
     0
  9
$DIMSCALE
 40
1.0
  9
$DIMASZ
 40
0.18
  9
$DIMEXO
 40
0.0625
  9
$DIMDLI
 40
0.38
  9
$DIMRND
 40
0.0
  9
$DIMDLE
 40
0.0
  9
$DIMEXE
 40
0.18
  9
$DIMTP
 40
0.0
  9
$DIMTM
 40
0.0
  9
$DIMTXT
 40
0.18
  9
$DIMCEN
 40
0.09
  9
$DIMTSZ
 40
0.0
  9
$DIMTOL
 70
     0
  9
$DIMLIM
 70
     0
  9
$DIMTIH
 70
     1
  9
$DIMTOH
 70
     1
  9
$DIMSE1
 70
     0
  9
$DIMSE2
 70
     0
  9
$DIMTAD
 70
     0
  9
$DIMZIN
 70
     0
  9
$DIMBLK
  1

  9
$DIMASO
 70
     1
  9
$DIMSHO
 70
     1
  9
$DIMPOST
  1

  9
$DIMAPOST
  1

  9
$DIMALT
 70
     0
  9
$DIMALTD
 70
     2
  9
$DIMALTF
 40
25.4
  9
$DIMLFAC
 40
1.0
  9
$DIMTOFL
 70
     0
  9
$DIMTVP
 40
0.0
  9
$DIMTIX
 70
     0
  9
$DIMSOXD
 70
     0
  9
$DIMSAH
 70
     0
  9
$DIMBLK1
  1

  9
$DIMBLK2
  1

  9
$DIMSTYLE
  2
Standard
  9
$DIMCLRD
 70
     0
  9
$DIMCLRE
 70
     0
  9
$DIMCLRT
 70
     0
  9
$DIMTFAC
 40
1.0
  9
$DIMGAP
 40
0.09
  9
$DIMJUST
 70
     0
  9
$DIMSD1
 70
     0
  9
$DIMSD2
 70
     0
  9
$DIMTOLJ
 70
     1
  9
$DIMTZIN
 70
     0
  9
$DIMALTZ
 70
     0
  9
$DIMALTTZ
 70
     0
  9
$DIMUPT
 70
     0
  9
$DIMDEC
 70
     4
  9
$DIMTDEC
 70
     4
  9
$DIMALTU
 70
     2
  9
$DIMALTTD
 70
     2
  9
$DIMTXSTY
  7
Standard
  9
$DIMAUNIT
 70
     0
  9
$DIMADEC
 70
     0
  9
$DIMALTRND
 40
0.0
  9
$DIMAZIN
 70
     0
  9
$DIMDSEP
 70
    46
  9
$DIMATFIT
 70
     3
  9
$DIMFRAC
 70
     0
  9
$DIMLDRBLK
  1

  9
$DIMLUNIT
 70
     2
  9
$DIMLWD
 70
    -2
  9
$DIMLWE
 70
    -2
  9
$DIMTMOVE
 70
     0
  9
$LUNITS
 70
     4
  9
$LUPREC
 70
     8
  9
$SKETCHINC
 40
0.1
  9
$FILLETRAD
 40
0.0
  9
$AUNITS
 70
     0
  9
$AUPREC
 70
     0
  9
$MENU
  1
.
  9
$ELEVATION
 40
0.0
  9
$PELEVATION
 40
0.0
  9
$THICKNESS
 40
0.0
  9
$LIMCHECK
 70
     0
  9
$CHAMFERA
 40
0.5
  9
$CHAMFERB
 40
0.5
  9
$CHAMFERC
 40
1.0
  9
$CHAMFERD
 40
0.0
  9
$SKPOLY
 70
     0
  9
$TDCREATE
 40
2456457.447974537
  9
$TDUCREATE
 40
2456457.614641204
  9
$TDUPDATE
 40
2456815.668789328
  9
$TDUUPDATE
 40
2456815.835455996
  9
$TDINDWG
 40
18.1178515625
  9
$TDUSRTIMER
 40
18.1178515162
  9
$USRTIMER
 70
     1
  9
$ANGBASE
 50
0.0
  9
$ANGDIR
 70
     0
  9
$PDMODE
 70
     0
  9
$PDSIZE
 40
0.0
  9
$PLINEWID
 40
0.0
  9
$SPLFRAME
 70
     0
  9
$SPLINETYPE
 70
     6
  9
$SPLINESEGS
 70
     8
  9
$HANDSEED
  5
D1
  9
$SURFTAB1
 70
     6
  9
$SURFTAB2
 70
     6
  9
$SURFTYPE
 70
     6
  9
$SURFU
 70
     6
  9
$SURFV
 70
     6
  9
$UCSBASE
  2

  9
$UCSNAME
  2

  9
$UCSORG
 10
0.0
 20
0.0
 30
0.0
  9
$UCSXDIR
 10
1.0
 20
0.0
 30
0.0
  9
$UCSYDIR
 10
0.0
 20
1.0
 30
0.0
  9
$UCSORTHOREF
  2

  9
$UCSORTHOVIEW
 70
     0
  9
$UCSORGTOP
 10
0.0
 20
0.0
 30
0.0
  9
$UCSORGBOTTOM
 10
0.0
 20
0.0
 30
0.0
  9
$UCSORGLEFT
 10
0.0
 20
0.0
 30
0.0
  9
$UCSORGRIGHT
 10
0.0
 20
0.0
 30
0.0
  9
$UCSORGFRONT
 10
0.0
 20
0.0
 30
0.0
  9
$UCSORGBACK
 10
0.0
 20
0.0
 30
0.0
  9
$PUCSBASE
  2

  9
$PUCSNAME
  2

  9
$PUCSORG
 10
0.0
 20
0.0
 30
0.0
  9
$PUCSXDIR
 10
1.0
 20
0.0
 30
0.0
  9
$PUCSYDIR
 10
0.0
 20
1.0
 30
0.0
  9
$PUCSORTHOREF
  2

  9
$PUCSORTHOVIEW
 70
     0
  9
$PUCSORGTOP
 10
0.0
 20
0.0
 30
0.0
  9
$PUCSORGBOTTOM
 10
0.0
 20
0.0
 30
0.0
  9
$PUCSORGLEFT
 10
0.0
 20
0.0
 30
0.0
  9
$PUCSORGRIGHT
 10
0.0
 20
0.0
 30
0.0
  9
$PUCSORGFRONT
 10
0.0
 20
0.0
 30
0.0
  9
$PUCSORGBACK
 10
0.0
 20
0.0
 30
0.0
  9
$USERI1
 70
     0
  9
$USERI2
 70
     0
  9
$USERI3
 70
     0
  9
$USERI4
 70
     0
  9
$USERI5
 70
     0
  9
$USERR1
 40
0.0
  9
$USERR2
 40
0.0
  9
$USERR3
 40
0.0
  9
$USERR4
 40
0.0
  9
$USERR5
 40
0.0
  9
$WORLDVIEW
 70
     1
  9
$SHADEDGE
 70
     3
  9
$SHADEDIF
 70
    70
  9
$TILEMODE
 70
     1
  9
$MAXACTVP
 70
    64
  9
$PINSBASE
 10
0.0
 20
0.0
 30
0.0
  9
$PLIMCHECK
 70
     0
  9
$PEXTMIN
 10
1.000000000000000E+20
 20
1.000000000000000E+20
 30
1.000000000000000E+20
  9
$PEXTMAX
 10
-1.000000000000000E+20
 20
-1.000000000000000E+20
 30
-1.000000000000000E+20
  9
$PLIMMIN
 10
0.0
 20
0.0
  9
$PLIMMAX
 10
12.0
 20
9.0
  9
$UNITMODE
 70
     0
  9
$VISRETAIN
 70
     1
  9
$PLINEGEN
 70
     0
  9
$PSLTSCALE
 70
     1
  9
$TREEDEPTH
 70
  3020
  9
$CMLSTYLE
  2
Standard
  9
$CMLJUST
 70
     0
  9
$CMLSCALE
 40
1.0
  9
$PROXYGRAPHICS
 70
     1
  9
$MEASUREMENT
 70
     0
  9
$CELWEIGHT
370
    -1
  9
$ENDCAPS
280
     0
  9
$JOINSTYLE
280
     0
  9
$LWDISPLAY
290
     0
  9
$INSUNITS
 70
     1
  9
$HYPERLINKBASE
  1

  9
$STYLESHEET
  1

  9
$XEDIT
290
     1
  9
$CEPSNTYPE
380
     0
  9
$PSTYLEMODE
290
     1
  9
$FINGERPRINTGUID
  2
{371B68FB-5EDD-7543-9AAB-4A681A2DFF39}
  9
$VERSIONGUID
  2
{D278C77F-1802-B74C-843F-1FF2803CCCCE}
  9
$EXTNAMES
290
     1
  9
$PSVPSCALE
 40
0.0
  9
$OLESTARTUP
290
     0
  9
$SORTENTS
280
   127
  9
$INDEXCTL
280
     0
  9
$HIDETEXT
280
     1
  9
$XCLIPFRAME
290
     0
  9
$HALOGAP
280
     0
  9
$OBSCOLOR
 70
   257
  9
$OBSLTYPE
280
     0
  9
$INTERSECTIONDISPLAY
280
     0
  9
$INTERSECTIONCOLOR
 70
   257
  9
$DIMASSOC
280
     2
  9
$PROJECTNAME
  1

  0
ENDSEC
  0
SECTION
  2
CLASSES
  0
CLASS
  1
ACDBDICTIONARYWDFLT
  2
AcDbDictionaryWithDefault
  3
ObjectDBX Classes
 90
        0
 91
        1
280
     0
281
     0
  0
CLASS
  1
VISUALSTYLE
  2
AcDbVisualStyle
  3
ObjectDBX Classes
 90
     4095
 91
        3
280
     0
281
     0
  0
CLASS
  1
MATERIAL
  2
AcDbMaterial
  3
ObjectDBX Classes
 90
     1153
 91
        3
280
     0
281
     0
  0
CLASS
  1
SCALE
  2
AcDbScale
  3
ObjectDBX Classes
 90
     1153
 91
       33
280
     0
281
     0
  0
CLASS
  1
DICTIONARYVAR
  2
AcDbDictionaryVar
  3
ObjectDBX Classes
 90
        0
 91
       15
280
     0
281
     0
  0
CLASS
  1
TABLESTYLE
  2
AcDbTableStyle
  3
ObjectDBX Classes
 90
     4095
 91
        1
280
     0
281
     0
  0
CLASS
  1
MLEADERSTYLE
  2
AcDbMLeaderStyle
  3
ACDB_MLEADERSTYLE_CLASS
 90
     4095
 91
        0
280
     0
281
     0
  0
CLASS
  1
ACDBSECTIONVIEWSTYLE
  2
AcDbSectionViewStyle
  3
ObjectDBX Classes
 90
     1025
 91
        0
280
     0
281
     0
  0
CLASS
  1
ACDBDETAILVIEWSTYLE
  2
AcDbDetailViewStyle
  3
ObjectDBX Classes
 90
     1025
 91
        0
280
     0
281
     0
  0
CLASS
  1
SORTENTSTABLE
  2
AcDbSortentsTable
  3
ObjectDBX Classes
 90
        0
 91
        2
280
     0
281
     0
  0
CLASS
  1
CELLSTYLEMAP
  2
AcDbCellStyleMap
  3
ObjectDBX Classes
 90
     1152
 91
        1
280
     0
281
     0
  0
CLASS
  1
ACAD_EVALUATION_GRAPH
  2
AcDbEvalGraph
  3
ObjectDBX Classes
 90
     1153
 91
        0
280
     0
281
     0
  0
CLASS
  1
ACAECUSTOBJ
  2
AcAeEditorObj
  3
AcAeEditorObj
 90
     1024
 91
        0
280
     1
281
     0
  0
CLASS
  1
ACDB_DYNAMICBLOCKPURGEPREVENTER_VERSION
  2
AcDbDynamicBlockPurgePreventer
  3
ObjectDBX Classes
 90
     1153
 91
        0
280
     0
281
     0
  0
CLASS
  1
SOLID_BACKGROUND
  2
AcDbSolidBackground
  3
SCENEOE
 90
     4095
 91
        0
280
     0
281
     0
  0
CLASS
  1
NPOCOLLECTION
  2
AcDbImpNonPersistentObjectsCollection
  3
ObjectDBX Classes
 90
     1153
 91
        0
280
     0
281
     0
  0
ENDSEC
  0
SECTION
  2
TABLES
  0
TABLE
  2
VPORT
  5
22
102
{ACAD_XDICTIONARY
360
27
102
}
330
0
100
AcDbSymbolTable
 70
     1
  0
VPORT
  5
23
330
22
100
AcDbSymbolTableRecord
100
AcDbViewportTableRecord
  2
*Active
 70
     0
 10
0.0
 20
0.0
 11
1.0
 21
1.0
 12
5.490944099711924
 22
27.13379878595117
 13
0.0
 23
0.0
 14
0.5
 24
0.5
 15
0.5
 25
0.5
 16
0.0
 26
0.0
 36
380.3875414461364
 17
142.4771626114517
 27
127.9048382055652
 37
0.0
 40
133.4583451407771
 41
1.594265855777584
 42
50.0
 43
0.0
 44
0.0
 50
0.0
 51
0.0
 71
     0
 72
   100
 73
     1
 74
     3
 75
     0
 76
     0
 77
     0
 78
     0
281
     0
 65
     1
110
0.0
120
0.0
130
0.0
111
1.0
121
0.0
131
0.0
112
0.0
122
1.0
132
0.0
 79
     0
146
0.0
1001
ACAD_NAV_VCDISPLAY
1070
     3
  0
ENDTAB
  0
TABLE
  2
LTYPE
  5
1D
330
0
100
AcDbSymbolTable
 70
     1
  0
LTYPE
  5
1E
330
1D
100
AcDbSymbolTableRecord
100
AcDbLinetypeTableRecord
  2
ByBlock
 70
     0
  3

 72
    65
 73
     0
 40
0.0
  0
LTYPE
  5
1F
330
1D
100
AcDbSymbolTableRecord
100
AcDbLinetypeTableRecord
  2
ByLayer
 70
     0
  3

 72
    65
 73
     0
 40
0.0
  0
LTYPE
  5
E
330
1D
100
AcDbSymbolTableRecord
100
AcDbLinetypeTableRecord
  2
Continuous
 70
     0
  3
Solid line
 72
    65
 73
     0
 40
0.0
  0
ENDTAB
  0
TABLE
  2
LAYER
  5
17
102
{ACAD_XDICTIONARY
360
18
102
}
330
0
100
AcDbSymbolTable
 70
     4
  0
LAYER
  5
6
330
17
100
AcDbSymbolTableRecord
100
AcDbLayerTableRecord
  2
0
 70
     0
 62
     7
  6
Continuous
370
    -3
390
7
  0
LAYER
  5
A6
330
17
100
AcDbSymbolTableRecord
100
AcDbLayerTableRecord
  2
000_NOTES
 70
     0
 62
     6
  6
Continuous
370
    -3
390
7
1001
AcAecLayerStandard
1000

1000

1001
AcCmTransparency
1071
        0
  0
LAYER
  5
61
330
17
100
AcDbSymbolTableRecord
100
AcDbLayerTableRecord
  2
CUT_THRU
 70
     0
 62
     7
  6
Continuous
370
    -3
390
7
1001
AcAecLayerStandard
1000

1000

1001
AcCmTransparency
1071
        0
  0
LAYER
  5
70
330
17
100
AcDbSymbolTableRecord
100
AcDbLayerTableRecord
  2
CUT_HOLE
 70
     0
 62
     1
  6
Continuous
370
    -3
390
7
1001
AcAecLayerStandard
1000

1000

1001
AcCmTransparency
1071
        0
  0
ENDTAB
  0
TABLE
  2
STYLE
  5
1A
330
0
100
AcDbSymbolTable
 70
     1
  0
STYLE
  5
1B
330
1A
100
AcDbSymbolTableRecord
100
AcDbTextStyleTableRecord
  2
Standard
 70
     0
 40
0.0
 41
1.0
 50
0.0
 71
     0
 42
10.0
  3
txt
  4

  0
ENDTAB
  0
TABLE
  2
VIEW
  5
20
330
0
100
AcDbSymbolTable
 70
     0
  0
ENDTAB
  0
TABLE
  2
UCS
  5
21
330
0
100
AcDbSymbolTable
 70
     0
  0
ENDTAB
  0
TABLE
  2
APPID
  5
28
330
0
100
AcDbSymbolTable
 70
     5
  0
APPID
  5
29
330
28
100
AcDbSymbolTableRecord
100
AcDbRegAppTableRecord
  2
ACAD
 70
     0
  0
APPID
  5
26
330
28
100
AcDbSymbolTableRecord
100
AcDbRegAppTableRecord
  2
ACAD_NAV_VCDISPLAY
 70
     0
  0
APPID
  5
62
330
28
100
AcDbSymbolTableRecord
100
AcDbRegAppTableRecord
  2
AcAecLayerStandard
 70
     0
  0
APPID
  5
63
330
28
100
AcDbSymbolTableRecord
100
AcDbRegAppTableRecord
  2
AcCmTransparency
 70
     0
  0
APPID
  5
77
330
28
100
AcDbSymbolTableRecord
100
AcDbRegAppTableRecord
  2
AcDbDynamicBlockGUID
 70
     0
  0
ENDTAB
  0
TABLE
  2
DIMSTYLE
  5
2A
330
0
100
AcDbSymbolTable
 70
     1
100
AcDbDimStyleTable
 71
     1
340
2B
  0
DIMSTYLE
105
2B
330
2A
100
AcDbSymbolTableRecord
100
AcDbDimStyleTableRecord
  2
Standard
 70
     0
340
1B
  0
ENDTAB
  0
TABLE
  2
BLOCK_RECORD
  5
1
330
0
100
AcDbSymbolTable
 70
     1
  0
BLOCK_RECORD
  5
2
102
{ACAD_XDICTIONARY
360
3
102
}
330
1
100
AcDbSymbolTableRecord
100
AcDbBlockTableRecord
  2
*Model_Space
340
10
  0
BLOCK_RECORD
  5
13
330
1
100
AcDbSymbolTableRecord
100
AcDbBlockTableRecord
  2
*Paper_Space
340
16
  0
BLOCK_RECORD
  5
71
102
{ACAD_XDICTIONARY
360
72
102
}
330
1
100
AcDbSymbolTableRecord
100
AcDbBlockTableRecord
  2
FASTENER
340
0
102
{BLKREFS
331
6F
331
78
331
79
331
7A
331
7B
331
7C
331
7D
331
7E
331
7F
331
80
331
81
331
82
331
83
331
84
331
85
331
86
331
87
331
88
331
89
331
8A
331
8B
331
8C
331
8D
331
8E
331
8F
331
90
331
91
331
92
331
93
331
94
331
95
331
96
331
97
331
98
331
99
331
9A
331
9B
331
9C
331
9D
331
9E
331
9F
331
A0
331
A1
331
A2
331
A3
331
A4
331
AA
331
AB
102
}
1001
AcDbDynamicBlockGUID
1000
{560E4999-58F2-C14E-B0B8-AEAC161F9B57}
1001
ACAD
1000
DesignCenter Data
1002
{
1070
     1
1070
     1
1002
}
  0
ENDTAB
  0
ENDSEC
  0
SECTION
  2
BLOCKS
  0
BLOCK
  5
5
330
2
100
AcDbEntity
  8
0
100
AcDbBlockBegin
  2
*Model_Space
 70
     0
 10
0.0
 20
0.0
 30
0.0
  3
*Model_Space
  1

  0
ENDBLK
  5
F
330
2
100
AcDbEntity
  8
0
100
AcDbBlockEnd
  0
BLOCK
  5
14
330
13
100
AcDbEntity
 67
     1
  8
0
100
AcDbBlockBegin
  2
*Paper_Space
 70
     0
 10
0.0
 20
0.0
 30
0.0
  3
*Paper_Space
  1

  0
ENDBLK
  5
15
330
13
100
AcDbEntity
 67
     1
  8
0
100
AcDbBlockEnd
  0
BLOCK
  5
73
330
71
100
AcDbEntity
  8
0
100
AcDbBlockBegin
  2
FASTENER
 70
     0
 10
0.0
 20
0.0
 30
0.0
  3
FASTENER
  1

  0
POINT
  5
74
330
71
100
AcDbEntity
  8
0
100
AcDbPoint
 10
0.0
 20
0.0
 30
0.0
  0
CIRCLE
  5
75
330
71
100
AcDbEntity
  8
CUT_HOLE
100
AcDbCircle
 10
0.0
 20
0.0
 30
0.0
 40
0.145
  0
ENDBLK
  5
76
330
71
100
AcDbEntity
  8
0
100
AcDbBlockEnd
  0
ENDSEC
  0
SECTION
  2
ENTITIES
  0
LWPOLYLINE
  5
60
330
2
100
AcDbEntity
  8
CUT_THRU
100
AcDbPolyline
 90
       37
 70
     1
 43
0.0
 10
127.3524113827856
 20
174.3373394115195
 10
127.3524113827856
 20
173.4415499378354
 42
-1.0
 10
127.0408324354173
 20
173.4415499378354
 42
0.4142135623730951
 10
126.8850429617331
 20
173.5973394115196
 10
123.581007874014
 20
173.5973394115196
 10
123.581007874014
 20
156.8110236220472
 10
127.3524113827856
 20
156.8110236220472
 10
127.3524113827856
 20
157.7068130957314
 42
-1.0
 10
127.663990330154
 20
157.7068130957314
 42
0.4142135623730951
 10
127.8197798038382
 20
157.5510236220472
 10
134.8952184003289
 20
157.5510236220472
 10
134.8952184003289
 20
162.185760464152
 42
0.4142135623730951
 10
134.7394289266447
 20
162.3415499378362
 42
-1.0
 10
134.7394289266447
 20
162.6531288852046
 10
135.7910078740131
 20
162.6531288852046
 42
-1.0
 10
135.7910078740131
 20
162.3415499378362
 42
0.4142135623730951
 10
135.6352184003289
 20
162.185760464152
 10
135.6352184003289
 20
156.8110236220472
 10
154.862235944187
 20
156.8110236220472
 10
154.862235944187
 20
157.7068130957314
 42
-1.0
 10
155.1738148915554
 20
157.7068130957314
 42
0.4142135623730951
 10
155.3296043652396
 20
157.5510236220472
 10
158.6336394529586
 20
157.5510236220472
 10
158.6336394529586
 20
174.3373394115195
 10
154.862235944187
 20
174.3373394115195
 10
154.862235944187
 20
173.4415499378354
 42
-1.0
 10
154.5506569968186
 20
173.4415499378354
 42
0.4142135623730951
 10
154.3948675231344
 20
173.5973394115196
 10
147.3194289266438
 20
173.5973394115196
 10
147.3194289266437
 20
168.9626025694147
 42
0.4142135623731284
 10
147.4752184003279
 20
168.8068130957305
 42
-1.0
 10
147.4752184003279
 20
168.4952341483621
 10
146.4236394529596
 20
168.4952341483621
 42
-1.0
 10
146.4236394529596
 20
168.8068130957305
 42
0.4142135623730951
 10
146.5794289266438
 20
168.9626025694147
 10
146.5794289266438
 20
174.3373394115195
 10
127.3524113827856
 20
174.3373394115195
  0
LWPOLYLINE
  5
64
330
2
100
AcDbEntity
  8
CUT_THRU
100
AcDbPolyline
 90
       57
 70
     1
 43
0.0
 10
163.1450429617301
 20
169.2352341483621
 10
163.1450429617301
 20
168.3394446746779
 42
-1.0
 10
162.8334640143618
 20
168.3394446746779
 42
0.4142135623730951
 10
162.6776745406777
 20
168.4952341483621
 10
159.3736394529586
 20
168.4952341483621
 10
159.3736394529586
 20
156.8110236220472
 10
163.1450429617301
 20
156.8110236220472
 10
163.1450429617301
 20
157.7068130957314
 42
-1.0
 10
163.4566219090986
 20
157.7068130957314
 42
0.4142135623730951
 10
163.6124113827828
 20
157.5510236220472
 10
182.3720605055884
 20
157.5510236220472
 10
182.3720605055884
 20
162.185760464152
 42
0.414213562373128
 10
182.2162710319041
 20
162.3415499378362
 42
-1.0
 10
182.2162710319041
 20
162.6531288852047
 10
183.2678499792725
 20
162.6531288852047
 42
-1.0
 10
183.2678499792725
 20
162.3415499378362
 42
0.4142135623730951
 10
183.1120605055883
 20
162.185760464152
 10
183.1120605055883
 20
156.8110236220472
 10
190.6548675231316
 20
156.8110236220472
 10
190.6548675231316
 20
157.7068130957314
 42
-1.0
 10
190.9664464705
 20
157.7068130957314
 42
0.4142135623730951
 10
191.1222359441842
 20
157.5510236220472
 10
194.4262710319033
 20
157.5510236220472
 10
194.4262710319033
 20
180.179444674677
 10
186.6108324354127
 20
180.179444674677
 42
0.4142135623731117
 10
186.4550429617285
 20
180.0236552009928
 42
-1.0
 10
186.14346401436
 20
180.0236552009928
 10
186.14346401436
 20
181.0752341483611
 42
-1.0
 10
186.4550429617285
 20
181.0752341483611
 42
0.4142135623730951
 10
186.6108324354127
 20
180.9194446746769
 10
188.2141657687459
 20
180.919444674677
 10
186.2667973476934
 20
191.1236552009919
 10
184.7867973476935
 20
191.1236552009919
 42
0.4142114861589284
 10
184.6310078740053
 20
190.9678668316516
 42
-1.000003544353267
 10
184.3194289266408
 20
190.9678657273077
 10
184.3194289266408
 20
191.8636552009919
 10
182.3720605055884
 20
191.8636552009919
 10
182.3720605055884
 20
186.0215499378344
 10
183.2678499792725
 20
186.0215499378344
 42
-1.0
 10
183.2678499792725
 20
185.709970990466
 42
0.4142135623730951
 10
183.1120605055883
 20
185.5541815167818
 10
183.1120605055883
 20
169.2352341483621
 10
190.1874991020791
 20
169.2352341483621
 42
0.4142135623730784
 10
190.3432885757632
 20
169.3910236220463
 42
-1.0
 10
190.6548675231316
 20
169.3910236220463
 10
190.6548675231316
 20
168.3394446746779
 42
-1.0
 10
190.3432885757632
 20
168.3394446746779
 42
0.4142135623730951
 10
190.1874991020791
 20
168.4952341483621
 10
171.4278499792735
 20
168.4952341483621
 10
171.4278499792734
 20
163.1204973062573
 42
0.4142135623730951
 10
171.5836394529576
 20
162.964707832573
 42
-1.0
 10
171.5836394529576
 20
162.6531288852046
 10
170.5320605055893
 20
162.6531288852046
 42
-1.0
 10
170.5320605055893
 20
162.964707832573
 42
0.4142135623730951
 10
170.6878499792735
 20
163.1204973062573
 10
170.6878499792735
 20
169.2352341483621
 10
163.1450429617301
 20
169.2352341483621
  0
LWPOLYLINE
  5
65
330
2
100
AcDbEntity
  8
CUT_THRU
100
AcDbPolyline
 90
       25
 70
     1
 43
0.0
 10
164.8457447161161
 20
181.6594446746769
 10
164.8457447161161
 20
169.975234148362
 10
169.9478499792735
 20
169.975234148362
 10
169.9478499792735
 20
170.8710236220461
 42
-1.0
 10
170.2594289266419
 20
170.8710236220461
 42
0.4142135623730951
 10
170.4152184003262
 20
170.715234148362
 10
181.6320605055884
 20
170.715234148362
 10
181.6320605055884
 20
187.5015499378344
 10
180.7362710319043
 20
187.5015499378344
 42
-1.0
 10
180.7362710319043
 20
187.8131288852028
 42
0.4142135623730951
 10
180.8920605055885
 20
187.968918358887
 10
180.8920605055885
 20
193.3436552009918
 10
179.684692084536
 20
193.3436552009918
 10
179.684692084536
 20
192.4478657273077
 42
-1.0
 10
179.3731131371676
 20
192.4478657273077
 42
0.4142135623730951
 10
179.2173236634834
 20
192.6036552009919
 10
177.7373236634835
 20
192.6036552009919
 10
175.789955242431
 20
182.3994446746769
 10
177.3945868213783
 20
182.3994446746769
 42
0.4142135623730784
 10
177.5503762950624
 20
182.5552341483611
 42
-1.0
 10
177.8619552424308
 20
182.5552341483611
 10
177.8619552424308
 20
181.5036552009927
 42
-1.0
 10
177.5503762950624
 20
181.5036552009927
 42
0.4142135623730951
 10
177.3945868213783
 20
181.6594446746769
 10
164.8457447161161
 20
181.6594446746769
  0
LWPOLYLINE
  5
66
330
2
100
AcDbEntity
  8
CUT_THRU
100
AcDbPolyline
 90
       17
 70
     1
 43
0.0
 10
190.8994889030525
 20
201.9198657273069
 42
-0.4142135623731615
 10
191.0552783767368
 20
202.0756552009911
 10
192.5352783767366
 20
202.0756552009911
 10
194.4826467977891
 20
191.8714446746761
 10
192.8793134644559
 20
191.8714446746761
 42
-0.4142135623731117
 10
192.7235239907716
 20
192.0272341483603
 42
1.0
 10
192.4119450434034
 20
192.0272341483603
 10
192.4119450434034
 20
191.1314446746762
 10
189.3805415346316
 20
191.1314446746762
 10
189.3805415346315
 20
196.506181516781
 42
-0.4142135623730951
 10
189.5363310083158
 20
196.6619709904652
 42
1.0
 10
189.5363310083158
 20
196.9735499378336
 10
188.6405415346317
 20
196.9735499378336
 10
188.6405415346317
 20
202.8156552009911
 10
190.5879099556841
 20
202.8156552009911
 10
190.5879099556841
 20
201.9198657273069
 42
1.0
 10
190.8994889030525
 20
201.9198657273069
 42
-0.4142135623731615
  0
LWPOLYLINE
  5
67
330
2
100
AcDbEntity
  8
CUT_THRU
100
AcDbPolyline
 90
       14
 70
     1
 43
0.0
 10
190.5315341897983
 20
188.7089183588869
 10
190.5315341897983
 20
187.968918358887
 10
193.6862710319033
 20
184.8141815167819
 10
194.4262710319033
 20
184.8141815167819
 10
194.4262710319033
 20
186.7615499378343
 10
193.5304815582191
 20
186.7615499378343
 42
-1.0
 10
193.5304815582191
 20
187.0731288852026
 42
0.4142135623730951
 10
193.6862710319034
 20
187.2289183588869
 10
193.6862710319033
 20
187.9689183588869
 10
192.9462710319034
 20
187.9689183588869
 42
0.4142104866641195
 10
192.7904815582106
 20
187.8131305211868
 42
-1.000005250638332
 10
192.4789026108508
 20
187.8131288852024
 10
192.4789026108508
 20
188.7089183588869
 10
190.5315341897983
 20
188.7089183588869
  0
LWPOLYLINE
  5
68
330
2
100
AcDbEntity
  8
CUT_THRU
100
AcDbPolyline
 90
       14
 70
     1
 43
0.0
 10
190.5315341897983
 20
184.8141815167819
 10
190.5315341897983
 20
184.074181516782
 10
193.6862710319033
 20
180.919444674677
 10
194.4262710319033
 20
180.919444674677
 10
194.4262710319033
 20
182.8668130957295
 10
193.5304815582191
 20
182.8668130957294
 42
-0.9999999999807259
 10
193.5304826753283
 20
183.1783920431018
 42
0.4142114621448254
 10
193.6862710319034
 20
183.334181516782
 10
193.6862710319033
 20
184.074181516782
 10
192.9462710319034
 20
184.074181516782
 42
0.4142104866641195
 10
192.7904815582106
 20
183.9183936790818
 42
-1.000005250638332
 10
192.4789026108508
 20
183.9183920430977
 10
192.4789026108508
 20
184.8141815167819
 10
190.5315341897983
 20
184.8141815167819
  0
LWPOLYLINE
  5
69
330
2
100
AcDbEntity
  8
CUT_THRU
100
AcDbPolyline
 90
       45
 70
     1
 43
0.0
 10
163.4994640143617
 20
202.8156552009911
 10
163.4994640143617
 20
201.9198657273069
 42
-1.0
 10
163.1878850669934
 20
201.9198657273069
 42
0.4142135623730951
 10
163.0320955933092
 20
202.0756552009911
 10
160.4680605055901
 20
202.0756552009911
 10
160.4680605055901
 20
199.512918358886
 42
0.4142135623730951
 10
160.6238499792743
 20
199.3571288852018
 42
-1.0
 10
160.6238499792743
 20
199.0455499378334
 10
159.5722710319059
 20
199.0455499378334
 42
-0.9999999999754436
 10
159.5722722925847
 20
199.3571288852069
 42
0.4142111922260728
 10
159.7280605055902
 20
199.512918358886
 10
159.7280605055901
 20
202.8156552009911
 10
140.501042961732
 20
202.8156552009911
 10
140.501042961732
 20
201.9198657273069
 42
-1.0
 10
140.1894640143636
 20
201.9198657273069
 42
0.4142135623730951
 10
140.0336745406794
 20
202.0756552009911
 10
137.4696394529603
 20
202.0756552009911
 10
137.4696394529603
 20
199.512918358886
 42
0.4142135623730951
 10
137.6254289266444
 20
199.3571288852018
 42
-1.0
 10
137.6254289266444
 20
199.0455499378334
 10
136.7296394529603
 20
199.0455499378334
 10
136.7296394529603
 20
185.2893394115186
 10
145.0124464705035
 20
185.2893394115186
 10
145.0124464705035
 20
186.1851288852028
 42
-1.0
 10
145.3240254178719
 20
186.1851288852028
 42
0.4142135623730951
 10
145.4798148915561
 20
186.0293394115186
 10
148.0438499792753
 20
186.0293394115186
 10
148.0438499792753
 20
188.5920762536237
 42
0.4142135623731618
 10
147.888060505591
 20
188.747865727308
 42
-1.0
 10
147.888060505591
 20
189.0594446746763
 10
148.9396394529594
 20
189.0594446746763
 42
-1.0
 10
148.9396394529594
 20
188.7478657273079
 42
0.4142135623730951
 10
148.7838499792752
 20
188.5920762536237
 10
148.7838499792752
 20
185.2893394115186
 10
168.0108675231334
 20
185.2893394115186
 10
168.0108675231334
 20
186.1851288852028
 42
-1.0
 10
168.3224464705017
 20
186.1851288852028
 42
0.4142135623730951
 10
168.4782359441859
 20
186.0293394115186
 10
171.042271031905
 20
186.0293394115186
 10
171.042271031905
 20
188.5920762536237
 42
0.4142135623731618
 10
170.8864815582208
 20
188.747865727308
 42
-1.0
 10
170.8864815582208
 20
189.0594446746763
 10
171.782271031905
 20
189.0594446746763
 10
171.782271031905
 20
202.8156552009911
 10
163.4994640143617
 20
202.8156552009911
  0
LWPOLYLINE
  5
6A
330
2
100
AcDbEntity
  8
CUT_THRU
100
AcDbPolyline
 90
       57
 70
     1
 43
0.0
 10
112.9912184003306
 20
202.0756552009911
 10
112.9912184003305
 20
197.4409183588861
 42
0.4142135623730951
 10
113.1470078740147
 20
197.2851288852019
 42
-1.0
 10
113.1470078740147
 20
196.9735499378336
 10
112.0954289266464
 20
196.9735499378336
 42
-0.9999999999669173
 10
112.095430389915
 20
197.2851288852089
 42
0.4142108113461239
 10
112.2512184003306
 20
197.4409183588861
 10
112.2512184003306
 20
202.8156552009911
 10
104.7084113827873
 20
202.8156552009912
 10
104.7084113827873
 20
201.9198657273069
 42
-1.0
 10
104.3968324354189
 20
201.9198657273069
 42
0.4142135623730951
 10
104.2410429617347
 20
202.0756552009911
 10
100.9370078740157
 20
202.0756552009911
 10
100.9370078740157
 20
179.4472341483612
 10
108.7524464705063
 20
179.4472341483612
 42
0.4142135623730784
 10
108.9082359441905
 20
179.6030236220455
 42
-1.0
 10
109.2198148915589
 20
179.6030236220455
 10
109.2198148915589
 20
178.5514446746771
 42
-1.0
 10
108.9082359441905
 20
178.5514446746771
 42
0.4142135623730951
 10
108.7524464705063
 20
178.7072341483613
 10
107.1491131371731
 20
178.7072341483613
 10
109.0964815582256
 20
168.5030236220463
 10
110.5764815582255
 20
168.5030236220463
 42
0.4142135623730818
 10
110.7322710319097
 20
168.6588130957305
 42
-1.0
 10
111.0438499792781
 20
168.6588130957305
 10
111.0438499792781
 20
167.7630236220464
 10
112.9912184003306
 20
167.7630236220464
 10
112.9912184003306
 20
173.6051288852038
 10
112.0954289266464
 20
173.6051288852038
 42
-1.0
 10
112.0954289266464
 20
173.9167078325722
 42
0.4142135623730966
 10
112.2512184003306
 20
174.0724973062564
 10
112.2512184003306
 20
190.391444674676
 10
105.1757798038399
 20
190.391444674676
 42
0.4142135623730951
 10
105.0199903301557
 20
190.235655200992
 42
-1.0
 10
104.7084113827873
 20
190.235655200992
 10
104.7084113827873
 20
191.2872341483604
 42
-0.9999999999721607
 10
105.0199903301615
 20
191.2872328060597
 42
0.4142110387725264
 10
105.1757798038399
 20
191.1314446746762
 10
123.9354289266455
 20
191.1314446746762
 10
123.9354289266455
 20
196.506181516781
 42
0.4142135623730284
 10
123.7796394529613
 20
196.6619709904652
 42
-1.0
 10
123.7796394529613
 20
196.9735499378336
 10
124.8312184003296
 20
196.9735499378336
 42
-1.0
 10
124.8312184003296
 20
196.6619709904652
 42
0.4142135623730911
 10
124.6754289266454
 20
196.506181516781
 10
124.6754289266454
 20
190.391444674676
 10
132.2182359441887
 20
190.391444674676
 10
132.2182359441887
 20
191.2872341483604
 42
-1.0
 10
132.5298148915571
 20
191.2872341483604
 42
0.4142135623730951
 10
132.6856043652413
 20
191.1314446746762
 10
135.9896394529604
 20
191.1314446746762
 10
135.9896394529604
 20
202.8156552009912
 10
132.2182359441887
 20
202.8156552009911
 10
132.2182359441887
 20
201.9198657273069
 42
-0.9999999999725087
 10
131.9066569968146
 20
201.919867061889
 42
0.4142110532839471
 10
131.7508675231361
 20
202.0756552009911
 10
112.9912184003306
 20
202.0756552009911
  0
LWPOLYLINE
  5
6B
330
2
100
AcDbEntity
  8
CUT_THRU
100
AcDbPolyline
 90
       25
 70
     1
 43
0.0
 10
113.7312184003305
 20
188.9114446746763
 10
113.7312184003305
 20
172.1251288852039
 10
114.6270078740146
 20
172.1251288852039
 42
-1.0
 10
114.6270078740146
 20
171.8135499378355
 42
0.4142135623730974
 10
114.4712184003304
 20
171.6577604641513
 10
114.4712184003305
 20
166.2830236220464
 10
115.678586821383
 20
166.2830236220464
 10
115.678586821383
 20
167.1788130957306
 42
-1.0
 10
115.9901657687514
 20
167.1788130957306
 42
0.4142135623730951
 10
116.1459552424356
 20
167.0230236220464
 10
117.6259552424355
 20
167.0230236220464
 10
119.5733236634879
 20
177.2272341483614
 10
117.9686920845407
 20
177.2272341483614
 42
0.4142135623730991
 10
117.8129026108565
 20
177.0714446746772
 42
-1.0
 10
117.5013236634881
 20
177.0714446746772
 10
117.5013236634881
 20
178.1230236220456
 42
-1.0
 10
117.8129026108565
 20
178.1230236220456
 42
0.4142135623730911
 10
117.9686920845407
 20
177.9672341483613
 10
130.5175341898029
 20
177.9672341483614
 10
130.5175341898029
 20
189.6514446746763
 10
125.4154289266454
 20
189.6514446746763
 10
125.4154289266454
 20
188.7556552009921
 42
-1.0
 10
125.103849979277
 20
188.7556552009921
 42
0.4142135623730951
 10
124.9480605055928
 20
188.9114446746763
 10
113.7312184003305
 20
188.9114446746763
  0
LWPOLYLINE
  5
6C
330
2
100
AcDbEntity
  8
CUT_THRU
100
AcDbPolyline
 90
       17
 70
     1
 43
0.0
 10
106.2834370536911
 20
168.4952341483621
 10
106.283437053691
 20
163.1204973062573
 42
-0.4142135623730951
 10
106.1276475800069
 20
162.964707832573
 42
1.0
 10
106.1276475800069
 20
162.6531288852046
 10
107.023437053691
 20
162.6531288852047
 10
107.023437053691
 20
156.8110236220472
 10
105.0760686326385
 20
156.8110236220472
 10
105.0760686326385
 20
157.7068130957314
 42
1.0
 10
104.7644896852701
 20
157.7068130957314
 42
-0.4142135623730951
 10
104.6087002115859
 20
157.5510236220472
 10
103.128700211586
 20
157.5510236220472
 10
101.1813317905335
 20
167.7552341483622
 10
102.7846651238668
 20
167.7552341483622
 42
-0.4142135623730951
 10
102.940454597551
 20
167.5994446746779
 42
1.0
 10
103.2520335449194
 20
167.5994446746779
 10
103.2520335449194
 20
168.4952341483621
 10
106.2834370536911
 20
168.4952341483621
  0
LWPOLYLINE
  5
6D
330
2
100
AcDbEntity
  8
CUT_THRU
100
AcDbPolyline
 90
       14
 70
     1
 43
0.0
 10
101.6770078740157
 20
174.8124973062563
 10
100.9370078740157
 20
174.8124973062563
 10
100.9370078740157
 20
172.8651288852039
 10
101.8327973476998
 20
172.8651288852039
 42
-1.0
 10
101.8327973476998
 20
172.5535499378355
 42
0.4142135623730974
 10
101.6770078740156
 20
172.3977604641513
 10
101.6770078740156
 20
171.6577604641513
 10
102.4170078740156
 20
171.6577604641513
 42
0.4142135623730951
 10
102.5727973476998
 20
171.8135499378355
 42
-1.0
 10
102.8843762950682
 20
171.8135499378355
 10
102.8843762950682
 20
170.9177604641514
 10
104.8317447161207
 20
170.9177604641514
 10
104.8317447161207
 20
171.6577604641513
 10
101.6770078740157
 20
174.8124973062563
  0
LWPOLYLINE
  5
6E
330
2
100
AcDbEntity
  8
CUT_THRU
100
AcDbPolyline
 90
       14
 70
     1
 43
0.0
 10
101.6770078740156
 20
178.7072341483614
 10
100.9370078740157
 20
178.7072341483613
 10
100.9370078740157
 20
176.7598657273088
 10
101.8327973476998
 20
176.7598657273088
 42
-1.0
 10
101.8327973476998
 20
176.4482867799405
 42
0.4142135623730951
 10
101.6770078740156
 20
176.2924973062563
 10
101.6770078740156
 20
175.5524973062563
 10
102.4170078740156
 20
175.5524973062563
 42
0.4142135623730951
 10
102.5727973476998
 20
175.7082867799405
 42
-1.0
 10
102.8843762950682
 20
175.7082867799405
 10
102.8843762950682
 20
174.8124973062564
 10
104.8317447161207
 20
174.8124973062564
 10
104.8317447161207
 20
175.5524973062563
 10
101.6770078740156
 20
178.7072341483614
  0
INSERT
  5
6F
330
2
100
AcDbEntity
  8
CUT_HOLE
100
AcDbBlockReference
  2
FASTENER
 10
189.0105415346317
 20
200.1282886686251
 30
0.0
 41
-1.0
 50
270.0
  0
INSERT
  5
78
330
2
100
AcDbEntity
  8
CUT_HOLE
100
AcDbBlockReference
  2
FASTENER
 10
190.662559078491
 20
191.5014465633626
 30
0.0
 41
-1.0
 50
270.0
  0
INSERT
  5
79
330
2
100
AcDbEntity
  8
CUT_HOLE
100
AcDbBlockReference
  2
FASTENER
 10
191.2715341897982
 20
188.3389183588869
 30
0.0
 50
90.0
  0
INSERT
  5
7A
330
2
100
AcDbEntity
  8
CUT_HOLE
100
AcDbBlockReference
  2
FASTENER
 10
191.2715341897982
 20
184.4441815167819
 30
0.0
 50
90.0
  0
INSERT
  5
7B
330
2
100
AcDbEntity
  8
CUT_HOLE
100
AcDbBlockReference
  2
FASTENER
 10
194.0562710319033
 20
185.5541815167819
 30
0.0
 50
90.0
  0
INSERT
  5
7C
330
2
100
AcDbEntity
  8
CUT_HOLE
100
AcDbBlockReference
  2
FASTENER
 10
194.0562710319033
 20
181.6594446746769
 30
0.0
 50
90.0
  0
INSERT
  5
7D
330
2
100
AcDbEntity
  8
CUT_HOLE
100
AcDbBlockReference
  2
FASTENER
 10
194.0562710319033
 20
174.337341300206
 30
0.0
 50
90.0
  0
INSERT
  5
7E
330
2
100
AcDbEntity
  8
CUT_HOLE
100
AcDbBlockReference
  2
FASTENER
 10
192.4042534880438
 20
168.8652360370485
 30
0.0
 50
90.0
  0
INSERT
  5
7F
330
2
100
AcDbEntity
  8
CUT_HOLE
100
AcDbBlockReference
  2
FASTENER
 10
182.7420605055883
 20
165.5741834054698
 30
-0.0000000000000891
 50
90.0
  0
INSERT
  5
80
330
2
100
AcDbEntity
  8
CUT_HOLE
100
AcDbBlockReference
  2
FASTENER
 10
186.6497798038337
 20
157.1810255107337
 30
0.0
 50
90.0
  0
INSERT
  5
81
330
2
100
AcDbEntity
  8
CUT_HOLE
100
AcDbBlockReference
  2
FASTENER
 10
184.3940780494479
 20
180.5494465633634
 30
-0.0000000000000942
 50
90.0
  0
INSERT
  5
82
330
2
100
AcDbEntity
  8
CUT_HOLE
100
AcDbBlockReference
  2
FASTENER
 10
179.610692084536
 20
182.0294465633634
 30
0.0
 50
90.0
  0
INSERT
  5
83
330
2
100
AcDbEntity
  8
CUT_HOLE
100
AcDbBlockReference
  2
FASTENER
 10
181.2620605055885
 20
184.3468149844158
 30
0.0
 50
90.0
  0
INSERT
  5
84
330
2
100
AcDbEntity
  8
CUT_HOLE
100
AcDbBlockReference
  2
FASTENER
 10
182.7420605055883
 20
189.176288668626
 30
0.0
 50
90.0
  0
INSERT
  5
85
330
2
100
AcDbEntity
  8
CUT_HOLE
100
AcDbBlockReference
  2
FASTENER
 10
171.412271031905
 20
195.8012341483601
 30
0.0
 50
90.0
  0
INSERT
  5
86
330
2
100
AcDbEntity
  8
CUT_HOLE
100
AcDbBlockReference
  2
FASTENER
 10
166.7418324354142
 20
185.6593394115186
 30
0.0
 50
90.0
  0
INSERT
  5
87
330
2
100
AcDbEntity
  8
CUT_HOLE
100
AcDbBlockReference
  2
FASTENER
 10
167.1631131371686
 20
170.3452360370484
 30
0.0
 50
90.0
  0
INSERT
  5
88
330
2
100
AcDbEntity
  8
CUT_HOLE
100
AcDbBlockReference
  2
FASTENER
 10
166.9164464705019
 20
168.8652360370486
 30
0.0
 50
90.0
  0
INSERT
  5
89
330
2
100
AcDbEntity
  8
CUT_HOLE
100
AcDbBlockReference
  2
FASTENER
 10
171.0578499792735
 20
159.8683939317861
 30
0.0
 50
90.0
  0
INSERT
  5
8A
330
2
100
AcDbEntity
  8
CUT_HOLE
100
AcDbBlockReference
  2
FASTENER
 10
161.025656996818
 20
157.1810255107337
 30
-0.0000000000000328
 50
90.0
  0
INSERT
  5
8B
330
2
100
AcDbEntity
  8
CUT_HOLE
100
AcDbBlockReference
  2
FASTENER
 10
156.9816219090991
 20
173.9673394115196
 30
0.0
 50
90.0
  0
INSERT
  5
8C
330
2
100
AcDbEntity
  8
CUT_HOLE
100
AcDbBlockReference
  2
FASTENER
 10
125.2330254178735
 20
157.1810236220472
 30
0.0
 50
90.0
  0
INSERT
  5
8D
330
2
100
AcDbEntity
  8
CUT_HOLE
100
AcDbBlockReference
  2
FASTENER
 10
135.2652184003289
 20
168.3589183588884
 30
0.0
 50
90.0
  0
INSERT
  5
8E
330
2
100
AcDbEntity
  8
CUT_HOLE
100
AcDbBlockReference
  2
FASTENER
 10
146.9494289266438
 20
162.7894446746783
 30
0.0
 50
90.0
  0
INSERT
  5
8F
330
2
100
AcDbEntity
  8
CUT_HOLE
100
AcDbBlockReference
  2
FASTENER
 10
145.0150429617315
 20
157.1810236220472
 30
0.0
 50
90.0
  0
INSERT
  5
90
330
2
100
AcDbEntity
  8
CUT_HOLE
100
AcDbBlockReference
  2
FASTENER
 10
137.199604365241
 20
173.9673394115196
 30
0.0
 50
90.0
  0
INSERT
  5
91
330
2
100
AcDbEntity
  8
CUT_HOLE
100
AcDbBlockReference
  2
FASTENER
 10
128.2001657687505
 20
189.2814427859898
 30
-0.0000000000000476
 50
90.0
  0
INSERT
  5
92
330
2
100
AcDbEntity
  8
CUT_HOLE
100
AcDbBlockReference
  2
FASTENER
 10
128.4468324354171
 20
190.7614427859897
 30
0.0
 50
90.0
  0
INSERT
  5
93
330
2
100
AcDbEntity
  8
CUT_HOLE
100
AcDbBlockReference
  2
FASTENER
 10
124.3054289266455
 20
199.7582848912522
 30
0.0
 50
90.0
  0
INSERT
  5
94
330
2
100
AcDbEntity
  8
CUT_HOLE
100
AcDbBlockReference
  2
FASTENER
 10
134.3376219091009
 20
202.4456533123046
 30
0.0
 50
90.0
  0
INSERT
  5
95
330
2
100
AcDbEntity
  8
CUT_HOLE
100
AcDbBlockReference
  2
FASTENER
 10
141.7700780494511
 20
202.4456552009911
 30
0.0
 50
90.0
  0
INSERT
  5
96
330
2
100
AcDbEntity
  8
CUT_HOLE
100
AcDbBlockReference
  2
FASTENER
 10
137.0996394529603
 20
192.3037604641498
 30
0.0
 50
90.0
  0
INSERT
  5
97
330
2
100
AcDbEntity
  8
CUT_HOLE
100
AcDbBlockReference
  2
FASTENER
 10
115.752586821383
 20
177.597232259675
 30
0.0
 50
90.0
  0
INSERT
  5
98
330
2
100
AcDbEntity
  8
CUT_HOLE
100
AcDbBlockReference
  2
FASTENER
 10
114.1012184003304
 20
175.2798638386225
 30
0.0
 50
90.0
  0
INSERT
  5
99
330
2
100
AcDbEntity
  8
CUT_HOLE
100
AcDbBlockReference
  2
FASTENER
 10
112.6212184003306
 20
170.4503901544123
 30
0.0
 50
90.0
  0
INSERT
  5
9A
330
2
100
AcDbEntity
  8
CUT_HOLE
100
AcDbBlockReference
  2
FASTENER
 10
106.653437053691
 20
159.4983901544132
 30
0.0
 41
-1.0
 50
270.0
  0
INSERT
  5
9B
330
2
100
AcDbEntity
  8
CUT_HOLE
100
AcDbBlockReference
  2
FASTENER
 10
105.0014195098315
 20
168.1252322596757
 30
0.0
 41
-1.0
 50
270.0
  0
INSERT
  5
9C
330
2
100
AcDbEntity
  8
CUT_HOLE
100
AcDbBlockReference
  2
FASTENER
 10
104.0917447161207
 20
171.2877604641513
 30
0.0
 50
90.0
  0
INSERT
  5
9D
330
2
100
AcDbEntity
  8
CUT_HOLE
100
AcDbBlockReference
  2
FASTENER
 10
104.0917447161207
 20
175.1824973062563
 30
0.0
 50
90.0
  0
INSERT
  5
9E
330
2
100
AcDbEntity
  8
CUT_HOLE
100
AcDbBlockReference
  2
FASTENER
 10
101.3070078740157
 20
174.0724973062564
 30
0.0
 50
90.0
  0
INSERT
  5
9F
330
2
100
AcDbEntity
  8
CUT_HOLE
100
AcDbBlockReference
  2
FASTENER
 10
101.3070078740157
 20
177.9672341483614
 30
0.0
 50
90.0
  0
INSERT
  5
A0
330
2
100
AcDbEntity
  8
CUT_HOLE
100
AcDbBlockReference
  2
FASTENER
 10
101.3070078740156
 20
185.2893375228323
 30
-0.0000000000001186
 50
90.0
  0
INSERT
  5
A1
330
2
100
AcDbEntity
  8
CUT_HOLE
100
AcDbBlockReference
  2
FASTENER
 10
102.9590254178752
 20
190.7614427859897
 30
0.0
 50
90.0
  0
INSERT
  5
A2
330
2
100
AcDbEntity
  8
CUT_HOLE
100
AcDbBlockReference
  2
FASTENER
 10
110.9692008564711
 20
179.0772322596748
 30
-0.0000000000000897
 50
90.0
  0
INSERT
  5
A3
330
2
100
AcDbEntity
  8
CUT_HOLE
100
AcDbBlockReference
  2
FASTENER
 10
112.6212184003306
 20
194.0524954175685
 30
0.0
 50
90.0
  0
INSERT
  5
A4
330
2
100
AcDbEntity
  8
CUT_HOLE
100
AcDbBlockReference
  2
FASTENER
 10
108.7134991020853
 20
202.4456533123046
 30
0.0
 50
90.0
  0
LWPOLYLINE
  5
A5
330
2
100
AcDbEntity
  8
000_NOTES
100
AcDbPolyline
 90
        4
 70
     1
 43
0.0
 10
99.9370078740157
 20
155.8110236220472
 10
195.9370078740157
 20
155.8110236220472
 10
195.9370078740157
 20
203.8110236220472
 10
99.9370078740157
 20
203.8110236220472
  0
LWPOLYLINE
  5
A7
330
2
100
AcDbEntity
  8
CUT_THRU
100
AcDbPolyline
 90
       45
 70
     1
 43
0.0
 10
176.8999552424308
 20
128.2424368006612
 10
176.8999552424309
 20
117.2982262743462
 10
188.1167973476932
 20
117.2982262743462
 42
0.4142135623730618
 10
188.2725868213774
 20
117.4540157480304
 42
-1.0
 10
188.5841657687457
 20
117.4540157480304
 10
188.5841657687457
 20
116.4024368006622
 42
-1.0
 10
188.2725868213774
 20
116.4024368006622
 42
0.4142135623730951
 10
188.1167973476932
 20
116.5582262743463
 10
176.8999552424308
 20
116.5582262743463
 10
176.8999552424308
 20
110.7161210111889
 10
177.795744716115
 20
110.7161210111889
 42
-1.0
 10
177.795744716115
 20
110.4045420638205
 42
0.4142135623730951
 10
177.6399552424308
 20
110.2487525901364
 10
177.6399552424308
 20
105.6140157480313
 10
188.1167973476932
 20
105.6140157480313
 42
0.4142135623730618
 10
188.2725868213774
 20
105.7698052217155
 42
-1.0
 10
188.5841657687457
 20
105.7698052217155
 10
188.5841657687457
 20
104.8740157480314
 10
194.4262710319032
 20
104.8740157480315
 10
194.4262710319032
 20
110.7161210111889
 10
193.5304815582191
 20
110.7161210111889
 42
-1.0
 10
193.5304815582191
 20
111.0276999585574
 42
0.4142135623730951
 10
193.6862710319033
 20
111.1834894322414
 10
193.6862710319033
 20
116.0908578532937
 42
0.4142135623730951
 10
193.5304815582191
 20
116.2466473269779
 42
-1.0
 10
193.5304815582191
 20
116.5582262743463
 10
194.4262710319032
 20
116.5582262743463
 10
194.4262710319032
 20
134.0845420638187
 10
193.5304815582191
 20
134.0845420638187
 42
-1.0
 10
193.5304815582191
 20
134.396121011187
 42
0.4142135623730951
 10
193.6862710319033
 20
134.5519104848712
 10
193.6862710319033
 20
139.9266473269761
 10
192.4789026108506
 20
139.9266473269761
 10
192.4789026108506
 20
139.030857853292
 42
-1.0
 10
192.1673236634823
 20
139.030857853292
 42
0.4142135623730951
 10
192.0115341897982
 20
139.1866473269762
 10
190.5315341897983
 20
139.1866473269762
 10
188.5841657687457
 20
128.9824368006611
 10
190.188797347693
 20
128.9824368006611
 42
0.4142135623730951
 10
190.3445868213772
 20
129.1382262743453
 42
-1.0
 10
190.6561657687456
 20
129.1382262743453
 10
190.6561657687456
 20
128.086647326977
 42
-1.0
 10
190.3445868213772
 20
128.086647326977
 42
0.4142135623730951
 10
190.188797347693
 20
128.2424368006612
 10
176.8999552424308
 20
128.2424368006612
  0
LWPOLYLINE
  5
A8
330
2
100
AcDbEntity
  8
CUT_THRU
100
AcDbPolyline
 90
       45
 70
     1
 43
0.0
 10
152.2988499792749
 20
128.2424368006611
 42
0.4142135623730795
 10
152.1430605055906
 20
128.0866473269769
 42
-1.0
 10
151.8314815582223
 20
128.0866473269769
 10
151.8314815582223
 20
129.1382262743453
 42
-1.0
 10
152.1430605055906
 20
129.1382262743453
 42
0.414213562373096
 10
152.2988499792749
 20
128.9824368006611
 10
153.9034815582221
 20
128.9824368006611
 10
151.9561131371697
 20
139.1866473269762
 10
150.4761131371698
 20
139.1866473269762
 42
0.4142135623730641
 10
150.3203236634856
 20
139.030857853292
 42
-1.0
 10
150.0087447161171
 20
139.030857853292
 10
150.0087447161171
 20
139.9266473269761
 10
148.8013762950645
 20
139.9266473269761
 10
148.8013762950645
 20
134.5519104848712
 42
0.4142135623730618
 10
148.9571657687488
 20
134.396121011187
 42
-1.0
 10
148.9571657687488
 20
134.0845420638187
 10
148.0613762950647
 20
134.0845420638187
 10
148.0613762950647
 20
116.5582262743462
 10
148.9571657687488
 20
116.5582262743462
 42
-1.0
 10
148.9571657687488
 20
116.2466473269778
 42
0.4142135623730952
 10
148.8013762950645
 20
116.0908578532936
 10
148.8013762950645
 20
111.1834894322414
 42
0.4142135623731289
 10
148.9571657687488
 20
111.0276999585572
 42
-1.0
 10
148.9571657687488
 20
110.7161210111889
 10
148.0613762950647
 20
110.7161210111889
 10
148.0613762950647
 20
104.8740157480315
 10
153.9034815582221
 20
104.8740157480315
 10
153.9034815582221
 20
105.7698052217155
 42
-1.0
 10
154.2150605055905
 20
105.7698052217155
 42
0.4142135623730991
 10
154.3708499792747
 20
105.6140157480313
 10
164.847692084537
 20
105.6140157480313
 10
164.847692084537
 20
110.2487525901363
 42
0.4142135623730825
 10
164.6919026108529
 20
110.4045420638205
 42
-1.0
 10
164.6919026108529
 20
110.7161210111889
 10
165.5876920845369
 20
110.7161210111889
 10
165.5876920845369
 20
116.5582262743462
 10
154.3708499792747
 20
116.5582262743462
 42
0.4142135623730641
 10
154.2150605055905
 20
116.402436800662
 42
-1.0
 10
153.9034815582221
 20
116.402436800662
 10
153.9034815582221
 20
117.4540157480304
 42
-1.0
 10
154.2150605055905
 20
117.4540157480304
 42
0.4142135623730804
 10
154.3708499792747
 20
117.2982262743462
 10
165.5876920845369
 20
117.2982262743462
 10
165.5876920845369
 20
128.2424368006611
 10
152.2988499792749
 20
128.2424368006611
 42
0.4142135623730795
  0
LWPOLYLINE
  5
A9
330
2
100
AcDbEntity
  8
CUT_THRU
100
AcDbPolyline
 90
       53
 70
     1
 43
0.0
 10
157.5668061196253
 20
150.1386473269753
 42
0.4142135623730784
 10
157.4110166459409
 20
149.9828578532912
 42
-1.0
 10
157.0994376985727
 20
149.9828578532912
 10
157.0994376985727
 20
150.8786473269753
 10
153.328034189801
 20
150.8786473269753
 10
153.328034189801
 20
139.1944368006603
 10
154.2238236634851
 20
139.1944368006603
 42
-1.0
 10
154.2238236634851
 20
138.8828578532919
 42
0.4142135623730993
 10
154.068034189801
 20
138.7270683796077
 10
154.068034189801
 20
134.0923315375029
 10
156.63206927752
 20
134.0923315375029
 42
0.4142135623730951
 10
156.7878587512043
 20
134.2481210111871
 42
-1.0
 10
157.0994376985727
 20
134.2481210111871
 10
157.0994376985727
 20
133.3523315375029
 10
164.6422447161159
 20
133.352331537503
 10
164.642244716116
 20
138.7270683796077
 42
0.4142135623730951
 10
164.4864552424318
 20
138.8828578532919
 42
-1.0
 10
164.4864552424318
 20
139.1944368006603
 10
165.5380341898001
 20
139.1944368006603
 42
-1.0
 10
165.5380341898001
 20
138.8828578532919
 42
0.4142135623730951
 10
165.382244716116
 20
138.7270683796077
 10
165.382244716116
 20
133.3523315375029
 10
177.0664552424308
 20
133.3523315375029
 10
177.0664552424308
 20
134.2481210111871
 42
-1.0
 10
177.3780341897992
 20
134.2481210111871
 42
0.4142135623730951
 10
177.5338236634834
 20
134.0923315375029
 10
184.1418938389215
 20
134.0923315375029
 42
0.4142135623731117
 10
184.2976833126057
 20
134.2481210111871
 42
-1.0
 10
184.6092622599741
 20
134.2481210111871
 10
184.6092622599741
 20
133.3523315375029
 10
188.3806657687457
 20
133.3523315375029
 10
188.3806657687457
 20
145.0365420638178
 10
187.4848762950617
 20
145.0365420638178
 42
-1.0
 10
187.4848762950617
 20
145.3481210111861
 42
0.4142135623731117
 10
187.6406657687459
 20
145.5039104848704
 10
187.6406657687459
 20
150.1386473269754
 10
185.0766306810267
 20
150.1386473269753
 42
0.414211336539854
 10
184.920841207338
 20
149.9828590372185
 42
-1.000003799774104
 10
184.6092622599741
 20
149.9828578532912
 10
184.6092622599741
 20
150.8786473269753
 10
177.0664552424308
 20
150.8786473269753
 10
177.0664552424308
 20
145.5039104848704
 42
0.4142135623730951
 10
177.222244716115
 20
145.3481210111861
 42
-1.0
 10
177.222244716115
 20
145.0365420638178
 10
176.1706657687467
 20
145.0365420638178
 42
-1.0
 10
176.1706657687467
 20
145.3481210111861
 42
0.4142135623730951
 10
176.3264552424309
 20
145.5039104848704
 10
176.3264552424308
 20
150.8786473269753
 10
164.642244716116
 20
150.8786473269753
 10
164.642244716116
 20
149.9828578532912
 42
-1.0
 10
164.3306657687476
 20
149.9828578532912
 42
0.4142135623731117
 10
164.1748762950634
 20
150.1386473269753
 10
157.5668061196253
 20
150.1386473269753
 42
0.4142135623730784
  0
INSERT
  5
AA
330
2
100
AcDbEntity
  8
CUT_HOLE
100
AcDbBlockReference
  2
FASTENER
 10
153.6980341898011
 20
145.2702262743441
 30
0.0
 50
90.0
  0
INSERT
  5
AB
330
2
100
AcDbEntity
  8
CUT_HOLE
100
AcDbBlockReference
  2
FASTENER
 10
188.010665768746
 20
138.9607525901341
 30
0.0
 50
90.0
  0
LWPOLYLINE
  5
AC
330
2
100
AcDbEntity
  8
000_NOTES
100
AcDbPolyline
 90
        4
 70
     1
 43
0.0
 10
99.93700787401564
 20
103.8740157480315
 10
195.9370078740157
 20
103.8740157480315
 10
195.9370078740157
 20
151.8740157480315
 10
99.93700787401564
 20
151.8740157480315
  0
ENDSEC
  0
SECTION
  2
OBJECTS
  0
DICTIONARY
  5
9
330
0
100
AcDbDictionary
281
     1
  3
ACAD_2007HEADERVARS_RT
350
C0
  3
ACAD_COLOR
350
36
  3
ACAD_GROUP
350
2D
  3
ACAD_LAYOUT
350
11
  3
ACAD_MATERIAL
350
B
  3
ACAD_MLEADERSTYLE
350
39
  3
ACAD_MLINESTYLE
350
2E
  3
ACAD_PLOTSETTINGS
350
2F
  3
ACAD_PLOTSTYLENAME
350
8
  3
ACAD_SCALELIST
350
37
  3
ACAD_TABLESTYLE
350
38
  3
ACAD_VISUALSTYLE
350
25
  3
ACDB_RECOMPOSE_DATA
350
BF
  3
AcDbVariableDictionary
350
AE
  3
AcDsDecomposeData
350
C7
  0
DICTIONARY
  5
27
330
22
100
AcDbDictionary
280
     1
281
     1
  0
DICTIONARY
  5
18
330
17
100
AcDbDictionary
280
     1
281
     1
  3
ACAD_LAYERSTATES
360
19
  0
DICTIONARY
  5
3
330
2
100
AcDbDictionary
280
     1
281
     1
  3
ACAD_SORTENTS
360
AD
  0
DICTIONARY
  5
72
330
71
100
AcDbDictionary
280
     1
281
     1
  0
DICTIONARY
  5
C0
102
{ACAD_REACTORS
330
9
102
}
330
9
100
AcDbDictionary
281
     1
  3
INTERFERECOLOR
350
C1
  0
DICTIONARY
  5
36
102
{ACAD_REACTORS
330
9
102
}
330
9
100
AcDbDictionary
281
     1
  0
DICTIONARY
  5
2D
102
{ACAD_REACTORS
330
9
102
}
330
9
100
AcDbDictionary
281
     1
  0
DICTIONARY
  5
11
102
{ACAD_REACTORS
330
9
102
}
330
9
100
AcDbDictionary
281
     1
  3
Layout1
350
16
  3
Model
350
10
  0
DICTIONARY
  5
B
102
{ACAD_REACTORS
330
9
102
}
330
9
100
AcDbDictionary
281
     1
  3
ByBlock
350
33
  3
ByLayer
350
30
  3
Global
350
A
  0
DICTIONARY
  5
39
102
{ACAD_REACTORS
330
9
102
}
330
9
100
AcDbDictionary
281
     1
  0
DICTIONARY
  5
2E
102
{ACAD_REACTORS
330
9
102
}
330
9
100
AcDbDictionary
281
     1
  3
Standard
350
3A
  0
DICTIONARY
  5
2F
102
{ACAD_REACTORS
330
9
102
}
330
9
100
AcDbDictionary
281
     1
  0
ACDBDICTIONARYWDFLT
  5
8
102
{ACAD_REACTORS
330
9
102
}
330
9
100
AcDbDictionary
281
     1
  3
Normal
350
7
100
AcDbDictionaryWithDefault
340
7
  0
DICTIONARY
  5
37
102
{ACAD_REACTORS
330
9
102
}
330
9
100
AcDbDictionary
281
     1
  3
A0
350
3F
  3
A1
350
40
  3
A2
350
41
  3
A3
350
42
  3
A4
350
43
  3
A5
350
44
  3
A6
350
45
  3
A7
350
46
  3
A8
350
47
  3
A9
350
48
  3
B0
350
49
  3
B1
350
4A
  3
B2
350
4B
  3
B3
350
4C
  3
B4
350
4D
  3
B5
350
4E
  3
B6
350
4F
  3
B7
350
50
  3
B8
350
51
  3
B9
350
52
  3
C0
350
53
  3
C1
350
54
  3
C2
350
55
  3
C3
350
56
  3
C4
350
57
  3
C5
350
58
  3
C6
350
59
  3
C7
350
5A
  3
C8
350
5B
  3
C9
350
5C
  3
D0
350
5D
  3
D1
350
5E
  3
D2
350
5F
  0
DICTIONARY
  5
38
102
{ACAD_REACTORS
330
9
102
}
330
9
100
AcDbDictionary
281
     1
  3
Standard
350
3B
  0
DICTIONARY
  5
25
102
{ACAD_REACTORS
330
9
102
}
330
9
100
AcDbDictionary
281
     1
  3
2dWireframe
350
24
  3
Realistic
350
3D
  3
Wireframe
350
3E
  0
XRECORD
  5
BF
102
{ACAD_REACTORS
330
9
102
}
330
9
100
AcDbXrecord
280
     1
 90
        1
330
3B
  0
DICTIONARY
  5
AE
102
{ACAD_REACTORS
330
9
102
}
330
9
100
AcDbDictionary
281
     1
  3
CANNOSCALE
350
B4
  3
CMLEADERSTYLE
350
B0
  3
CTABLESTYLE
350
AF
  3
CVIEWDETAILSTYLE
350
B1
  3
CVIEWSECTIONSTYLE
350
B2
  3
DGNFRAME
350
B9
  3
LAYEREVAL
350
B6
  3
LAYERNOTIFY
350
B7
  3
LIGHTINGUNITS
350
B5
  3
LOFTANG1
350
BA
  3
LOFTANG2
350
BB
  3
LONGITUDE
350
BC
  3
MSLTSCALE
350
B3
  3
SOLIDHIST
350
B8
  3
XCLIPFRAME
350
BD
  0
DICTIONARY
  5
C7
102
{ACAD_REACTORS
330
9
102
}
330
9
100
AcDbDictionary
281
     1
  3
AcDsRecords
350
C9
  3
AcDsSchemas
350
C8
1001
ACAD
1070
     2
  0
DICTIONARY
  5
19
102
{ACAD_REACTORS
330
18
102
}
330
18
100
AcDbDictionary
281
     1
  0
SORTENTSTABLE
  5
AD
102
{ACAD_REACTORS
330
3
102
}
330
3
100
AcDbSortentsTable
330
2
  0
XRECORD
  5
C1
102
{ACAD_REACTORS
330
C0
102
}
330
C0
100
AcDbXrecord
280
     1
1004
1800000001000000000000C0000000000000000000000000
  0
LAYOUT
  5
16
102
{ACAD_REACTORS
330
11
102
}
330
11
100
AcDbPlotSettings
  1

  2
none_device
  4

  6

 40
0.0
 41
0.0
 42
0.0
 43
0.0
 44
0.0
 45
0.0
 46
0.0
 47
0.0
 48
0.0
 49
0.0
140
0.0
141
0.0
142
1.0
143
1.0
 70
   688
 72
     0
 73
     0
 74
     5
  7

 75
    16
147
1.0
 76
     0
 77
     2
 78
   300
148
0.0
149
0.0
100
AcDbLayout
  1
Layout1
 70
     1
 71
     1
 10
0.0
 20
0.0
 11
12.0
 21
9.0
 12
0.0
 22
0.0
 32
0.0
 14
1.000000000000000E+20
 24
1.000000000000000E+20
 34
1.000000000000000E+20
 15
-1.000000000000000E+20
 25
-1.000000000000000E+20
 35
-1.000000000000000E+20
146
0.0
 13
0.0
 23
0.0
 33
0.0
 16
1.0
 26
0.0
 36
0.0
 17
0.0
 27
1.0
 37
0.0
 76
     0
330
13
  0
LAYOUT
  5
10
102
{ACAD_XDICTIONARY
360
12
102
}
102
{ACAD_REACTORS
330
11
102
}
330
11
100
AcDbPlotSettings
  1

  2
none_device
  4

  6

 40
0.0
 41
0.0
 42
0.0
 43
0.0
 44
0.0
 45
0.0
 46
0.0
 47
0.0
 48
0.0
 49
0.0
140
0.0
141
0.0
142
1.0
143
1.0
 70
  1712
 72
     0
 73
     0
 74
     0
  7

 75
     0
147
1.0
 76
     0
 77
     2
 78
   300
148
0.0
149
0.0
100
AcDbLayout
  1
Model
 70
     1
 71
     0
 10
0.0
 20
0.0
 11
12.0
 21
9.0
 12
0.0
 22
0.0
 32
0.0
 14
1.000000000000000E+20
 24
1.000000000000000E+20
 34
1.000000000000000E+20
 15
-1.000000000000000E+20
 25
-1.000000000000000E+20
 35
-1.000000000000000E+20
146
0.0
 13
0.0
 23
0.0
 33
0.0
 16
1.0
 26
0.0
 36
0.0
 17
0.0
 27
1.0
 37
0.0
 76
     0
330
2
331
23
  0
MATERIAL
  5
33
102
{ACAD_XDICTIONARY
360
34
102
}
102
{ACAD_REACTORS
330
B
102
}
330
B
100
AcDbMaterial
  1
ByBlock
 73
     1
 78
     1
172
     1
176
     1
270
     1
274
     1
  0
MATERIAL
  5
30
102
{ACAD_XDICTIONARY
360
31
102
}
102
{ACAD_REACTORS
330
B
102
}
330
B
100
AcDbMaterial
  1
ByLayer
 73
     1
 78
     1
172
     1
176
     1
270
     1
274
     1
  0
MATERIAL
  5
A
102
{ACAD_XDICTIONARY
360
C
102
}
102
{ACAD_REACTORS
330
B
102
}
330
B
100
AcDbMaterial
  1
Global
 73
     1
 78
     1
172
     1
176
     1
270
     1
274
     1
  0
MLINESTYLE
  5
3A
102
{ACAD_REACTORS
330
2E
102
}
330
2E
100
AcDbMlineStyle
  2
STANDARD
 70
     0
  3

 62
   256
 51
90.0
 52
90.0
 71
     2
 49
0.5
 62
   256
  6
BYLAYER
 49
-0.5
 62
   256
  6
BYLAYER
  0
ACDBPLACEHOLDER
  5
7
102
{ACAD_REACTORS
330
8
102
}
330
8
  0
SCALE
  5
3F
102
{ACAD_REACTORS
330
37
102
}
330
37
100
AcDbScale
 70
     0
300
1:1
140
1.0
141
1.0
290
     1
  0
SCALE
  5
40
102
{ACAD_REACTORS
330
37
102
}
330
37
100
AcDbScale
 70
     0
300
1:2
140
1.0
141
2.0
290
     0
  0
SCALE
  5
41
102
{ACAD_REACTORS
330
37
102
}
330
37
100
AcDbScale
 70
     0
300
1:4
140
1.0
141
4.0
290
     0
  0
SCALE
  5
42
102
{ACAD_REACTORS
330
37
102
}
330
37
100
AcDbScale
 70
     0
300
1:5
140
1.0
141
5.0
290
     0
  0
SCALE
  5
43
102
{ACAD_REACTORS
330
37
102
}
330
37
100
AcDbScale
 70
     0
300
1:8
140
1.0
141
8.0
290
     0
  0
SCALE
  5
44
102
{ACAD_REACTORS
330
37
102
}
330
37
100
AcDbScale
 70
     0
300
1:10
140
1.0
141
10.0
290
     0
  0
SCALE
  5
45
102
{ACAD_REACTORS
330
37
102
}
330
37
100
AcDbScale
 70
     0
300
1:16
140
1.0
141
16.0
290
     0
  0
SCALE
  5
46
102
{ACAD_REACTORS
330
37
102
}
330
37
100
AcDbScale
 70
     0
300
1:20
140
1.0
141
20.0
290
     0
  0
SCALE
  5
47
102
{ACAD_REACTORS
330
37
102
}
330
37
100
AcDbScale
 70
     0
300
1:30
140
1.0
141
30.0
290
     0
  0
SCALE
  5
48
102
{ACAD_REACTORS
330
37
102
}
330
37
100
AcDbScale
 70
     0
300
1:40
140
1.0
141
40.0
290
     0
  0
SCALE
  5
49
102
{ACAD_REACTORS
330
37
102
}
330
37
100
AcDbScale
 70
     0
300
1:50
140
1.0
141
50.0
290
     0
  0
SCALE
  5
4A
102
{ACAD_REACTORS
330
37
102
}
330
37
100
AcDbScale
 70
     0
300
1:100
140
1.0
141
100.0
290
     0
  0
SCALE
  5
4B
102
{ACAD_REACTORS
330
37
102
}
330
37
100
AcDbScale
 70
     0
300
2:1
140
2.0
141
1.0
290
     0
  0
SCALE
  5
4C
102
{ACAD_REACTORS
330
37
102
}
330
37
100
AcDbScale
 70
     0
300
4:1
140
4.0
141
1.0
290
     0
  0
SCALE
  5
4D
102
{ACAD_REACTORS
330
37
102
}
330
37
100
AcDbScale
 70
     0
300
8:1
140
8.0
141
1.0
290
     0
  0
SCALE
  5
4E
102
{ACAD_REACTORS
330
37
102
}
330
37
100
AcDbScale
 70
     0
300
10:1
140
10.0
141
1.0
290
     0
  0
SCALE
  5
4F
102
{ACAD_REACTORS
330
37
102
}
330
37
100
AcDbScale
 70
     0
300
100:1
140
100.0
141
1.0
290
     0
  0
SCALE
  5
50
102
{ACAD_REACTORS
330
37
102
}
330
37
100
AcDbScale
 70
     0
300
1/128" = 1'-0"
140
0.0078125
141
12.0
290
     0
  0
SCALE
  5
51
102
{ACAD_REACTORS
330
37
102
}
330
37
100
AcDbScale
 70
     0
300
1/64" = 1'-0"
140
0.015625
141
12.0
290
     0
  0
SCALE
  5
52
102
{ACAD_REACTORS
330
37
102
}
330
37
100
AcDbScale
 70
     0
300
1/32" = 1'-0"
140
0.03125
141
12.0
290
     0
  0
SCALE
  5
53
102
{ACAD_REACTORS
330
37
102
}
330
37
100
AcDbScale
 70
     0
300
1/16" = 1'-0"
140
0.0625
141
12.0
290
     0
  0
SCALE
  5
54
102
{ACAD_REACTORS
330
37
102
}
330
37
100
AcDbScale
 70
     0
300
3/32" = 1'-0"
140
0.09375
141
12.0
290
     0
  0
SCALE
  5
55
102
{ACAD_REACTORS
330
37
102
}
330
37
100
AcDbScale
 70
     0
300
1/8" = 1'-0"
140
0.125
141
12.0
290
     0
  0
SCALE
  5
56
102
{ACAD_REACTORS
330
37
102
}
330
37
100
AcDbScale
 70
     0
300
3/16" = 1'-0"
140
0.1875
141
12.0
290
     0
  0
SCALE
  5
57
102
{ACAD_REACTORS
330
37
102
}
330
37
100
AcDbScale
 70
     0
300
1/4" = 1'-0"
140
0.25
141
12.0
290
     0
  0
SCALE
  5
58
102
{ACAD_REACTORS
330
37
102
}
330
37
100
AcDbScale
 70
     0
300
3/8" = 1'-0"
140
0.375
141
12.0
290
     0
  0
SCALE
  5
59
102
{ACAD_REACTORS
330
37
102
}
330
37
100
AcDbScale
 70
     0
300
1/2" = 1'-0"
140
0.5
141
12.0
290
     0
  0
SCALE
  5
5A
102
{ACAD_REACTORS
330
37
102
}
330
37
100
AcDbScale
 70
     0
300
3/4" = 1'-0"
140
0.75
141
12.0
290
     0
  0
SCALE
  5
5B
102
{ACAD_REACTORS
330
37
102
}
330
37
100
AcDbScale
 70
     0
300
1" = 1'-0"
140
1.0
141
12.0
290
     0
  0
SCALE
  5
5C
102
{ACAD_REACTORS
330
37
102
}
330
37
100
AcDbScale
 70
     0
300
1-1/2" = 1'-0"
140
1.5
141
12.0
290
     0
  0
SCALE
  5
5D
102
{ACAD_REACTORS
330
37
102
}
330
37
100
AcDbScale
 70
     0
300
3" = 1'-0"
140
3.0
141
12.0
290
     0
  0
SCALE
  5
5E
102
{ACAD_REACTORS
330
37
102
}
330
37
100
AcDbScale
 70
     0
300
6" = 1'-0"
140
6.0
141
12.0
290
     0
  0
SCALE
  5
5F
102
{ACAD_REACTORS
330
37
102
}
330
37
100
AcDbScale
 70
     0
300
1'-0" = 1'-0"
140
12.0
141
12.0
290
     0
  0
TABLESTYLE
  5
3B
102
{ACAD_XDICTIONARY
360
3C
102
}
102
{ACAD_REACTORS
330
38
102
}
330
38
100
AcDbTableStyle
  3
Standard
 70
     0
 71
     0
 40
0.06
 41
0.06
280
     0
281
     0
  7
Standard
140
0.18
170
     2
 62
     0
 63
     7
283
     0
274
    -2
284
     1
 64
     0
275
    -2
285
     1
 65
     0
276
    -2
286
     1
 66
     0
277
    -2
287
     1
 67
     0
278
    -2
288
     1
 68
     0
279
    -2
289
     1
 69
     0
  7
Standard
140
0.25
170
     5
 62
     0
 63
     7
283
     0
274
    -2
284
     1
 64
     0
275
    -2
285
     1
 65
     0
276
    -2
286
     1
 66
     0
277
    -2
287
     1
 67
     0
278
    -2
288
     1
 68
     0
279
    -2
289
     1
 69
     0
  7
Standard
140
0.18
170
     5
 62
     0
 63
     7
283
     0
274
    -2
284
     1
 64
     0
275
    -2
285
     1
 65
     0
276
    -2
286
     1
 66
     0
277
    -2
287
     1
 67
     0
278
    -2
288
     1
 68
     0
279
    -2
289
     1
 69
     0
  0
VISUALSTYLE
  5
24
102
{ACAD_XDICTIONARY
360
CA
102
}
102
{ACAD_REACTORS
330
25
102
}
330
25
100
AcDbVisualStyle
  2

 70
     4
 71
     0
 72
     2
 73
     0
 90
        0
 40
-0.6
 41
-30.0
 62
     5
 63
     7
421
 16777215
 74
     1
 91
        4
 64
     7
 65
   257
 75
     1
175
     1
 42
1.0
 92
        0
 66
   257
 43
1.0
 76
     1
 77
     6
 78
     2
 67
     7
 79
     5
170
     0
171
     0
290
     0
174
     0
 93
        1
 44
0.0
173
     0
291
     0
 45
0.0
1001
ACAD
1000
AcDbSavedByObjectVersion
1070
     0
  0
VISUALSTYLE
  5
3D
102
{ACAD_XDICTIONARY
360
CD
102
}
102
{ACAD_REACTORS
330
25
102
}
330
25
100
AcDbVisualStyle
  2

 70
     8
 71
     2
 72
     2
 73
     0
 90
        0
 40
-0.6
 41
-30.0
 62
     5
 63
     7
421
 16777215
 74
     1
 91
        0
 64
     7
 65
   257
 75
     1
175
     1
 42
1.0
 92
        8
 66
     8
424
  7895160
 43
1.0
 76
     1
 77
     6
 78
     2
 67
     7
 79
     5
170
     0
171
     0
290
     0
174
     0
 93
       13
 44
0.0
173
     0
291
     0
 45
0.0
1001
ACAD
1000
AcDbSavedByObjectVersion
1070
     0
  0
VISUALSTYLE
  5
3E
102
{ACAD_XDICTIONARY
360
CF
102
}
102
{ACAD_REACTORS
330
25
102
}
330
25
100
AcDbVisualStyle
  2

 70
     5
 71
     0
 72
     2
 73
     0
 90
        0
 40
-0.6
 41
-30.0
 62
     5
 63
     7
421
 16777215
 74
     1
 91
        4
 64
     7
 65
   257
 75
     1
175
     1
 42
1.0
 92
        0
 66
   257
 43
1.0
 76
     1
 77
     6
 78
     2
 67
     7
 79
     3
170
     0
171
     0
290
     0
174
     0
 93
        1
 44
0.0
173
     0
291
     0
 45
0.0
1001
ACAD
1000
AcDbSavedByObjectVersion
1070
     0
  0
DICTIONARYVAR
  5
B4
102
{ACAD_REACTORS
330
AE
102
}
330
AE
100
DictionaryVariables
280
     0
  1
1:1
  0
DICTIONARYVAR
  5
B0
102
{ACAD_REACTORS
330
AE
102
}
330
AE
100
DictionaryVariables
280
     0
  1
STANDARD
  0
DICTIONARYVAR
  5
AF
102
{ACAD_REACTORS
330
AE
102
}
330
AE
100
DictionaryVariables
280
     0
  1
STANDARD
  0
DICTIONARYVAR
  5
B1
102
{ACAD_REACTORS
330
AE
102
}
330
AE
100
DictionaryVariables
280
     0
  1

  0
DICTIONARYVAR
  5
B2
102
{ACAD_REACTORS
330
AE
102
}
330
AE
100
DictionaryVariables
280
     0
  1

  0
DICTIONARYVAR
  5
B9
102
{ACAD_REACTORS
330
AE
102
}
330
AE
100
DictionaryVariables
280
     0
  1
2
  0
DICTIONARYVAR
  5
B6
102
{ACAD_REACTORS
330
AE
102
}
330
AE
100
DictionaryVariables
280
     0
  1
0
  0
DICTIONARYVAR
  5
B7
102
{ACAD_REACTORS
330
AE
102
}
330
AE
100
DictionaryVariables
280
     0
  1
0
  0
DICTIONARYVAR
  5
B5
102
{ACAD_REACTORS
330
AE
102
}
330
AE
100
DictionaryVariables
280
     0
  1
2
  0
DICTIONARYVAR
  5
BA
102
{ACAD_REACTORS
330
AE
102
}
330
AE
100
DictionaryVariables
280
     0
  1
1.570796
  0
DICTIONARYVAR
  5
BB
102
{ACAD_REACTORS
330
AE
102
}
330
AE
100
DictionaryVariables
280
     0
  1
1.570796
  0
DICTIONARYVAR
  5
BC
102
{ACAD_REACTORS
330
AE
102
}
330
AE
100
DictionaryVariables
280
     0
  1
-122.394000
  0
DICTIONARYVAR
  5
B3
102
{ACAD_REACTORS
330
AE
102
}
330
AE
100
DictionaryVariables
280
     0
  1
1
  0
DICTIONARYVAR
  5
B8
102
{ACAD_REACTORS
330
AE
102
}
330
AE
100
DictionaryVariables
280
     0
  1
1
  0
DICTIONARYVAR
  5
BD
102
{ACAD_REACTORS
330
AE
102
}
330
AE
100
DictionaryVariables
280
     0
  1
2
  0
DICTIONARY
  5
C9
102
{ACAD_REACTORS
330
C7
102
}
330
C7
100
AcDbDictionary
281
     1
  0
DICTIONARY
  5
C8
102
{ACAD_REACTORS
330
C7
102
}
330
C7
100
AcDbDictionary
281
     1
  3
5874205856
350
C2
  3
5874205872
350
C3
  3
5874205888
350
C4
  3
5874205904
350
C5
  3
5874205920
350
C6
  0
DICTIONARY
  5
12
330
10
100
AcDbDictionary
280
     1
281
     1
  0
DICTIONARY
  5
34
330
33
100
AcDbDictionary
280
     1
281
     1
  3
ACAD_XREC_ROUNDTRIP
360
35
  0
DICTIONARY
  5
31
330
30
100
AcDbDictionary
280
     1
281
     1
  3
ACAD_XREC_ROUNDTRIP
360
32
  0
DICTIONARY
  5
C
330
A
100
AcDbDictionary
280
     1
281
     1
  3
ACAD_XREC_ROUNDTRIP
360
D
  0
DICTIONARY
  5
3C
330
3B
100
AcDbDictionary
280
     1
281
     1
  3
ACAD_ROUNDTRIP_2008_TABLESTYLE_CELLSTYLEMAP
360
BE
  3
ACAD_XREC_ROUNDTRIP
360
CC
  0
DICTIONARY
  5
CA
330
24
100
AcDbDictionary
280
     1
281
     1
  3
ACAD_XREC_ROUNDTRIP
360
CB
  0
DICTIONARY
  5
CD
330
3D
100
AcDbDictionary
280
     1
281
     1
  3
ACAD_XREC_ROUNDTRIP
360
CE
  0
DICTIONARY
  5
CF
330
3E
100
AcDbDictionary
280
     1
281
     1
  3
ACAD_XREC_ROUNDTRIP
360
D0
  0
XRECORD
  5
C2
102
{ACAD_REACTORS
330
C8
102
}
330
C8
100
AcDbXrecord
280
     1
  1
AcDb_Thumbnail_Schema
102
{ATTRRECORD
341
C3
  2
AcDbDs::TreatedAsObjectData
280
     1
291
     1
102
ATTRRECORD}
102
{ATTRRECORD
341
C4
  2
AcDbDs::Legacy
280
     1
291
     1
102
ATTRRECORD}
  2
AcDbDs::ID
280
    10
 91
        8
102
{ATTRRECORD
341
C5
  2
AcDs:Indexable
280
     1
291
     1
102
ATTRRECORD}
102
{ATTRRECORD
341
C6
  2
AcDbDs::HandleAttribute
280
     7
282
     1
102
ATTRRECORD}
  2
Thumbnail_Data
280
    15
 91
        0
  0
XRECORD
  5
C3
102
{ACAD_REACTORS
330
C8
102
}
330
C8
100
AcDbXrecord
280
     1
  1
AcDbDs::TreatedAsObjectDataSchema
  2
AcDbDs::TreatedAsObjectData
280
     1
 91
        0
  0
XRECORD
  5
C4
102
{ACAD_REACTORS
330
C8
102
}
330
C8
100
AcDbXrecord
280
     1
  1
AcDbDs::LegacySchema
  2
AcDbDs::Legacy
280
     1
 91
        0
  0
XRECORD
  5
C5
102
{ACAD_REACTORS
330
C8
102
}
330
C8
100
AcDbXrecord
280
     1
  1
AcDbDs::IndexedPropertySchema
  2
AcDs:Indexable
280
     1
 91
        0
  0
XRECORD
  5
C6
102
{ACAD_REACTORS
330
C8
102
}
330
C8
100
AcDbXrecord
280
     1
  1
AcDbDs::HandleAttributeSchema
  2
AcDbDs::HandleAttribute
280
     7
 91
        1
284
     1
  0
XRECORD
  5
35
102
{ACAD_REACTORS
330
34
102
}
330
34
100
AcDbXrecord
280
     1
102
MATERIAL
148
0.0
149
0.0
149
0.0
 93
        0
 94
      127
282
     0
 72
     1
 77
     1
171
     1
175
     1
179
     1
273
     0
  0
XRECORD
  5
32
102
{ACAD_REACTORS
330
31
102
}
330
31
100
AcDbXrecord
280
     1
102
MATERIAL
148
0.0
149
0.0
149
0.0
 93
        0
 94
      127
282
     0
 72
     1
 77
     1
171
     1
175
     1
179
     1
273
     0
  0
XRECORD
  5
D
102
{ACAD_REACTORS
330
C
102
}
330
C
100
AcDbXrecord
280
     1
102
MATERIAL
148
0.0
149
0.0
149
0.0
 93
        0
 94
      127
282
     0
 72
     1
 77
     1
171
     1
175
     1
179
     1
273
     0
  0
CELLSTYLEMAP
  5
BE
102
{ACAD_REACTORS
330
3C
102
}
330
3C
100
AcDbCellStyleMap
 90
        3
300
CELLSTYLE
  1
TABLEFORMAT_BEGIN
 90
        5
170
     1
 91
        0
 92
    32768
 62
   257
 93
        1
300
CONTENTFORMAT
  1
CONTENTFORMAT_BEGIN
 90
        0
 91
        0
 92
      512
 93
        0
300

 40
0.0
140
1.0
 94
        5
 62
     0
340
1B
144
0.25
309
CONTENTFORMAT_END
171
     1
301
MARGIN
  1
CELLMARGIN_BEGIN
 40
0.06
 40
0.06
 40
0.06
 40
0.06
 40
0.18
 40
0.18
309
CELLMARGIN_END
 94
        6
 95
        1
302
GRIDFORMAT
  1
GRIDFORMAT_BEGIN
 90
        0
 91
        1
 62
     0
 92
       -2
340
0
 93
        0
 40
0.045
309
GRIDFORMAT_END
 95
        2
302
GRIDFORMAT
  1
GRIDFORMAT_BEGIN
 90
        0
 91
        1
 62
     0
 92
       -2
340
0
 93
        0
 40
0.045
309
GRIDFORMAT_END
 95
        4
302
GRIDFORMAT
  1
GRIDFORMAT_BEGIN
 90
        0
 91
        1
 62
     0
 92
       -2
340
0
 93
        0
 40
0.045
309
GRIDFORMAT_END
 95
        8
302
GRIDFORMAT
  1
GRIDFORMAT_BEGIN
 90
        0
 91
        1
 62
     0
 92
       -2
340
0
 93
        0
 40
0.045
309
GRIDFORMAT_END
 95
       16
302
GRIDFORMAT
  1
GRIDFORMAT_BEGIN
 90
        0
 91
        1
 62
     0
 92
       -2
340
0
 93
        0
 40
0.045
309
GRIDFORMAT_END
 95
       32
302
GRIDFORMAT
  1
GRIDFORMAT_BEGIN
 90
        0
 91
        1
 62
     0
 92
       -2
340
0
 93
        0
 40
0.045
309
GRIDFORMAT_END
309
TABLEFORMAT_END
  1
CELLSTYLE_BEGIN
 90
        1
 91
        1
300
_TITLE
309
CELLSTYLE_END
300
CELLSTYLE
  1
TABLEFORMAT_BEGIN
 90
        5
170
     1
 91
        0
 92
        0
 62
   257
 93
        1
300
CONTENTFORMAT
  1
CONTENTFORMAT_BEGIN
 90
        0
 91
        0
 92
      512
 93
        0
300

 40
0.0
140
1.0
 94
        5
 62
     0
340
1B
144
0.18
309
CONTENTFORMAT_END
171
     1
301
MARGIN
  1
CELLMARGIN_BEGIN
 40
0.06
 40
0.06
 40
0.06
 40
0.06
 40
0.18
 40
0.18
309
CELLMARGIN_END
 94
        6
 95
        1
302
GRIDFORMAT
  1
GRIDFORMAT_BEGIN
 90
        0
 91
        1
 62
     0
 92
       -2
340
0
 93
        0
 40
0.045
309
GRIDFORMAT_END
 95
        2
302
GRIDFORMAT
  1
GRIDFORMAT_BEGIN
 90
        0
 91
        1
 62
     0
 92
       -2
340
0
 93
        0
 40
0.045
309
GRIDFORMAT_END
 95
        4
302
GRIDFORMAT
  1
GRIDFORMAT_BEGIN
 90
        0
 91
        1
 62
     0
 92
       -2
340
0
 93
        0
 40
0.045
309
GRIDFORMAT_END
 95
        8
302
GRIDFORMAT
  1
GRIDFORMAT_BEGIN
 90
        0
 91
        1
 62
     0
 92
       -2
340
0
 93
        0
 40
0.045
309
GRIDFORMAT_END
 95
       16
302
GRIDFORMAT
  1
GRIDFORMAT_BEGIN
 90
        0
 91
        1
 62
     0
 92
       -2
340
0
 93
        0
 40
0.045
309
GRIDFORMAT_END
 95
       32
302
GRIDFORMAT
  1
GRIDFORMAT_BEGIN
 90
        0
 91
        1
 62
     0
 92
       -2
340
0
 93
        0
 40
0.045
309
GRIDFORMAT_END
309
TABLEFORMAT_END
  1
CELLSTYLE_BEGIN
 90
        2
 91
        1
300
_HEADER
309
CELLSTYLE_END
300
CELLSTYLE
  1
TABLEFORMAT_BEGIN
 90
        5
170
     1
 91
        0
 92
        0
 62
   257
 93
        1
300
CONTENTFORMAT
  1
CONTENTFORMAT_BEGIN
 90
        0
 91
        0
 92
      512
 93
        0
300

 40
0.0
140
1.0
 94
        2
 62
     0
340
1B
144
0.18
309
CONTENTFORMAT_END
171
     1
301
MARGIN
  1
CELLMARGIN_BEGIN
 40
0.06
 40
0.06
 40
0.06
 40
0.06
 40
0.18
 40
0.18
309
CELLMARGIN_END
 94
        6
 95
        1
302
GRIDFORMAT
  1
GRIDFORMAT_BEGIN
 90
        0
 91
        1
 62
     0
 92
       -2
340
0
 93
        0
 40
0.045
309
GRIDFORMAT_END
 95
        2
302
GRIDFORMAT
  1
GRIDFORMAT_BEGIN
 90
        0
 91
        1
 62
     0
 92
       -2
340
0
 93
        0
 40
0.045
309
GRIDFORMAT_END
 95
        4
302
GRIDFORMAT
  1
GRIDFORMAT_BEGIN
 90
        0
 91
        1
 62
     0
 92
       -2
340
0
 93
        0
 40
0.045
309
GRIDFORMAT_END
 95
        8
302
GRIDFORMAT
  1
GRIDFORMAT_BEGIN
 90
        0
 91
        1
 62
     0
 92
       -2
340
0
 93
        0
 40
0.045
309
GRIDFORMAT_END
 95
       16
302
GRIDFORMAT
  1
GRIDFORMAT_BEGIN
 90
        0
 91
        1
 62
     0
 92
       -2
340
0
 93
        0
 40
0.045
309
GRIDFORMAT_END
 95
       32
302
GRIDFORMAT
  1
GRIDFORMAT_BEGIN
 90
        0
 91
        1
 62
     0
 92
       -2
340
0
 93
        0
 40
0.045
309
GRIDFORMAT_END
309
TABLEFORMAT_END
  1
CELLSTYLE_BEGIN
 90
        3
 91
        2
300
_DATA
309
CELLSTYLE_END
  0
XRECORD
  5
CC
102
{ACAD_REACTORS
330
3C
102
}
330
3C
100
AcDbXrecord
280
     1
102
ACAD_ROUNDTRIP_PRE2007_TABLESTYLE
 90
      512
 91
        0
  1

 92
      512
 93
        0
  2

 94
      512
 95
        0
  3

  0
XRECORD
  5
CB
102
{ACAD_REACTORS
330
CA
102
}
330
CA
100
AcDbXrecord
280
     1
102
RTVSPost2010Prop28
280
     1
102
RTVSPost2010PropOp28
 70
     1
102
RTVSPost2010Prop29
280
     1
102
RTVSPost2010PropOp29
 70
     1
102
RTVSPost2010Prop30
280
     0
102
RTVSPost2010PropOp30
 70
     1
102
RTVSPost2010Prop31
280
     0
102
RTVSPost2010PropOp31
 70
     1
102
RTVSPost2010Prop32
280
     0
102
RTVSPost2010PropOp32
 70
     1
102
RTVSPost2010Prop33
280
     0
102
RTVSPost2010PropOp33
 70
     1
102
RTVSPost2010Prop34
280
     0
102
RTVSPost2010PropOp34
 70
     1
102
RTVSPost2010Prop35
280
     0
102
RTVSPost2010PropOp35
 70
     1
102
RTVSPost2010Prop36
280
     0
102
RTVSPost2010PropOp36
 70
     1
102
RTVSPost2010Prop37
 90
       50
102
RTVSPost2010PropOp37
 70
     1
102
RTVSPost2010Prop38
140
0.0
102
RTVSPost2010PropOp38
 70
     1
102
RTVSPost2010Prop39
140
1.0
102
RTVSPost2010PropOp39
 70
     1
102
RTVSPost2010Prop40
 90
        0
102
RTVSPost2010PropOp40
 70
     1
102
RTVSPost2010Prop41ColorIndex
 90
       18
102
RTVSPost2010Prop41ColorRGB
 90
-16777216
102
RTVSPost2010PropOp41
 70
     1
102
RTVSPost2010Prop42
 90
       50
102
RTVSPost2010PropOp42
 70
     1
102
RTVSPost2010Prop43
 90
        3
102
RTVSPost2010PropOp43
 70
     1
102
RTVSPost2010Prop44ColorIndex
 90
        5
102
RTVSPost2010Prop44ColorRGB
 90
      255
102
RTVSPost2010PropOp44
 70
     1
102
RTVSPost2010Prop45
280
     0
102
RTVSPost2010PropOp45
 70
     1
102
RTVSPost2010Prop46
 90
       50
102
RTVSPost2010PropOp46
 70
     1
102
RTVSPost2010Prop47
 90
       50
102
RTVSPost2010PropOp47
 70
     1
102
RTVSPost2010Prop48
 90
       50
102
RTVSPost2010PropOp48
 70
     1
102
RTVSPost2010Prop49
280
     0
102
RTVSPost2010PropOp49
 70
     1
102
RTVSPost2010Prop50
 90
       50
102
RTVSPost2010PropOp50
 70
     1
102
RTVSPost2010Prop51ColorIndex
 90
      256
102
RTVSPost2010Prop51ColorRGB
 90
-16777216
102
RTVSPost2010PropOp51
 70
     0
102
RTVSPost2010Prop52
140
1.0
102
RTVSPost2010PropOp52
 70
     0
102
RTVSPost2010Prop53
 90
        2
102
RTVSPost2010PropOp53
 70
     1
102
RTVSPost2010Prop54
  1
strokes_ogs.tif
102
RTVSPost2010PropOp54
 70
     1
102
RTVSPost2010Prop55
280
     0
102
RTVSPost2010PropOp55
 70
     1
102
RTVSPost2010Prop56
140
1.0
102
RTVSPost2010PropOp56
 70
     1
102
RTVSPost2010Prop57
140
1.0
102
RTVSPost2010PropOp57
 70
     1
102
RTVSPropertyOp0
 70
     1
102
RTVSPropertyOp1
 70
     1
102
RTVSPropertyOp2
 70
     1
102
RTVSPropertyOp3
 70
     1
102
RTVSPropertyOp4
 70
     1
102
RTVSPropertyOp5
 70
     1
102
RTVSPropertyOp6
 70
     1
102
RTVSPropertyOp7
 70
     1
102
RTVSPropertyOp8
 70
     1
102
RTVSPropertyOp9
 70
     1
102
RTVSPropertyOp10
 70
     1
102
RTVSPropertyOp11
 70
     1
102
RTVSPropertyOp12
 70
     1
102
RTVSPropertyOp13
 70
     1
102
RTVSPropertyOp14
 70
     1
102
RTVSPropertyOp15
 70
     1
102
RTVSPropertyOp16
 70
     1
102
RTVSPropertyOp17
 70
     1
102
RTVSPropertyOp18
 70
     1
102
RTVSPropertyOp19
 70
     1
102
RTVSPropertyOp20
 70
     1
102
RTVSPropertyOp21
 70
     1
102
RTVSPropertyOp22
 70
     1
102
RTVSPropertyOp23
 70
     1
102
RTVSPropertyOp24
 70
     1
102
RTVSPropertyOp25
 70
     1
102
RTVSPropertyOp26
 70
     1
102
RTVSPropertyOp27
 70
     1
102
RTVSPropertyOp28
 70
     1
102
RTVSPropertyOp29
 70
     1
102
RTVSPropertyOp30
 70
     1
102
RTVSPropertyOp31
 70
     1
102
RTVSPropertyOp32
 70
     1
102
RTVSPropertyOp33
 70
     1
102
RTVSPropertyOp34
 70
     1
102
RTVSPropertyOp35
 70
     1
102
RTVSPropertyOp36
 70
     1
102
RTVSPropertyOp37
 70
     1
102
RTVSPropertyOp38
 70
     1
102
RTVSPropertyOp39
 70
     1
102
RTVSPropertyOp40
 70
     1
102
RTVSPropertyOp41
 70
     1
102
RTVSPropertyOp42
 70
     1
102
RTVSPropertyOp43
 70
     1
102
RTVSPropertyOp44
 70
     1
102
RTVSPropertyOp45
 70
     1
102
RTVSPropertyOp46
 70
     1
102
RTVSPropertyOp47
 70
     1
102
RTVSPropertyOp48
 70
     1
102
RTVSPropertyOp49
 70
     1
102
RTVSPropertyOp50
 70
     1
102
RTVSPropertyOp51
 70
     0
102
RTVSPropertyOp52
 70
     0
102
RTVSPropertyOp53
 70
     1
102
RTVSPropertyOp54
 70
     1
102
RTVSPropertyOp55
 70
     1
102
RTVSPropertyOp56
 70
     1
102
RTVSPropertyOp57
 70
     1
102
RTVSPropertyOp58
 70
     1
102
RTVSPropertyOp59
 70
     1
102
RTVSPropertyOp60
 70
     1
102
RTVSPropertyOp61
 70
     1
102
RTVSPropertyOp62
 70
     1
  0
XRECORD
  5
CE
102
{ACAD_REACTORS
330
CD
102
}
330
CD
100
AcDbXrecord
280
     1
102
RTVSPost2010Prop28
280
     0
102
RTVSPost2010PropOp28
 70
     1
102
RTVSPost2010Prop29
280
     1
102
RTVSPost2010PropOp29
 70
     1
102
RTVSPost2010Prop30
280
     1
102
RTVSPost2010PropOp30
 70
     1
102
RTVSPost2010Prop31
280
     0
102
RTVSPost2010PropOp31
 70
     1
102
RTVSPost2010Prop32
280
     0
102
RTVSPost2010PropOp32
 70
     1
102
RTVSPost2010Prop33
280
     0
102
RTVSPost2010PropOp33
 70
     1
102
RTVSPost2010Prop34
280
     0
102
RTVSPost2010PropOp34
 70
     1
102
RTVSPost2010Prop35
280
     0
102
RTVSPost2010PropOp35
 70
     1
102
RTVSPost2010Prop36
280
     0
102
RTVSPost2010PropOp36
 70
     1
102
RTVSPost2010Prop37
 90
       50
102
RTVSPost2010PropOp37
 70
     1
102
RTVSPost2010Prop38
140
0.0
102
RTVSPost2010PropOp38
 70
     1
102
RTVSPost2010Prop39
140
1.0
102
RTVSPost2010PropOp39
 70
     1
102
RTVSPost2010Prop40
 90
        0
102
RTVSPost2010PropOp40
 70
     1
102
RTVSPost2010Prop41ColorIndex
 90
       18
102
RTVSPost2010Prop41ColorRGB
 90
-16777216
102
RTVSPost2010PropOp41
 70
     1
102
RTVSPost2010Prop42
 90
       50
102
RTVSPost2010PropOp42
 70
     1
102
RTVSPost2010Prop43
 90
        3
102
RTVSPost2010PropOp43
 70
     1
102
RTVSPost2010Prop44ColorIndex
 90
        5
102
RTVSPost2010Prop44ColorRGB
 90
      255
102
RTVSPost2010PropOp44
 70
     1
102
RTVSPost2010Prop45
280
     0
102
RTVSPost2010PropOp45
 70
     1
102
RTVSPost2010Prop46
 90
       50
102
RTVSPost2010PropOp46
 70
     1
102
RTVSPost2010Prop47
 90
       50
102
RTVSPost2010PropOp47
 70
     1
102
RTVSPost2010Prop48
 90
       50
102
RTVSPost2010PropOp48
 70
     1
102
RTVSPost2010Prop49
280
     0
102
RTVSPost2010PropOp49
 70
     1
102
RTVSPost2010Prop50
 90
       50
102
RTVSPost2010PropOp50
 70
     1
102
RTVSPost2010Prop51ColorIndex
 90
      256
102
RTVSPost2010Prop51ColorRGB
 90
-16777216
102
RTVSPost2010PropOp51
 70
     0
102
RTVSPost2010Prop52
140
1.0
102
RTVSPost2010PropOp52
 70
     0
102
RTVSPost2010Prop53
 90
        2
102
RTVSPost2010PropOp53
 70
     1
102
RTVSPost2010Prop54
  1
strokes_ogs.tif
102
RTVSPost2010PropOp54
 70
     1
102
RTVSPost2010Prop55
280
     0
102
RTVSPost2010PropOp55
 70
     1
102
RTVSPost2010Prop56
140
1.0
102
RTVSPost2010PropOp56
 70
     1
102
RTVSPost2010Prop57
140
1.0
102
RTVSPost2010PropOp57
 70
     1
102
RTVSPropertyOp0
 70
     1
102
RTVSPropertyOp1
 70
     1
102
RTVSPropertyOp2
 70
     1
102
RTVSPropertyOp3
 70
     1
102
RTVSPropertyOp4
 70
     1
102
RTVSPropertyOp5
 70
     1
102
RTVSPropertyOp6
 70
     1
102
RTVSPropertyOp7
 70
     1
102
RTVSPropertyOp8
 70
     1
102
RTVSPropertyOp9
 70
     1
102
RTVSPropertyOp10
 70
     1
102
RTVSPropertyOp11
 70
     1
102
RTVSPropertyOp12
 70
     1
102
RTVSPropertyOp13
 70
     1
102
RTVSPropertyOp14
 70
     1
102
RTVSPropertyOp15
 70
     1
102
RTVSPropertyOp16
 70
     1
102
RTVSPropertyOp17
 70
     1
102
RTVSPropertyOp18
 70
     1
102
RTVSPropertyOp19
 70
     1
102
RTVSPropertyOp20
 70
     1
102
RTVSPropertyOp21
 70
     1
102
RTVSPropertyOp22
 70
     1
102
RTVSPropertyOp23
 70
     1
102
RTVSPropertyOp24
 70
     1
102
RTVSPropertyOp25
 70
     1
102
RTVSPropertyOp26
 70
     1
102
RTVSPropertyOp27
 70
     1
102
RTVSPropertyOp28
 70
     1
102
RTVSPropertyOp29
 70
     1
102
RTVSPropertyOp30
 70
     1
102
RTVSPropertyOp31
 70
     1
102
RTVSPropertyOp32
 70
     1
102
RTVSPropertyOp33
 70
     1
102
RTVSPropertyOp34
 70
     1
102
RTVSPropertyOp35
 70
     1
102
RTVSPropertyOp36
 70
     1
102
RTVSPropertyOp37
 70
     1
102
RTVSPropertyOp38
 70
     1
102
RTVSPropertyOp39
 70
     1
102
RTVSPropertyOp40
 70
     1
102
RTVSPropertyOp41
 70
     1
102
RTVSPropertyOp42
 70
     1
102
RTVSPropertyOp43
 70
     1
102
RTVSPropertyOp44
 70
     1
102
RTVSPropertyOp45
 70
     1
102
RTVSPropertyOp46
 70
     1
102
RTVSPropertyOp47
 70
     1
102
RTVSPropertyOp48
 70
     1
102
RTVSPropertyOp49
 70
     1
102
RTVSPropertyOp50
 70
     1
102
RTVSPropertyOp51
 70
     0
102
RTVSPropertyOp52
 70
     0
102
RTVSPropertyOp53
 70
     1
102
RTVSPropertyOp54
 70
     1
102
RTVSPropertyOp55
 70
     1
102
RTVSPropertyOp56
 70
     1
102
RTVSPropertyOp57
 70
     1
102
RTVSPropertyOp58
 70
     1
102
RTVSPropertyOp59
 70
     1
102
RTVSPropertyOp60
 70
     1
102
RTVSPropertyOp61
 70
     1
102
RTVSPropertyOp62
 70
     1
  0
XRECORD
  5
D0
102
{ACAD_REACTORS
330
CF
102
}
330
CF
100
AcDbXrecord
280
     1
102
RTVSPost2010Prop28
280
     0
102
RTVSPost2010PropOp28
 70
     1
102
RTVSPost2010Prop29
280
     1
102
RTVSPost2010PropOp29
 70
     1
102
RTVSPost2010Prop30
280
     1
102
RTVSPost2010PropOp30
 70
     1
102
RTVSPost2010Prop31
280
     0
102
RTVSPost2010PropOp31
 70
     1
102
RTVSPost2010Prop32
280
     0
102
RTVSPost2010PropOp32
 70
     1
102
RTVSPost2010Prop33
280
     0
102
RTVSPost2010PropOp33
 70
     1
102
RTVSPost2010Prop34
280
     0
102
RTVSPost2010PropOp34
 70
     1
102
RTVSPost2010Prop35
280
     0
102
RTVSPost2010PropOp35
 70
     1
102
RTVSPost2010Prop36
280
     0
102
RTVSPost2010PropOp36
 70
     1
102
RTVSPost2010Prop37
 90
       50
102
RTVSPost2010PropOp37
 70
     1
102
RTVSPost2010Prop38
140
0.0
102
RTVSPost2010PropOp38
 70
     1
102
RTVSPost2010Prop39
140
1.0
102
RTVSPost2010PropOp39
 70
     1
102
RTVSPost2010Prop40
 90
        0
102
RTVSPost2010PropOp40
 70
     1
102
RTVSPost2010Prop41ColorIndex
 90
       18
102
RTVSPost2010Prop41ColorRGB
 90
-16777216
102
RTVSPost2010PropOp41
 70
     1
102
RTVSPost2010Prop42
 90
       50
102
RTVSPost2010PropOp42
 70
     1
102
RTVSPost2010Prop43
 90
        3
102
RTVSPost2010PropOp43
 70
     1
102
RTVSPost2010Prop44ColorIndex
 90
        5
102
RTVSPost2010Prop44ColorRGB
 90
      255
102
RTVSPost2010PropOp44
 70
     1
102
RTVSPost2010Prop45
280
     0
102
RTVSPost2010PropOp45
 70
     1
102
RTVSPost2010Prop46
 90
       50
102
RTVSPost2010PropOp46
 70
     1
102
RTVSPost2010Prop47
 90
       50
102
RTVSPost2010PropOp47
 70
     1
102
RTVSPost2010Prop48
 90
       50
102
RTVSPost2010PropOp48
 70
     1
102
RTVSPost2010Prop49
280
     0
102
RTVSPost2010PropOp49
 70
     1
102
RTVSPost2010Prop50
 90
       50
102
RTVSPost2010PropOp50
 70
     1
102
RTVSPost2010Prop51ColorIndex
 90
      256
102
RTVSPost2010Prop51ColorRGB
 90
-16777216
102
RTVSPost2010PropOp51
 70
     0
102
RTVSPost2010Prop52
140
1.0
102
RTVSPost2010PropOp52
 70
     0
102
RTVSPost2010Prop53
 90
        2
102
RTVSPost2010PropOp53
 70
     1
102
RTVSPost2010Prop54
  1
strokes_ogs.tif
102
RTVSPost2010PropOp54
 70
     1
102
RTVSPost2010Prop55
280
     0
102
RTVSPost2010PropOp55
 70
     1
102
RTVSPost2010Prop56
140
1.0
102
RTVSPost2010PropOp56
 70
     1
102
RTVSPost2010Prop57
140
1.0
102
RTVSPost2010PropOp57
 70
     1
102
RTVSPropertyOp0
 70
     1
102
RTVSPropertyOp1
 70
     1
102
RTVSPropertyOp2
 70
     1
102
RTVSPropertyOp3
 70
     1
102
RTVSPropertyOp4
 70
     1
102
RTVSPropertyOp5
 70
     1
102
RTVSPropertyOp6
 70
     1
102
RTVSPropertyOp7
 70
     1
102
RTVSPropertyOp8
 70
     1
102
RTVSPropertyOp9
 70
     1
102
RTVSPropertyOp10
 70
     1
102
RTVSPropertyOp11
 70
     1
102
RTVSPropertyOp12
 70
     1
102
RTVSPropertyOp13
 70
     1
102
RTVSPropertyOp14
 70
     1
102
RTVSPropertyOp15
 70
     1
102
RTVSPropertyOp16
 70
     1
102
RTVSPropertyOp17
 70
     1
102
RTVSPropertyOp18
 70
     1
102
RTVSPropertyOp19
 70
     1
102
RTVSPropertyOp20
 70
     1
102
RTVSPropertyOp21
 70
     1
102
RTVSPropertyOp22
 70
     1
102
RTVSPropertyOp23
 70
     1
102
RTVSPropertyOp24
 70
     1
102
RTVSPropertyOp25
 70
     1
102
RTVSPropertyOp26
 70
     1
102
RTVSPropertyOp27
 70
     1
102
RTVSPropertyOp28
 70
     1
102
RTVSPropertyOp29
 70
     1
102
RTVSPropertyOp30
 70
     1
102
RTVSPropertyOp31
 70
     1
102
RTVSPropertyOp32
 70
     1
102
RTVSPropertyOp33
 70
     1
102
RTVSPropertyOp34
 70
     1
102
RTVSPropertyOp35
 70
     1
102
RTVSPropertyOp36
 70
     1
102
RTVSPropertyOp37
 70
     1
102
RTVSPropertyOp38
 70
     1
102
RTVSPropertyOp39
 70
     1
102
RTVSPropertyOp40
 70
     1
102
RTVSPropertyOp41
 70
     1
102
RTVSPropertyOp42
 70
     1
102
RTVSPropertyOp43
 70
     1
102
RTVSPropertyOp44
 70
     1
102
RTVSPropertyOp45
 70
     1
102
RTVSPropertyOp46
 70
     1
102
RTVSPropertyOp47
 70
     1
102
RTVSPropertyOp48
 70
     1
102
RTVSPropertyOp49
 70
     1
102
RTVSPropertyOp50
 70
     1
102
RTVSPropertyOp51
 70
     0
102
RTVSPropertyOp52
 70
     0
102
RTVSPropertyOp53
 70
     1
102
RTVSPropertyOp54
 70
     1
102
RTVSPropertyOp55
 70
     1
102
RTVSPropertyOp56
 70
     1
102
RTVSPropertyOp57
 70
     1
102
RTVSPropertyOp58
 70
     1
102
RTVSPropertyOp59
 70
     1
102
RTVSPropertyOp60
 70
     1
102
RTVSPropertyOp61
 70
     1
102
RTVSPropertyOp62
 70
     1
  0
ENDSEC
  0
EOF
