<?xml version="1.0" encoding="utf-8"?>
<!-- Generator: Adobe Illustrator 13.0.0, SVG Export Plug-In . SVG Version: 6.00 Build 14948)  -->
<!DOCTYPE svg PUBLIC "-//W3C//DTD SVG 1.1//EN" "http://www.w3.org/Graphics/SVG/1.1/DTD/svg11.dtd">
<svg version="1.1" id="Calque_1" xmlns="http://www.w3.org/2000/svg" xmlns:xlink="http://www.w3.org/1999/xlink" x="0px" y="0px"
	 width="539.098px" height="1536.682px" viewBox="0 0 539.098 1536.682" enable-background="new 0 0 539.098 1536.682"
	 xml:space="preserve">
<g>
	<path fill="#FFFFFF" stroke="#000000" d="M304.012,180.487c-22.029,359.26-44.059,718.519-66.079,1077.781
		c-3.622,58.884,22.704,97.227,78.953,115.01l17.083-54.033c-24.153-6.92-41.708-32.482-39.472-57.504l66.082-1077.79
		c2.221-25.037-15.324-50.596-39.483-57.497l-11.845-3.745c-5.693,18.008-11.387,36.017-17.083,54.034
		C296.117,177.991,300.065,179.239,304.012,180.487z"/>
	<path fill="#FFFFFF" stroke="#000000" d="M363.289,139.794c-22.029,359.259-44.059,718.519-66.079,1077.781
		c-3.622,58.883,22.704,97.226,78.954,115.01l17.082-54.034c-24.154-6.919-41.708-32.481-39.472-57.503l66.082-1077.791
		c2.221-25.036-15.324-50.597-39.483-57.498l-11.845-3.745c-5.693,18.008-11.387,36.017-17.083,54.034
		C355.393,137.297,359.341,138.545,363.289,139.794z"/>
	<path fill="#FFFFFF" stroke="#000000" d="M422.565,99.1c-22.03,359.259-44.059,718.518-66.079,1077.78
		c-3.623,58.885,22.703,97.227,78.953,115.011l17.083-54.034c-24.154-6.92-41.708-32.482-39.472-57.504l66.082-1077.79
		c2.221-25.036-15.324-50.596-39.484-57.497l-11.844-3.744c-5.693,18.008-11.387,36.016-17.084,54.033
		C414.669,96.603,418.618,97.851,422.565,99.1z"/>
	<path fill="#FFFFFF" stroke="#000000" d="M481.841,58.405c-22.029,359.259-44.059,718.519-66.08,1077.781
		c-3.622,58.883,22.705,97.227,78.954,115.01l17.083-54.033c-24.154-6.92-41.708-32.482-39.473-57.504L538.408,61.868
		c2.222-25.036-15.324-50.596-39.483-57.496l-11.844-3.745c-5.693,18.008-11.387,36.016-17.083,54.033
		C473.945,55.909,477.893,57.157,481.841,58.405z"/>
	<path fill="#FFFFFF" stroke="#000000" d="M235.222,1302.436l66.082-1077.792c2.221-25.036-15.323-50.596-39.483-57.497
		l-65.877-20.828l-17.083,54.034c0,0,61.93,19.58,65.878,20.828c-22.03,359.259-44.06,718.518-66.08,1077.781
		c-3.623,58.884,22.704,97.227,78.954,115.01l17.083-54.033C250.539,1353.019,232.985,1327.456,235.222,1302.436z"/>
	<path fill="#FFFFFF" stroke="#000000" d="M175.946,1343.129l66.082-1077.791c2.22-25.036-15.324-50.596-39.484-57.497
		l-65.877-20.828l-17.083,54.033c0,0,61.93,19.58,65.878,20.828c-22.03,359.259-44.06,718.52-66.08,1077.781
		c-3.623,58.883,22.704,97.227,78.954,115.01l17.083-54.033C191.263,1393.713,173.709,1368.151,175.946,1343.129z"/>
	<path fill="#FFFFFF" stroke="#000000" d="M116.669,1383.823l66.082-1077.79c2.221-25.036-15.324-50.596-39.483-57.497
		L77.39,227.708l-17.083,54.033c0,0,61.93,19.58,65.878,20.828c-22.03,359.259-44.06,718.519-66.08,1077.78
		c-3.623,58.885,22.704,97.228,78.953,115.011l17.083-54.034C131.988,1434.407,114.433,1408.844,116.669,1383.823z"/>
	<path fill="#FFFFFF" stroke="#000000" d="M57.394,1424.518l66.082-1077.791c2.222-25.037-15.324-50.597-39.483-57.498
		l-65.878-20.828L1.031,322.436c0,0,61.93,19.58,65.878,20.828c-22.03,359.26-44.06,718.52-66.08,1077.782
		c-3.622,58.883,22.704,97.226,78.954,115.01l17.083-54.033C72.711,1475.102,55.157,1449.54,57.394,1424.518z"/>
</g>
</svg>
