<?xml version="1.0" encoding="utf-8"?>
<!-- Generator: Adobe Illustrator 13.0.0, SVG Export Plug-In . SVG Version: 6.00 Build 14948)  -->
<!DOCTYPE svg PUBLIC "-//W3C//DTD SVG 1.1//EN" "http://www.w3.org/Graphics/SVG/1.1/DTD/svg11.dtd">
<svg version="1.1" id="Calque_1" xmlns="http://www.w3.org/2000/svg" xmlns:xlink="http://www.w3.org/1999/xlink" x="0px" y="0px"
	 width="1077.769px" height="1077.769px" viewBox="0 0 1077.769 1077.769" enable-background="new 0 0 1077.769 1077.769"
	 xml:space="preserve">
<path fill="#FFFFFF" stroke="#000000" d="M1020.588,441.452L1020.588,441.452c0,31.299-25.371,56.67-56.661,56.67
	c-14.648-198.713-185.567-369.632-384.28-384.281l0,0c0-31.299,25.371-56.67,56.66-56.67V0.5c-64.941,0-129.903,0-194.865,0
	c0,18.887,0,37.774,0,56.67l0,0c31.31,0,56.681,25.372,56.681,56.67C299.409,128.49,128.489,299.409,113.841,498.122l0,0
	c-31.299,0-56.671-25.371-56.671-56.67c-18.896,0-37.783,0-56.67,0c0,64.952,0,129.904,0,194.866h56.67l0,0
	c0-31.299,25.372-56.672,56.671-56.672c14.648,198.713,185.568,369.633,384.281,384.271l0,0c0,31.3-25.371,56.682-56.681,56.682
	v56.67c64.962,0,129.924,0,194.865,0c0-18.896,0-37.783,0-56.67l0,0c-31.289,0-56.66-25.382-56.66-56.682
	c198.713-14.639,369.632-185.559,384.28-384.271l0,0c31.29,0,56.661,25.373,56.661,56.672h56.681c0-64.962,0-129.914,0-194.866
	H1020.588"/>
</svg>
