<?xml version="1.0" encoding="utf-8"?>
<!-- Generator: Adobe Illustrator 13.0.0, SVG Export Plug-In . SVG Version: 6.00 Build 14948)  -->
<!DOCTYPE svg PUBLIC "-//W3C//DTD SVG 1.1//EN" "http://www.w3.org/Graphics/SVG/1.1/DTD/svg11.dtd">
<svg version="1.1" id="Calque_1" xmlns="http://www.w3.org/2000/svg" xmlns:xlink="http://www.w3.org/1999/xlink" x="0px" y="0px"
	 width="1370.651px" height="2324.555px" viewBox="0 0 1370.651 2324.555" enable-background="new 0 0 1370.651 2324.555"
	 xml:space="preserve">
<path fill="#FFFFFF" stroke="#000000" d="M1020.588,1450.496L1020.588,1450.496c0,31.3-25.371,56.671-56.661,56.671
	c-14.648-198.713-185.567-369.633-384.28-384.281l0,0c0-31.299,25.371-56.671,56.66-56.671v-56.671c-64.941,0-129.903,0-194.865,0
	c0,18.888,0,37.774,0,56.671l0,0c31.31,0,56.681,25.372,56.681,56.671c-198.713,14.648-369.633,185.568-384.281,384.281l0,0
	c-31.299,0-56.671-25.371-56.671-56.671c-18.896,0-37.783,0-56.67,0c0,64.952,0,129.903,0,194.865h56.67l0,0
	c0-31.299,25.372-56.671,56.671-56.671c14.648,198.713,185.568,369.633,384.281,384.271l0,0c0,31.3-25.371,56.681-56.681,56.681
	v56.67c64.962,0,129.924,0,194.865,0c0-18.896,0-37.783,0-56.67l0,0c-31.289,0-56.66-25.381-56.66-56.681
	c198.713-14.639,369.632-185.559,384.28-384.271l0,0c31.29,0,56.661,25.372,56.661,56.671h56.681c0-64.962,0-129.913,0-194.865
	H1020.588"/>
<path fill="none" stroke="#000000" stroke-linecap="round" stroke-linejoin="round" d="M800.624,57.189
	c87.293,349.188,174.588,698.376,261.893,1047.564c14.297,57.236,50.957,85.859,109.95,85.859v-56.67
	c-25.116,0.684-49.56-18.398-54.97-42.93L855.603,43.439c-5.43-24.541-29.863-43.623-54.979-42.92h-12.422
	c0,18.887,0,37.773,0,56.67C792.343,57.189,796.483,57.189,800.624,57.189z"/>
<path fill="none" stroke="#000000" d="M966.604,1091.013L704.711,43.439c-5.43-24.541-29.863-43.623-54.979-42.92H580.64v56.67
	c0,0,64.951,0,69.092,0c87.294,349.188,174.589,698.376,261.893,1047.564c14.297,57.236,50.957,85.859,109.951,85.859v-56.67
	C996.458,1134.626,972.015,1115.544,966.604,1091.013z"/>
<path fill="none" stroke="#000000" d="M1315.181,1091.013L1053.287,43.439c-5.43-24.541-29.863-43.623-54.979-42.92h-69.092v56.67
	c0,0,64.951,0,69.092,0c87.294,349.188,174.589,698.376,261.893,1047.564c6.087,24.368,16.242,43.53,30.434,57.524
	c-14.191,13.994-24.347,33.156-30.434,57.524c-87.303,349.188-174.598,698.376-261.893,1047.564c-4.141,0-8.281,0-12.422,0
	c0,18.896,0,37.783,0,56.67h12.422c25.117,0.703,49.551-18.379,54.98-42.92l261.893-1047.574
	c5.41-24.531,29.854-43.613,54.971-42.93v-56.67C1345.034,1134.626,1320.591,1115.544,1315.181,1091.013z"/>
</svg>
