<?xml version="1.0" encoding="utf-8"?>
<!-- Generator: Adobe Illustrator 13.0.0, SVG Export Plug-In . SVG Version: 6.00 Build 14948)  -->
<!DOCTYPE svg PUBLIC "-//W3C//DTD SVG 1.1//EN" "http://www.w3.org/Graphics/SVG/1.1/DTD/svg11.dtd">
<svg version="1.1" id="Calque_1" xmlns="http://www.w3.org/2000/svg" xmlns:xlink="http://www.w3.org/1999/xlink" x="0px" y="0px"
	 width="589.7px" height="2324.555px" viewBox="0 0 589.7 2324.555" enable-background="new 0 0 589.7 2324.555"
	 xml:space="preserve">
<path fill="#FFFFFF" stroke="#000000" d="M386.465,1091.013L124.571,43.439c-5.43-24.541-29.863-43.623-54.979-42.92H0.5v56.67
	c0,0,64.951,0,69.092,0c87.294,349.188,174.589,698.376,261.893,1047.564c6.087,24.368,16.242,43.53,30.434,57.524
	c-14.191,13.995-24.347,33.157-30.434,57.524c-87.303,349.188-174.598,698.377-261.893,1047.564c-4.141,0-8.281,0-12.422,0
	c0,18.896,0,37.783,0,56.67h12.422c25.117,0.703,49.551-18.379,54.98-42.92l261.893-1047.574
	c5.41-24.531,29.854-43.613,54.971-42.93v-56.67C416.318,1134.626,391.875,1115.544,386.465,1091.013z"/>
<path fill="#FFFFFF" stroke="#000000" d="M534.229,1091.013L272.336,43.439c-5.43-24.541-29.863-43.623-54.979-42.92h-69.092v56.67
	c0,0,64.951,0,69.092,0c87.294,349.188,174.589,698.376,261.893,1047.564c6.087,24.368,16.242,43.53,30.434,57.524
	c-14.191,13.995-24.347,33.157-30.434,57.524c-87.303,349.188-174.598,698.377-261.893,1047.564c-4.141,0-8.281,0-12.422,0
	c0,18.896,0,37.783,0,56.67h12.422c25.117,0.703,49.551-18.379,54.98-42.92l261.893-1047.574
	c5.41-24.531,29.854-43.613,54.971-42.93v-56.67C564.083,1134.626,539.64,1115.544,534.229,1091.013z"/>
</svg>
