<?xml version="1.0" encoding="utf-8"?>
<!-- Generator: Adobe Illustrator 13.0.0, SVG Export Plug-In . SVG Version: 6.00 Build 14948)  -->
<!DOCTYPE svg PUBLIC "-//W3C//DTD SVG 1.1//EN" "http://www.w3.org/Graphics/SVG/1.1/DTD/svg11.dtd">
<svg version="1.1" id="Calque_1" xmlns="http://www.w3.org/2000/svg" xmlns:xlink="http://www.w3.org/1999/xlink" x="0px" y="0px"
	 width="1077.312px" height="2388.794px" viewBox="0 0 1077.312 2388.794" enable-background="new 0 0 1077.312 2388.794"
	 xml:space="preserve">
<polyline fill="none" stroke="#1A171B" stroke-width="0.5" stroke-dasharray="2,1" points="720.97,1232.16 680.423,1232.16 
	680.423,1229.327 636.175,1229.327 636.175,1223.664 680.423,1223.664 680.423,1220.831 709.388,1220.831 "/>
<polyline fill="none" stroke="#1A171B" stroke-width="0.5" stroke-dasharray="2,1" points="356.635,1232.16 397.182,1232.16 
	397.182,1229.327 441.43,1229.327 441.43,1223.664 397.182,1223.664 397.182,1220.831 368.217,1220.831 "/>
<path fill="none" stroke="#000000" stroke-linecap="round" stroke-linejoin="round" d="M1008.015,2331.605
	c-87.295-349.188-174.59-698.377-261.893-1047.564c-14.297-57.236-50.957-85.859-109.951-85.859v56.67
	c25.117-0.684,49.561,18.398,54.971,42.93l261.893,1047.574c5.43,24.541,29.863,43.623,54.98,42.92h12.422
	c0-18.887,0-37.773,0-56.67C1016.296,2331.605,1012.155,2331.605,1008.015,2331.605z"/>
<g>
	<path fill="none" stroke="#000000" d="M34.473,2359.941c0,3.121-2.535,5.66-5.656,5.66c-3.123,0-5.664-2.539-5.664-5.66
		c0-3.125,2.541-5.664,5.664-5.664C31.938,2354.277,34.473,2356.816,34.473,2359.941z"/>
	<circle fill="none" stroke="#000000" cx="28.814" cy="2359.941" r="2.828"/>
</g>
<g>
	<path fill="none" stroke="#000000" d="M34.473,1226.498c0,3.122-2.535,5.66-5.656,5.66c-3.123,0-5.664-2.538-5.664-5.66
		c0-3.125,2.541-5.663,5.664-5.663C31.938,1220.835,34.473,1223.373,34.473,1226.498z"/>
	<circle fill="none" stroke="#000000" cx="28.814" cy="1226.498" r="2.828"/>
</g>
<g>
	<path fill="none" stroke="#000000" d="M1054.14,1226.498c0,3.122-2.535,5.66-5.655,5.66c-3.123,0-5.665-2.538-5.665-5.66
		c0-3.125,2.542-5.663,5.665-5.663C1051.604,1220.835,1054.14,1223.373,1054.14,1226.498z"/>
	<path fill="none" stroke="#000000" d="M1051.309,1226.498c0,1.562-1.266,2.828-2.824,2.828c-1.563,0-2.832-1.267-2.832-2.828
		c0-1.561,1.27-2.829,2.832-2.829C1050.043,1223.669,1051.309,1224.938,1051.309,1226.498z"/>
</g>
<g>
	<path fill="none" stroke="#1A171B" stroke-width="0.5" stroke-dasharray="2,1" d="M1054.14,2359.941c0,3.121-2.535,5.66-5.655,5.66
		c-3.123,0-5.665-2.539-5.665-5.66c0-3.125,2.542-5.664,5.665-5.664C1051.604,2354.277,1054.14,2356.816,1054.14,2359.941z"/>
	<path fill="none" stroke="#1A171B" stroke-width="0.5" stroke-dasharray="2,1" d="M1051.309,2359.941
		c0,1.561-1.266,2.828-2.824,2.828c-1.563,0-2.832-1.268-2.832-2.828s1.27-2.83,2.832-2.83
		C1050.043,2357.111,1051.309,2358.381,1051.309,2359.941z"/>
</g>
<path fill="none" stroke="#000000" d="M1020.169,441.137L1020.169,441.137c0,31.281-25.354,56.633-56.62,56.633
	c-14.638-198.573-185.434-369.37-384.008-384.011l0,0c0-31.275,25.352-56.629,56.62-56.629V0.5c-64.896,0-129.81,0-194.728,0
	c0,18.873,0,37.747,0,56.63l0,0c31.288,0,56.644,25.354,56.644,56.629c-198.574,14.641-369.373,185.438-384.01,384.011l0,0
	c-31.278,0-56.632-25.352-56.632-56.633c-18.882,0-37.755,0-56.63,0c0,64.908,0,129.813,0,194.728h56.63l0,0
	c0-31.276,25.354-56.63,56.632-56.63c14.637,198.57,185.436,369.371,384.01,383.999l0,0c0,31.279-25.355,56.637-56.644,56.637
	v56.631c64.918,0,129.832,0,194.728,0c0-18.878,0-37.756,0-56.631l0,0c-31.269,0-56.62-25.358-56.62-56.637
	c198.574-14.628,369.37-185.429,384.008-383.999l0,0c31.267,0,56.62,25.354,56.62,56.63h56.643c0-64.915,0-129.819,0-194.728
	H1020.169z"/>
<polyline fill="none" stroke="#1A171B" stroke-width="0.5" stroke-dasharray="2,1" points="23.448,1076.5 23.448,1048.185 
	26.28,1048.185 26.28,1019.87 31.945,1019.87 31.945,1048.185 34.776,1048.185 34.776,1076.5 "/>
<polyline fill="none" stroke="#1A171B" stroke-width="0.5" stroke-dasharray="2,1" points="0.806,23.151 29.12,23.151 29.12,25.983 
	57.436,25.983 57.436,31.647 29.12,31.647 29.12,34.479 0.806,34.479 "/>
<polyline fill="none" stroke="#1A171B" stroke-width="0.5" stroke-dasharray="2,1" points="1054.147,0.5 1054.147,28.814 
	1051.315,28.814 1051.315,57.13 1045.652,57.13 1045.652,28.814 1042.819,28.814 1042.819,0.5 "/>
<polyline fill="none" stroke="#1A171B" stroke-width="0.5" stroke-dasharray="2,1" points="1076.799,1053.85 1048.484,1053.85 
	1048.484,1051.018 1020.168,1051.018 1020.168,1045.354 1048.484,1045.354 1048.484,1042.522 1076.799,1042.522 "/>
<path fill="none" stroke="#000000" d="M386.465,1297.781L124.57,2345.355c-5.43,24.541-29.863,43.623-54.979,42.92H0.5v-56.67
	c0,0,64.951,0,69.092,0c87.293-349.188,174.588-698.377,261.893-1047.564c14.297-57.236,50.957-85.859,109.949-85.859v56.67
	C416.318,1254.168,391.875,1273.25,386.465,1297.781z"/>
<rect x="0.806" y="0.5" fill="none" stroke="#000000" width="56.63" height="440.637"/>
<rect x="57.436" y="0.5" fill="none" stroke="#000000" width="383.998" height="56.63"/>
<rect x="636.161" y="0.5" fill="none" stroke="#000000" width="440.638" height="56.63"/>
<rect x="1020.168" y="57.13" fill="none" stroke="#000000" width="56.631" height="383.998"/>
<rect x="1020.169" y="635.864" fill="none" stroke="#000000" width="56.63" height="440.637"/>
<rect x="1020.164" y="1198.177" fill="none" stroke="#000000" width="56.631" height="1190.097"/>
<rect x="0.503" y="1198.181" fill="none" stroke="#000000" width="56.63" height="1133.423"/>
<rect x="636.171" y="1019.871" fill="none" stroke="#000000" width="383.998" height="56.63"/>
<rect x="0.797" y="1019.87" fill="none" stroke="#000000" width="440.637" height="56.63"/>
<rect x="0.797" y="635.872" fill="none" stroke="#000000" width="56.63" height="383.998"/>
<rect x="441.434" y="1198.182" fill="none" stroke="#000000" width="194.737" height="56.631"/>
<line fill="none" stroke="#000000" x1="57.133" y1="1198.181" x2="441.434" y2="1198.181"/>
<line fill="none" stroke="#000000" x1="636.171" y1="1198.182" x2="1020.164" y2="1198.178"/>
<line fill="none" stroke="#000000" x1="341.91" y1="1254.813" x2="57.133" y2="1254.813"/>
<line fill="none" stroke="#000000" x1="735.696" y1="1254.813" x2="1020.164" y2="1254.813"/>
<line fill="none" stroke="#000000" x1="114.067" y1="1198.181" x2="114.067" y2="1254.813"/>
<line fill="none" stroke="#000000" x1="963.549" y1="1198.178" x2="963.549" y2="1254.813"/>
<g>
	<g>
		<ellipse fill="none" stroke="#000000" cx="715.175" cy="1048.186" rx="5.791" ry="5.669"/>
		<polyline fill="none" stroke="#1A171B" stroke-width="0.5" stroke-dasharray="2,1" points="715.175,1042.517 680.419,1042.517 
			680.419,1045.354 636.171,1045.354 636.171,1051.018 680.419,1051.018 680.419,1053.855 715.175,1053.855 		"/>
	</g>
	<g>
		<ellipse fill="none" stroke="#000000" cx="362.43" cy="1048.186" rx="5.791" ry="5.669"/>
		<polyline fill="none" stroke="#1A171B" stroke-width="0.5" stroke-dasharray="2,1" points="362.43,1053.855 397.186,1053.855 
			397.186,1051.018 441.434,1051.018 441.434,1045.354 397.186,1045.354 397.186,1042.517 362.43,1042.517 		"/>
	</g>
</g>
<g>
	<g>
		<ellipse fill="none" stroke="#000000" cx="715.175" cy="28.815" rx="5.791" ry="5.669"/>
		<polyline fill="none" stroke="#1A171B" stroke-width="0.5" stroke-dasharray="2,1" points="715.175,23.146 680.419,23.146 
			680.419,25.983 636.171,25.983 636.171,31.647 680.419,31.647 680.419,34.484 715.175,34.484 		"/>
	</g>
	<g>
		<ellipse fill="none" stroke="#000000" cx="362.43" cy="28.815" rx="5.791" ry="5.669"/>
		<polyline fill="none" stroke="#1A171B" stroke-width="0.5" stroke-dasharray="2,1" points="362.43,34.484 397.186,34.484 
			397.186,31.647 441.434,31.647 441.434,25.983 397.186,25.983 397.186,23.146 362.43,23.146 		"/>
	</g>
</g>
<g>
	<g>
		<ellipse fill="none" stroke="#000000" cx="29.12" cy="714.878" rx="5.669" ry="5.791"/>
		<polyline fill="none" stroke="#1A171B" stroke-width="0.5" stroke-dasharray="2,1" points="34.79,714.878 34.79,680.122 
			31.952,680.122 31.952,635.874 26.288,635.874 26.288,680.122 23.451,680.122 23.451,714.878 		"/>
	</g>
	<g>
		<ellipse fill="none" stroke="#000000" cx="29.12" cy="362.133" rx="5.67" ry="5.791"/>
		<polyline fill="none" stroke="#1A171B" stroke-width="0.5" stroke-dasharray="2,1" points="23.451,362.133 23.451,396.889 
			26.288,396.889 26.288,441.137 31.952,441.137 31.952,396.889 34.79,396.889 34.79,362.133 		"/>
	</g>
</g>
<g>
	<g>
		<ellipse fill="none" stroke="#000000" cx="1048.482" cy="714.878" rx="5.668" ry="5.791"/>
		<polyline fill="none" stroke="#1A171B" stroke-width="0.5" stroke-dasharray="2,1" points="1054.152,714.878 1054.152,680.122 
			1051.314,680.122 1051.314,635.874 1045.65,635.874 1045.65,680.122 1042.814,680.122 1042.814,714.878 		"/>
	</g>
	<g>
		<ellipse fill="none" stroke="#000000" cx="1048.482" cy="362.133" rx="5.67" ry="5.791"/>
		<polyline fill="none" stroke="#1A171B" stroke-width="0.5" stroke-dasharray="2,1" points="1042.814,362.133 1042.814,396.889 
			1045.65,396.889 1045.65,441.137 1051.314,441.137 1051.314,396.889 1054.152,396.889 1054.152,362.133 		"/>
	</g>
</g>
<path fill="none" stroke="#1A171B" stroke-width="0.5" stroke-dasharray="2,1" d="M57.133,2331.604"/>
<line fill="none" stroke="#1A171B" stroke-width="0.5" stroke-dasharray="2,1" x1="57.133" y1="2331.604" x2="57.133" y2="2388.275"/>
<line fill="none" stroke="#1A171B" stroke-width="0.5" stroke-dasharray="2,1" x1="1020.164" y1="2331.605" x2="1076.795" y2="2331.605"/>
<line fill="none" stroke="#1A171B" stroke-width="0.5" stroke-dasharray="2,1" x1="57.133" y1="1254.813" x2="0.503" y2="1254.813"/>
<line fill="none" stroke="#1A171B" stroke-width="0.5" stroke-dasharray="2,1" x1="1076.794" y1="1254.813" x2="1020.164" y2="1254.813"/>
<line fill="none" stroke="#1A171B" stroke-width="0.5" stroke-dasharray="2,1" x1="498.077" y1="1198.182" x2="498.077" y2="1254.813"/>
<line fill="none" stroke="#1A171B" stroke-width="0.5" stroke-dasharray="2,1" x1="579.541" y1="1198.182" x2="579.541" y2="1254.813"/>
</svg>
