<?xml version="1.0" encoding="utf-8"?>
<!-- Generator: Adobe Illustrator 13.0.0, SVG Export Plug-In . SVG Version: 6.00 Build 14948)  -->
<!DOCTYPE svg PUBLIC "-//W3C//DTD SVG 1.1//EN" "http://www.w3.org/Graphics/SVG/1.1/DTD/svg11.dtd">
<svg version="1.1" id="Calque_1" xmlns="http://www.w3.org/2000/svg" xmlns:xlink="http://www.w3.org/1999/xlink" x="0px" y="0px"
	 width="1726.056px" height="2809.979px" viewBox="0 0 1726.056 2809.979" enable-background="new 0 0 1726.056 2809.979"
	 xml:space="preserve">
<g>
	<g>
		<path fill="none" stroke="#000000" stroke-linecap="round" stroke-linejoin="round" d="M174.75,210.616
			c87.294,349.188,174.589,698.377,261.893,1047.564c14.297,57.236,50.957,85.859,109.951,85.859v-56.67
			c-25.117,0.684-49.56-18.398-54.97-42.929L229.729,196.866c-5.43-24.541-29.863-43.623-54.979-42.92h-12.422
			c0,18.887,0,37.773,0,56.67C166.469,210.616,170.609,210.616,174.75,210.616z"/>
		<polyline fill="none" stroke="#1A171B" stroke-width="0.5" stroke-dasharray="2,1" points="461.799,1310.045 502.346,1310.045 
			502.346,1312.877 546.593,1312.877 546.593,1318.541 502.346,1318.541 502.346,1321.373 473.381,1321.373 		"/>
	</g>
	
		<line fill="none" stroke="#000000" stroke-width="0.1" stroke-linecap="round" stroke-linejoin="round" x1="161.185" y1="154.794" x2="30.885" y2="154.794"/>
	
		<line fill="none" stroke="#000000" stroke-width="0.1" stroke-linecap="round" stroke-linejoin="round" x1="545.178" y1="1344.039" x2="30.885" y2="1344.039"/>
	
		<line fill="none" stroke="#000000" stroke-width="0.1" stroke-linecap="round" stroke-linejoin="round" x1="32.301" y1="1344.039" x2="32.301" y2="154.794"/>
	<polyline points="32.301,1344.039 33.008,1341.209 31.593,1341.209 32.301,1344.039 	"/>
	<polyline points="32.301,154.794 31.593,157.625 33.008,157.625 32.301,154.794 	"/>
	<text transform="matrix(0 -1 1 0 20.5918 769.4375)" font-family="'ArialMT'" font-size="24">420</text>
</g>
<g>
	<path fill="none" stroke="#000000" d="M1169.063,2174.115L1169.063,2174.115c0,31.281-25.354,56.633-56.62,56.633
		c-14.638-198.573-185.434-369.37-384.008-384.011l0,0c0-31.274,25.352-56.629,56.621-56.629v-56.63c-64.896,0-129.81,0-194.728,0
		c0,18.873,0,37.747,0,56.63l0,0c31.288,0,56.644,25.354,56.644,56.629c-198.575,14.641-369.373,185.438-384.01,384.011l0,0
		c-31.278,0-56.631-25.352-56.631-56.633c-18.882,0-37.755,0-56.63,0c0,64.908,0,129.813,0,194.728h56.63l0,0
		c0-31.276,25.354-56.63,56.631-56.63c14.637,198.568,185.436,369.37,384.01,383.999l0,0c0,31.278-25.355,56.637-56.644,56.637
		v56.631c64.918,0,129.832,0,194.728,0c0-18.878,0-37.756,0-56.631l0,0c-31.269,0-56.621-25.358-56.621-56.637
		c198.574-14.629,369.37-185.431,384.008-383.999l0,0c31.267,0,56.62,25.354,56.62,56.63h56.643c0-64.915,0-129.819,0-194.728
		H1169.063z"/>
	
		<line fill="none" stroke="#000000" stroke-width="0.1" stroke-linecap="round" stroke-linejoin="round" x1="588.911" y1="1733.478" x2="30.884" y2="1733.478"/>
	
		<line fill="none" stroke="#000000" stroke-width="0.1" stroke-linecap="round" stroke-linejoin="round" x1="588.911" y1="2809.479" x2="30.884" y2="2809.479"/>
	
		<line fill="none" stroke="#000000" stroke-width="0.1" stroke-linecap="round" stroke-linejoin="round" x1="32.299" y1="2809.479" x2="32.299" y2="1733.478"/>
	<polyline points="32.299,2809.479 33.008,2806.649 31.593,2806.649 32.299,2809.479 	"/>
	<polyline points="32.299,1733.478 31.593,1736.311 33.008,1736.311 32.299,1733.478 	"/>
	<text transform="matrix(0 -1 1 0 22.5908 2291.5005)" font-family="'ArialMT'" font-size="24">380</text>
	
		<line fill="none" stroke="#000000" stroke-width="0.1" stroke-linecap="round" stroke-linejoin="round" x1="590.328" y1="1732.059" x2="590.328" y2="1607.427"/>
	
		<line fill="none" stroke="#000000" stroke-width="0.1" stroke-linecap="round" stroke-linejoin="round" x1="785.056" y1="1732.059" x2="785.056" y2="1607.427"/>
	
		<line fill="none" stroke="#000000" stroke-width="0.1" stroke-linecap="round" stroke-linejoin="round" x1="590.328" y1="1608.842" x2="785.056" y2="1608.842"/>
	<polyline points="590.328,1608.842 593.163,1609.552 593.163,1608.133 590.328,1608.842 	"/>
	<polyline points="785.056,1608.842 782.222,1608.133 782.222,1609.552 785.056,1608.842 	"/>
	<text transform="matrix(1 0 0 1 674.3442 1600.7983)" font-family="'ArialMT'" font-size="24">69</text>
	
		<line fill="none" stroke="#000000" stroke-width="0.1" stroke-linecap="round" stroke-linejoin="round" x1="786.474" y1="1733.478" x2="865.785" y2="1733.478"/>
	
		<line fill="none" stroke="#000000" stroke-width="0.1" stroke-linecap="round" stroke-linejoin="round" x1="786.474" y1="1790.108" x2="865.785" y2="1790.108"/>
	
		<line fill="none" stroke="#000000" stroke-width="0.1" stroke-linecap="round" stroke-linejoin="round" x1="864.367" y1="1790.108" x2="864.367" y2="1733.478"/>
	<polyline points="864.367,1790.108 865.076,1787.275 863.659,1787.275 864.367,1790.108 	"/>
	<polyline points="864.367,1733.478 863.659,1736.311 865.076,1736.311 864.367,1733.478 	"/>
	<text transform="matrix(0 -1 1 0 857.6577 1775.1411)" font-family="'ArialMT'" font-size="24">20</text>
</g>
<g>
	<polyline fill="none" stroke="#1A171B" stroke-width="0.5" stroke-dasharray="2,1" points="1038.957,1310.069 1079.479,1310.069 
		1079.479,1312.902 1123.693,1312.902 1123.693,1318.56 1079.479,1318.56 1079.479,1321.391 1050.532,1321.391 	"/>
	
		<line fill="none" stroke="#000000" stroke-width="0.1" stroke-linecap="round" stroke-linejoin="round" x1="681.354" y1="153.982" x2="602.042" y2="153.982"/>
	
		<line fill="none" stroke="#000000" stroke-width="0.1" stroke-linecap="round" stroke-linejoin="round" x1="682.76" y1="152.824" x2="682.76" y2="26.385"/>
	
		<line fill="none" stroke="#000000" stroke-width="0.1" stroke-linecap="round" stroke-linejoin="round" x1="681.354" y1="210.612" x2="602.042" y2="210.612"/>
	
		<line fill="none" stroke="#000000" stroke-width="0.1" stroke-linecap="round" stroke-linejoin="round" x1="603.456" y1="210.612" x2="603.456" y2="153.982"/>
	<polyline points="603.456,210.612 604.165,207.78 602.749,207.78 603.456,210.612 	"/>
	<polyline points="603.456,153.982 602.749,156.813 604.165,156.813 603.456,153.982 	"/>
	<text transform="matrix(0 -1 1 0 596.0811 195.6445)" font-family="'ArialMT'" font-size="24">20</text>
	
		<line fill="none" stroke="#000000" stroke-width="0.1" stroke-linecap="round" stroke-linejoin="round" x1="1125.11" y1="1315.73" x2="1176.098" y2="1315.73"/>
	
		<line fill="none" stroke="#000000" stroke-width="0.1" stroke-linecap="round" stroke-linejoin="round" x1="1125.11" y1="1344.039" x2="1176.098" y2="1344.039"/>
	
		<line fill="none" stroke="#000000" stroke-width="0.1" stroke-linecap="round" stroke-linejoin="round" x1="1174.684" y1="1344.039" x2="1174.684" y2="1315.73"/>
	<polyline points="1174.684,1344.039 1175.393,1341.209 1173.975,1341.209 1174.684,1344.039 	"/>
	<polyline points="1174.684,1315.73 1173.975,1318.564 1175.393,1318.564 1174.684,1315.73 	"/>
	<text transform="matrix(0 -1 1 0 1167.9707 1343.2324)" font-family="'ArialMT'" font-size="24">10</text>
	
		<line fill="none" stroke="#000000" stroke-width="0.1" stroke-linecap="round" stroke-linejoin="round" x1="707.999" y1="187.034" x2="665.072" y2="252.639"/>
	
		<line fill="none" stroke="#000000" stroke-width="0.1" stroke-linecap="round" stroke-linejoin="round" x1="665.072" y1="252.639" x2="656.575" y2="252.639"/>
	
		<line fill="none" stroke="#000000" stroke-width="0.1" stroke-linecap="round" stroke-linejoin="round" x1="711.089" y1="272.969" x2="702.592" y2="272.969"/>
	
		<line fill="none" stroke="#000000" stroke-width="0.1" stroke-linecap="round" stroke-linejoin="round" x1="709.688" y1="182.281" x2="712.521" y2="182.281"/>
	
		<line fill="none" stroke="#000000" stroke-width="0.1" stroke-linecap="round" stroke-linejoin="round" x1="711.104" y1="183.698" x2="711.104" y2="180.867"/>
	<polyline points="707.999,187.031 705.854,189.014 707.041,189.789 707.999,187.031 	"/>
	<text transform="matrix(1 0 0 1 614.457 254.2227)" font-family="'ArialMT'" font-size="24">Ø 4</text>
	
		<line fill="none" stroke="#000000" stroke-width="0.1" stroke-linecap="round" stroke-linejoin="round" x1="1078.061" y1="1312.902" x2="1001.58" y2="1312.902"/>
	
		<line fill="none" stroke="#000000" stroke-width="0.1" stroke-linecap="round" stroke-linejoin="round" x1="1078.061" y1="1318.56" x2="1001.58" y2="1318.56"/>
	
		<line fill="none" stroke="#000000" stroke-width="0.1" stroke-linecap="round" stroke-linejoin="round" x1="1002.999" y1="1318.56" x2="1002.999" y2="1345.365"/>
	
		<line fill="none" stroke="#000000" stroke-width="0.1" stroke-linecap="round" stroke-linejoin="round" x1="1002.999" y1="1308.65" x2="1002.999" y2="1312.902"/>
	<polyline points="1002.999,1318.56 1002.287,1321.394 1003.708,1321.394 1002.999,1318.56 	"/>
	<g>
		
			<line fill="none" stroke="#000000" stroke-width="0.1" stroke-linecap="round" stroke-linejoin="round" x1="970.979" y1="1321.391" x2="970.979" y2="1348.196"/>
		<polyline points="970.979,1321.391 970.267,1324.225 971.688,1324.225 970.979,1321.391 		"/>
	</g>
	<polyline points="1002.999,1312.902 1003.708,1310.067 1002.287,1310.067 1002.999,1312.902 	"/>
	<g>
		
			<line fill="none" stroke="#000000" stroke-width="0.1" stroke-linecap="round" stroke-linejoin="round" x1="970.979" y1="1305.817" x2="970.979" y2="1310.069"/>
		<polyline points="970.979,1310.069 971.688,1307.234 970.267,1307.234 970.979,1310.069 		"/>
	</g>
	<text transform="matrix(0 -1 1 0 1004.0391 1387.8486)" font-family="'ArialMT'" font-size="24">Ø 2</text>
	
		<line fill="none" stroke="#000000" stroke-width="0.1" stroke-linecap="round" stroke-linejoin="round" x1="1037.543" y1="1310.069" x2="969.56" y2="1310.069"/>
	
		<line fill="none" stroke="#000000" stroke-width="0.1" stroke-linecap="round" stroke-linejoin="round" x1="1049.118" y1="1321.391" x2="969.56" y2="1321.391"/>
	<text transform="matrix(0 -1 1 0 971.5996 1387.8486)" font-family="'ArialMT'" font-size="24">Ø 4</text>
	
		<line fill="none" stroke="#000000" stroke-width="0.1" stroke-linecap="round" stroke-linejoin="round" x1="1123.693" y1="1342.625" x2="1123.693" y2="25.885"/>
	
		<line fill="none" stroke="#000000" stroke-width="0.1" stroke-linecap="round" stroke-linejoin="round" x1="682.76" y1="27.305" x2="1123.693" y2="27.305"/>
	<polyline points="682.76,27.305 685.594,28.01 685.594,26.594 682.76,27.305 	"/>
	<polyline points="1123.693,27.305 1120.862,26.594 1120.862,28.01 1123.693,27.305 	"/>
	<text transform="matrix(1 0 0 1 877.1543 20.5918)" font-family="'ArialMT'" font-size="24">155,5</text>
	
		<line fill="none" stroke="#000000" stroke-width="0.1" stroke-linecap="round" stroke-linejoin="round" x1="711.093" y1="185.121" x2="711.089" y2="272.969"/>
	
		<line fill="none" stroke="#000000" stroke-width="0.1" stroke-linecap="round" stroke-linejoin="round" x1="709.676" y1="182.238" x2="712.506" y2="182.238"/>
	
		<line fill="none" stroke="#000000" stroke-width="0.1" stroke-linecap="round" stroke-linejoin="round" x1="711.093" y1="183.655" x2="711.093" y2="180.822"/>
	<polyline points="711.093,185.121 710.383,187.956 711.797,187.956 711.093,185.121 	"/>
	<text transform="matrix(1 0 0 1 660.3193 274.3662)" font-family="'ArialMT'" font-size="24">Ø 2</text>
	
		<line fill="none" stroke="#000000" stroke-width="0.1" stroke-linecap="round" stroke-linejoin="round" x1="709.688" y1="182.281" x2="641.707" y2="182.281"/>
	
		<line fill="none" stroke="#000000" stroke-width="0.1" stroke-linecap="round" stroke-linejoin="round" x1="681.354" y1="153.982" x2="641.707" y2="153.982"/>
	
		<line fill="none" stroke="#000000" stroke-width="0.1" stroke-linecap="round" stroke-linejoin="round" x1="643.121" y1="182.281" x2="643.121" y2="153.982"/>
	<polyline points="643.121,182.281 643.829,179.451 642.415,179.451 643.121,182.281 	"/>
	<polyline points="643.121,153.982 642.415,156.813 643.829,156.813 643.121,153.982 	"/>
	<text transform="matrix(0 -1 1 0 635.7451 182.4785)" font-family="'ArialMT'" font-size="24">10</text>
	<polyline fill="none" stroke="#1A171B" stroke-width="0.5" stroke-dasharray="2,1" points="1038.899,1310.045 1079.446,1310.045 
		1079.446,1312.877 1123.693,1312.877 1123.693,1318.541 1079.446,1318.541 1079.446,1321.373 1050.481,1321.373 	"/>
	<path fill="none" stroke="#000000" d="M1068.724,1244.44L806.829,196.866c-5.43-24.541-29.863-43.623-54.979-42.92h-69.092v56.67
		c0,0,64.951,0,69.092,0c87.293,349.188,174.588,698.377,261.893,1047.564c14.297,57.236,50.957,85.859,109.95,85.859v-56.67
		C1098.577,1288.053,1074.134,1268.971,1068.724,1244.44z"/>
	<g>
		<path fill="none" stroke="#000000" stroke-linecap="round" stroke-linejoin="round" d="M716.757,182.281
			c0,3.125-2.539,5.664-5.664,5.664s-5.664-2.539-5.664-5.664s2.539-5.664,5.664-5.664S716.757,179.156,716.757,182.281z"/>
		<circle fill="none" stroke="#000000" stroke-linecap="round" stroke-linejoin="round" cx="711.093" cy="182.281" r="2.832"/>
	</g>
</g>
<g>
	<polyline fill="none" stroke="#000000" stroke-linecap="round" stroke-linejoin="round" points="1640.761,1310.893 
		1681.308,1310.893 1681.308,1313.725 1725.556,1313.725 1725.556,1319.389 1681.308,1319.389 1681.308,1322.221 1640.755,1322.221 
			"/>
	<path fill="none" stroke="#000000" d="M1670.585,1245.288L1408.691,197.714c-5.43-24.541-29.863-43.623-54.979-42.92h-69.092v56.67
		c0,0,64.951,0,69.092,0c87.294,349.188,174.589,698.376,261.893,1047.563c6.087,24.368,16.242,43.53,30.434,57.524
		c-14.191,13.994-24.347,33.156-30.434,57.524c-87.303,349.188-174.598,698.376-261.893,1047.564c-4.141,0-8.281,0-12.422,0
		c0,18.896,0,37.783,0,56.67h12.422c25.117,0.703,49.551-18.379,54.98-42.92l261.893-1047.574
		c5.41-24.531,29.854-43.613,54.971-42.93v-56.67C1700.438,1288.901,1675.995,1269.819,1670.585,1245.288z"/>
	<g>
		<path fill="none" stroke="#000000" stroke-linecap="round" stroke-linejoin="round" d="M1318.619,183.129
			c0,3.125-2.539,5.664-5.664,5.664s-5.664-2.539-5.664-5.664s2.539-5.664,5.664-5.664S1318.619,180.004,1318.619,183.129z"/>
		<circle fill="none" stroke="#000000" stroke-linecap="round" stroke-linejoin="round" cx="1312.955" cy="183.129" r="2.832"/>
	</g>
</g>
</svg>
